<mxfile host="Electron" agent="Mozilla/5.0 (Macintosh; Intel Mac OS X 10_15_7) AppleWebKit/537.36 (KHTML, like Gecko) draw.io/24.7.17 Chrome/128.0.6613.36 Electron/32.0.1 Safari/537.36" version="24.7.17">
  <diagram id="UI7ls7mrQthQkyvTppx_" name="Page-1">
    <mxGraphModel dx="-1018" dy="1578" grid="1" gridSize="10" guides="1" tooltips="1" connect="1" arrows="1" fold="1" page="1" pageScale="1" pageWidth="827" pageHeight="1169" math="0" shadow="0">
      <root>
        <mxCell id="0" />
        <mxCell id="1" parent="0" />
        <mxCell id="r6sXxR2GLzjtd24BJmb--83" value="" style="shape=cube;whiteSpace=wrap;html=1;boundedLbl=1;backgroundOutline=1;darkOpacity=0.05;darkOpacity2=0.1;size=10;fillColor=#6DE1D2;" parent="1" vertex="1">
          <mxGeometry x="3153.17" y="294.52" width="60" height="13.94" as="geometry" />
        </mxCell>
        <mxCell id="r6sXxR2GLzjtd24BJmb--79" value="" style="shape=cube;whiteSpace=wrap;html=1;boundedLbl=1;backgroundOutline=1;darkOpacity=0.05;darkOpacity2=0.1;size=10;fillColor=#6DE1D2;" parent="1" vertex="1">
          <mxGeometry x="3153.17" y="290.32" width="60" height="13.94" as="geometry" />
        </mxCell>
        <mxCell id="r6sXxR2GLzjtd24BJmb--78" value="" style="shape=cube;whiteSpace=wrap;html=1;boundedLbl=1;backgroundOutline=1;darkOpacity=0.05;darkOpacity2=0.1;size=10;fillColor=#6DE1D2;" parent="1" vertex="1">
          <mxGeometry x="3153.17" y="286.32" width="60" height="13.94" as="geometry" />
        </mxCell>
        <mxCell id="r6sXxR2GLzjtd24BJmb--77" value="" style="shape=cube;whiteSpace=wrap;html=1;boundedLbl=1;backgroundOutline=1;darkOpacity=0.05;darkOpacity2=0.1;size=10;fillColor=#6DE1D2;" parent="1" vertex="1">
          <mxGeometry x="3153.17" y="282.32" width="60" height="13.94" as="geometry" />
        </mxCell>
        <mxCell id="6Nv2sgZuV1dzqbvO0ICD-4" value="" style="shape=cube;whiteSpace=wrap;html=1;boundedLbl=1;backgroundOutline=1;darkOpacity=0.05;darkOpacity2=0.1;" parent="1" vertex="1">
          <mxGeometry x="2690.68" y="20" width="80" height="30" as="geometry" />
        </mxCell>
        <mxCell id="IM26monnl3EASr7CZdYN-89" value="" style="whiteSpace=wrap;html=1;fontColor=#009900;strokeWidth=2;rounded=1;arcSize=12;" parent="1" vertex="1">
          <mxGeometry x="1978.9700000000003" y="-69.85" width="122" height="51" as="geometry" />
        </mxCell>
        <mxCell id="IM26monnl3EASr7CZdYN-165" value="" style="rounded=1;whiteSpace=wrap;html=1;fillColor=#E6E6E6;strokeWidth=2;" parent="1" vertex="1">
          <mxGeometry x="1850" y="-280.01" width="410" height="129.01" as="geometry" />
        </mxCell>
        <mxCell id="IM26monnl3EASr7CZdYN-171" value="" style="shape=flexArrow;endArrow=classic;html=1;rounded=0;fillColor=#67AB9F;strokeColor=none;exitX=0.1;exitY=0.5;exitDx=0;exitDy=0;exitPerimeter=0;" parent="1" source="IM26monnl3EASr7CZdYN-100" edge="1">
          <mxGeometry width="50" height="50" relative="1" as="geometry">
            <mxPoint x="2105.47" y="-216.03999999999996" as="sourcePoint" />
            <mxPoint x="2077" y="-71" as="targetPoint" />
          </mxGeometry>
        </mxCell>
        <mxCell id="IM26monnl3EASr7CZdYN-163" value="" style="shape=parallelogram;perimeter=parallelogramPerimeter;whiteSpace=wrap;html=1;fixedSize=1;size=5.710000000000036;fillColor=#67AB9F;strokeColor=#67AB9F;" parent="1" vertex="1">
          <mxGeometry x="2069.06" y="-236" width="35.71" height="21.39" as="geometry" />
        </mxCell>
        <mxCell id="IM26monnl3EASr7CZdYN-102" value="" style="group" parent="1" vertex="1" connectable="0">
          <mxGeometry x="2030.9700000000003" y="-251.10000000000002" width="179.39999999999998" height="85.1" as="geometry" />
        </mxCell>
        <mxCell id="IM26monnl3EASr7CZdYN-114" value="" style="shape=trapezoid;perimeter=trapezoidPerimeter;whiteSpace=wrap;html=1;fixedSize=1;strokeColor=#67AB9F;fillColor=#67AB9F;rotation=-180;size=7;" parent="IM26monnl3EASr7CZdYN-102" vertex="1">
          <mxGeometry x="38" y="35.06" width="35" height="5.2" as="geometry" />
        </mxCell>
        <mxCell id="IM26monnl3EASr7CZdYN-94" value="" style="shape=curlyBracket;whiteSpace=wrap;html=1;rounded=1;flipH=1;labelPosition=right;verticalLabelPosition=middle;align=left;verticalAlign=middle;strokeWidth=3;strokeColor=#67AB9F;" parent="IM26monnl3EASr7CZdYN-102" vertex="1">
          <mxGeometry width="47.2" height="72.11864406779661" as="geometry" />
        </mxCell>
        <mxCell id="IM26monnl3EASr7CZdYN-99" value="" style="shape=curlyBracket;whiteSpace=wrap;html=1;rounded=1;flipH=1;labelPosition=right;verticalLabelPosition=middle;align=left;verticalAlign=middle;strokeWidth=3;strokeColor=#67AB9F;" parent="IM26monnl3EASr7CZdYN-102" vertex="1">
          <mxGeometry x="2" y="1.6026365348399247" width="47.2" height="72.11864406779661" as="geometry" />
        </mxCell>
        <mxCell id="IM26monnl3EASr7CZdYN-100" value="" style="shape=curlyBracket;whiteSpace=wrap;html=1;rounded=1;flipH=1;labelPosition=right;verticalLabelPosition=middle;align=left;verticalAlign=middle;strokeWidth=3;strokeColor=#67AB9F;" parent="IM26monnl3EASr7CZdYN-102" vertex="1">
          <mxGeometry x="4" y="3.2052730696798495" width="47.2" height="72.11864406779661" as="geometry" />
        </mxCell>
        <mxCell id="IM26monnl3EASr7CZdYN-93" value="" style="shape=curlyBracket;whiteSpace=wrap;html=1;rounded=1;flipH=1;labelPosition=right;verticalLabelPosition=middle;align=left;verticalAlign=middle;strokeWidth=3;strokeColor=#FFB570;" parent="IM26monnl3EASr7CZdYN-102" vertex="1">
          <mxGeometry x="14.799999999999955" y="14.543926553672298" width="47.2" height="72.11864406779661" as="geometry" />
        </mxCell>
        <mxCell id="IM26monnl3EASr7CZdYN-95" value="" style="shape=curlyBracket;whiteSpace=wrap;html=1;rounded=1;flipH=1;labelPosition=right;verticalLabelPosition=middle;align=left;verticalAlign=middle;strokeWidth=3;strokeColor=#FFB570;" parent="IM26monnl3EASr7CZdYN-102" vertex="1">
          <mxGeometry x="7" y="8.1333804143126" width="47.2" height="72.11864406779661" as="geometry" />
        </mxCell>
        <mxCell id="IM26monnl3EASr7CZdYN-96" value="" style="shape=curlyBracket;whiteSpace=wrap;html=1;rounded=1;flipH=1;labelPosition=right;verticalLabelPosition=middle;align=left;verticalAlign=middle;strokeWidth=3;strokeColor=#FFB570;" parent="IM26monnl3EASr7CZdYN-102" vertex="1">
          <mxGeometry x="10.799999999999955" y="11.170376647834228" width="47.2" height="72.11864406779661" as="geometry" />
        </mxCell>
        <mxCell id="IM26monnl3EASr7CZdYN-97" value="" style="shape=curlyBracket;whiteSpace=wrap;html=1;rounded=1;flipH=1;labelPosition=right;verticalLabelPosition=middle;align=left;verticalAlign=middle;strokeWidth=3;strokeColor=#FFB570;" parent="IM26monnl3EASr7CZdYN-102" vertex="1">
          <mxGeometry x="8.799999999999955" y="9.776082862523532" width="47.2" height="72.11864406779661" as="geometry" />
        </mxCell>
        <mxCell id="IM26monnl3EASr7CZdYN-98" value="" style="shape=curlyBracket;whiteSpace=wrap;html=1;rounded=1;flipH=1;labelPosition=right;verticalLabelPosition=middle;align=left;verticalAlign=middle;strokeWidth=3;strokeColor=#FFB570;" parent="IM26monnl3EASr7CZdYN-102" vertex="1">
          <mxGeometry x="12.799999999999955" y="12.981355932203382" width="47.2" height="72.11864406779661" as="geometry" />
        </mxCell>
        <mxCell id="IM26monnl3EASr7CZdYN-113" value="" style="shape=trapezoid;perimeter=trapezoidPerimeter;whiteSpace=wrap;html=1;fixedSize=1;strokeColor=#FFB570;fillColor=#FFB570;rotation=-180;size=20.59999999999991;" parent="IM26monnl3EASr7CZdYN-102" vertex="1">
          <mxGeometry x="48.8" y="43.3" width="130.6" height="17.9" as="geometry" />
        </mxCell>
        <mxCell id="IM26monnl3EASr7CZdYN-189" value="&lt;pre style=&quot;font-size: 10px; line-height: 0%;&quot;&gt;2dfs &lt;/pre&gt;&lt;pre style=&quot;font-size: 10px; line-height: 0%;&quot;&gt;flattening&lt;/pre&gt;" style="text;html=1;align=center;verticalAlign=middle;whiteSpace=wrap;rounded=0;fontSize=10;" parent="IM26monnl3EASr7CZdYN-102" vertex="1">
          <mxGeometry x="74" y="37.25000000000003" width="60" height="30" as="geometry" />
        </mxCell>
        <mxCell id="IM26monnl3EASr7CZdYN-3" value="" style="whiteSpace=wrap;html=1;fontColor=#009900;strokeWidth=2;rounded=1;arcSize=12;" parent="1" vertex="1">
          <mxGeometry x="1850.81" y="-70.33" width="122" height="50.95" as="geometry" />
        </mxCell>
        <mxCell id="IM26monnl3EASr7CZdYN-65" value="" style="shape=cube;whiteSpace=wrap;html=1;boundedLbl=1;backgroundOutline=1;darkOpacity=0.05;darkOpacity2=0.1;" parent="1" vertex="1">
          <mxGeometry x="1923.57" y="-197.15999999999997" width="130" height="40" as="geometry" />
        </mxCell>
        <mxCell id="IM26monnl3EASr7CZdYN-66" value="" style="shape=cube;whiteSpace=wrap;html=1;boundedLbl=1;backgroundOutline=1;darkOpacity=0.05;darkOpacity2=0.1;" parent="1" vertex="1">
          <mxGeometry x="1923.57" y="-216.15999999999997" width="130" height="40" as="geometry" />
        </mxCell>
        <mxCell id="IM26monnl3EASr7CZdYN-67" value="" style="shape=cube;whiteSpace=wrap;html=1;boundedLbl=1;backgroundOutline=1;darkOpacity=0.05;darkOpacity2=0.1;" parent="1" vertex="1">
          <mxGeometry x="1923.57" y="-232.95" width="130" height="40" as="geometry" />
        </mxCell>
        <mxCell id="IM26monnl3EASr7CZdYN-69" value="" style="shape=cube;whiteSpace=wrap;html=1;boundedLbl=1;backgroundOutline=1;darkOpacity=0.05;darkOpacity2=0.1;size=6;fillColor=#67AB9F;" parent="1" vertex="1">
          <mxGeometry x="2012.77" y="-252.24000000000007" width="26" height="25" as="geometry" />
        </mxCell>
        <mxCell id="IM26monnl3EASr7CZdYN-70" value="" style="shape=cube;whiteSpace=wrap;html=1;boundedLbl=1;backgroundOutline=1;darkOpacity=0.05;darkOpacity2=0.1;size=6;fillColor=#FFB570;" parent="1" vertex="1">
          <mxGeometry x="2018.9700000000003" y="-245.74000000000007" width="26" height="25" as="geometry" />
        </mxCell>
        <mxCell id="IM26monnl3EASr7CZdYN-71" value="" style="shape=cube;whiteSpace=wrap;html=1;boundedLbl=1;backgroundOutline=1;darkOpacity=0.05;darkOpacity2=0.1;size=6;fillColor=#FFB570;" parent="1" vertex="1">
          <mxGeometry x="2025.9700000000003" y="-238.95000000000005" width="26" height="25" as="geometry" />
        </mxCell>
        <mxCell id="IM26monnl3EASr7CZdYN-72" value="" style="shape=cube;whiteSpace=wrap;html=1;boundedLbl=1;backgroundOutline=1;darkOpacity=0.05;darkOpacity2=0.1;size=6;fillColor=#67AB9F;" parent="1" vertex="1">
          <mxGeometry x="1990.77" y="-252.10000000000008" width="26" height="25" as="geometry" />
        </mxCell>
        <mxCell id="IM26monnl3EASr7CZdYN-73" value="" style="shape=cube;whiteSpace=wrap;html=1;boundedLbl=1;backgroundOutline=1;darkOpacity=0.05;darkOpacity2=0.1;size=6;fillColor=#FFB570;" parent="1" vertex="1">
          <mxGeometry x="1996.97" y="-245.60000000000008" width="26" height="25" as="geometry" />
        </mxCell>
        <mxCell id="IM26monnl3EASr7CZdYN-74" value="" style="shape=cube;whiteSpace=wrap;html=1;boundedLbl=1;backgroundOutline=1;darkOpacity=0.05;darkOpacity2=0.1;size=6;" parent="1" vertex="1">
          <mxGeometry x="2003.97" y="-238.81000000000006" width="26" height="25" as="geometry" />
        </mxCell>
        <mxCell id="IM26monnl3EASr7CZdYN-75" value="" style="shape=cube;whiteSpace=wrap;html=1;boundedLbl=1;backgroundOutline=1;darkOpacity=0.05;darkOpacity2=0.1;size=6;fillColor=#67AB9F;" parent="1" vertex="1">
          <mxGeometry x="1968.97" y="-252.10000000000008" width="26" height="25" as="geometry" />
        </mxCell>
        <mxCell id="IM26monnl3EASr7CZdYN-76" value="" style="shape=cube;whiteSpace=wrap;html=1;boundedLbl=1;backgroundOutline=1;darkOpacity=0.05;darkOpacity2=0.1;size=6;fillColor=#FFB570;" parent="1" vertex="1">
          <mxGeometry x="1975.17" y="-245.60000000000008" width="26" height="25" as="geometry" />
        </mxCell>
        <mxCell id="IM26monnl3EASr7CZdYN-77" value="" style="shape=cube;whiteSpace=wrap;html=1;boundedLbl=1;backgroundOutline=1;darkOpacity=0.05;darkOpacity2=0.1;size=6;" parent="1" vertex="1">
          <mxGeometry x="1982.17" y="-238.81000000000006" width="26" height="25" as="geometry" />
        </mxCell>
        <mxCell id="IM26monnl3EASr7CZdYN-78" value="" style="shape=cube;whiteSpace=wrap;html=1;boundedLbl=1;backgroundOutline=1;darkOpacity=0.05;darkOpacity2=0.1;size=6;fillColor=#67AB9F;" parent="1" vertex="1">
          <mxGeometry x="1947.57" y="-252.10000000000008" width="26" height="25" as="geometry" />
        </mxCell>
        <mxCell id="IM26monnl3EASr7CZdYN-79" value="" style="shape=cube;whiteSpace=wrap;html=1;boundedLbl=1;backgroundOutline=1;darkOpacity=0.05;darkOpacity2=0.1;size=6;fillColor=#A9C4EB;" parent="1" vertex="1">
          <mxGeometry x="1953.77" y="-245.60000000000008" width="26" height="25" as="geometry" />
        </mxCell>
        <mxCell id="IM26monnl3EASr7CZdYN-80" value="" style="shape=cube;whiteSpace=wrap;html=1;boundedLbl=1;backgroundOutline=1;darkOpacity=0.05;darkOpacity2=0.1;size=6;fillColor=#A9C4EB;" parent="1" vertex="1">
          <mxGeometry x="1960.77" y="-238.81000000000006" width="26" height="25" as="geometry" />
        </mxCell>
        <mxCell id="IM26monnl3EASr7CZdYN-81" value="" style="shape=cube;whiteSpace=wrap;html=1;boundedLbl=1;backgroundOutline=1;darkOpacity=0.05;darkOpacity2=0.1;size=6;fillColor=#67AB9F;" parent="1" vertex="1">
          <mxGeometry x="1925.77" y="-252.10000000000008" width="26" height="25" as="geometry" />
        </mxCell>
        <mxCell id="IM26monnl3EASr7CZdYN-82" value="" style="shape=cube;whiteSpace=wrap;html=1;boundedLbl=1;backgroundOutline=1;darkOpacity=0.05;darkOpacity2=0.1;size=6;fillColor=#A9C4EB;" parent="1" vertex="1">
          <mxGeometry x="1931.97" y="-245.60000000000008" width="26" height="25" as="geometry" />
        </mxCell>
        <mxCell id="IM26monnl3EASr7CZdYN-83" value="" style="shape=cube;whiteSpace=wrap;html=1;boundedLbl=1;backgroundOutline=1;darkOpacity=0.05;darkOpacity2=0.1;size=6;fillColor=#A9C4EB;" parent="1" vertex="1">
          <mxGeometry x="1938.97" y="-238.81000000000006" width="26" height="25" as="geometry" />
        </mxCell>
        <mxCell id="IM26monnl3EASr7CZdYN-85" value="&lt;pre&gt;layer 0&lt;/pre&gt;" style="text;html=1;align=center;verticalAlign=middle;whiteSpace=wrap;rounded=0;" parent="1" vertex="1">
          <mxGeometry x="1965.17" y="-182" width="60" height="30" as="geometry" />
        </mxCell>
        <mxCell id="IM26monnl3EASr7CZdYN-86" value="&lt;pre&gt;layer 1&lt;/pre&gt;" style="text;html=1;align=center;verticalAlign=middle;whiteSpace=wrap;rounded=0;" parent="1" vertex="1">
          <mxGeometry x="1965.17" y="-200.95" width="60" height="30" as="geometry" />
        </mxCell>
        <mxCell id="IM26monnl3EASr7CZdYN-87" value="&lt;pre&gt;layer 2&lt;/pre&gt;" style="text;html=1;align=center;verticalAlign=middle;whiteSpace=wrap;rounded=0;" parent="1" vertex="1">
          <mxGeometry x="1964.97" y="-218.95" width="60" height="30" as="geometry" />
        </mxCell>
        <mxCell id="IM26monnl3EASr7CZdYN-88" value="&lt;pre&gt;2dfs.field&lt;/pre&gt;" style="text;html=1;align=center;verticalAlign=middle;whiteSpace=wrap;rounded=0;" parent="1" vertex="1">
          <mxGeometry x="1985.97" y="-275.95" width="60" height="30" as="geometry" />
        </mxCell>
        <mxCell id="IM26monnl3EASr7CZdYN-90" value="" style="whiteSpace=wrap;html=1;fontColor=#009900;strokeWidth=2;rounded=1;arcSize=12;" parent="1" vertex="1">
          <mxGeometry x="2106.54" y="-70.32999999999998" width="122" height="51" as="geometry" />
        </mxCell>
        <mxCell id="IM26monnl3EASr7CZdYN-111" value="" style="group" parent="1" vertex="1" connectable="0">
          <mxGeometry x="1884.77" y="-241.83000000000004" width="58" height="77.75" as="geometry" />
        </mxCell>
        <mxCell id="IM26monnl3EASr7CZdYN-92" value="" style="shape=curlyBracket;whiteSpace=wrap;html=1;rounded=1;labelPosition=left;verticalLabelPosition=middle;align=right;verticalAlign=middle;strokeColor=#A9C4EB;strokeWidth=3;perimeterSpacing=1;" parent="IM26monnl3EASr7CZdYN-111" vertex="1">
          <mxGeometry y="0.8000000000000114" width="50.00000000000008" height="69.01960312366285" as="geometry" />
        </mxCell>
        <mxCell id="IM26monnl3EASr7CZdYN-103" value="" style="shape=curlyBracket;whiteSpace=wrap;html=1;rounded=1;labelPosition=left;verticalLabelPosition=middle;align=right;verticalAlign=middle;strokeColor=#A9C4EB;strokeWidth=3;perimeterSpacing=1;" parent="IM26monnl3EASr7CZdYN-111" vertex="1">
          <mxGeometry x="1.349999999999909" y="2.8555573384680883" width="50.00000000000008" height="69.01960312366285" as="geometry" />
        </mxCell>
        <mxCell id="IM26monnl3EASr7CZdYN-104" value="" style="shape=curlyBracket;whiteSpace=wrap;html=1;rounded=1;labelPosition=left;verticalLabelPosition=middle;align=right;verticalAlign=middle;strokeColor=#A9C4EB;strokeWidth=3;perimeterSpacing=1;" parent="IM26monnl3EASr7CZdYN-111" vertex="1">
          <mxGeometry x="3.349999999999909" y="4.480503851091157" width="50.00000000000008" height="69.01960312366285" as="geometry" />
        </mxCell>
        <mxCell id="IM26monnl3EASr7CZdYN-105" value="" style="shape=curlyBracket;whiteSpace=wrap;html=1;rounded=1;labelPosition=left;verticalLabelPosition=middle;align=right;verticalAlign=middle;strokeColor=#A9C4EB;strokeWidth=3;perimeterSpacing=1;" parent="IM26monnl3EASr7CZdYN-111" vertex="1">
          <mxGeometry x="4.349999999999909" y="6.105450363714169" width="50.00000000000008" height="69.01960312366285" as="geometry" />
        </mxCell>
        <mxCell id="IM26monnl3EASr7CZdYN-106" value="" style="shape=curlyBracket;whiteSpace=wrap;html=1;rounded=1;labelPosition=left;verticalLabelPosition=middle;align=right;verticalAlign=middle;strokeColor=#A9C4EB;strokeWidth=3;perimeterSpacing=1;" parent="IM26monnl3EASr7CZdYN-111" vertex="1">
          <mxGeometry x="6.349999999999909" y="7.730396876337181" width="50.00000000000008" height="69.01960312366285" as="geometry" />
        </mxCell>
        <mxCell id="IM26monnl3EASr7CZdYN-109" value="" style="shape=trapezoid;perimeter=trapezoidPerimeter;whiteSpace=wrap;html=1;fixedSize=1;strokeColor=#A9C4EB;fillColor=#A9C4EB;" parent="IM26monnl3EASr7CZdYN-111" vertex="1">
          <mxGeometry x="42" width="16" height="8.7" as="geometry" />
        </mxCell>
        <mxCell id="IM26monnl3EASr7CZdYN-110" value="" style="shape=trapezoid;perimeter=trapezoidPerimeter;whiteSpace=wrap;html=1;fixedSize=1;strokeColor=#A9C4EB;fillColor=#A9C4EB;" parent="IM26monnl3EASr7CZdYN-111" vertex="1">
          <mxGeometry x="42" y="69.05000000000001" width="16" height="8.7" as="geometry" />
        </mxCell>
        <mxCell id="IM26monnl3EASr7CZdYN-112" value="" style="shape=trapezoid;perimeter=trapezoidPerimeter;whiteSpace=wrap;html=1;fixedSize=1;strokeColor=#A9C4EB;fillColor=#A9C4EB;rotation=-180;size=7;" parent="IM26monnl3EASr7CZdYN-111" vertex="1">
          <mxGeometry x="5" y="34" width="17" height="9.2" as="geometry" />
        </mxCell>
        <mxCell id="IM26monnl3EASr7CZdYN-121" value="" style="shape=cube;whiteSpace=wrap;html=1;boundedLbl=1;backgroundOutline=1;darkOpacity=0.05;darkOpacity2=0.1;size=12;fillColor=#A9C4EB;" parent="1" vertex="1">
          <mxGeometry x="1854.77" y="-204.8" width="52.09" height="16.95" as="geometry" />
        </mxCell>
        <mxCell id="IM26monnl3EASr7CZdYN-122" value="" style="shape=cube;whiteSpace=wrap;html=1;boundedLbl=1;backgroundOutline=1;darkOpacity=0.05;darkOpacity2=0.1;size=12;fillColor=#A9C4EB;" parent="1" vertex="1">
          <mxGeometry x="1854.77" y="-209.85000000000002" width="52.09" height="16.95" as="geometry" />
        </mxCell>
        <mxCell id="IM26monnl3EASr7CZdYN-123" value="" style="shape=cube;whiteSpace=wrap;html=1;boundedLbl=1;backgroundOutline=1;darkOpacity=0.05;darkOpacity2=0.1;size=12;fillColor=#A9C4EB;" parent="1" vertex="1">
          <mxGeometry x="1854.77" y="-214.8" width="52.09" height="16.95" as="geometry" />
        </mxCell>
        <mxCell id="IM26monnl3EASr7CZdYN-124" value="" style="shape=cube;whiteSpace=wrap;html=1;boundedLbl=1;backgroundOutline=1;darkOpacity=0.05;darkOpacity2=0.1;size=12;fillColor=#A9C4EB;" parent="1" vertex="1">
          <mxGeometry x="1854.77" y="-220.01000000000005" width="52.09" height="16.95" as="geometry" />
        </mxCell>
        <mxCell id="IM26monnl3EASr7CZdYN-142" value="" style="shape=cube;whiteSpace=wrap;html=1;boundedLbl=1;backgroundOutline=1;darkOpacity=0.05;darkOpacity2=0.1;size=12;" parent="1" vertex="1">
          <mxGeometry x="2166.34" y="-38.64999999999998" width="52.09" height="16.95" as="geometry" />
        </mxCell>
        <mxCell id="IM26monnl3EASr7CZdYN-143" value="" style="shape=cube;whiteSpace=wrap;html=1;boundedLbl=1;backgroundOutline=1;darkOpacity=0.05;darkOpacity2=0.1;size=12;" parent="1" vertex="1">
          <mxGeometry x="2166.34" y="-43.079999999999984" width="52.09" height="16.95" as="geometry" />
        </mxCell>
        <mxCell id="IM26monnl3EASr7CZdYN-144" value="" style="shape=cube;whiteSpace=wrap;html=1;boundedLbl=1;backgroundOutline=1;darkOpacity=0.05;darkOpacity2=0.1;size=12;" parent="1" vertex="1">
          <mxGeometry x="2166.34" y="-47.60000000000002" width="52.09" height="16.95" as="geometry" />
        </mxCell>
        <mxCell id="IM26monnl3EASr7CZdYN-145" value="" style="shape=cube;whiteSpace=wrap;html=1;boundedLbl=1;backgroundOutline=1;darkOpacity=0.05;darkOpacity2=0.1;size=12;fillColor=#FFB570;" parent="1" vertex="1">
          <mxGeometry x="2166.34" y="-52.60000000000003" width="52.09" height="16.95" as="geometry" />
        </mxCell>
        <mxCell id="IM26monnl3EASr7CZdYN-146" value="" style="shape=cube;whiteSpace=wrap;html=1;boundedLbl=1;backgroundOutline=1;darkOpacity=0.05;darkOpacity2=0.1;size=12;fillColor=#FFB570;" parent="1" vertex="1">
          <mxGeometry x="2166.34" y="-57.65000000000004" width="52.09" height="16.95" as="geometry" />
        </mxCell>
        <mxCell id="IM26monnl3EASr7CZdYN-147" value="" style="shape=cube;whiteSpace=wrap;html=1;boundedLbl=1;backgroundOutline=1;darkOpacity=0.05;darkOpacity2=0.1;size=12;fillColor=#FFB570;" parent="1" vertex="1">
          <mxGeometry x="2166.34" y="-62.60000000000002" width="52.09" height="16.95" as="geometry" />
        </mxCell>
        <mxCell id="IM26monnl3EASr7CZdYN-148" value="" style="shape=cube;whiteSpace=wrap;html=1;boundedLbl=1;backgroundOutline=1;darkOpacity=0.05;darkOpacity2=0.1;size=12;fillColor=#FFB570;" parent="1" vertex="1">
          <mxGeometry x="2166.34" y="-67.81" width="52.09" height="16.95" as="geometry" />
        </mxCell>
        <mxCell id="IM26monnl3EASr7CZdYN-149" value="" style="shape=cube;whiteSpace=wrap;html=1;boundedLbl=1;backgroundOutline=1;darkOpacity=0.05;darkOpacity2=0.1;size=12;" parent="1" vertex="1">
          <mxGeometry x="2039.77" y="-37.8" width="52.09" height="16.95" as="geometry" />
        </mxCell>
        <mxCell id="IM26monnl3EASr7CZdYN-150" value="" style="shape=cube;whiteSpace=wrap;html=1;boundedLbl=1;backgroundOutline=1;darkOpacity=0.05;darkOpacity2=0.1;size=12;" parent="1" vertex="1">
          <mxGeometry x="2039.77" y="-42.230000000000004" width="52.09" height="16.95" as="geometry" />
        </mxCell>
        <mxCell id="IM26monnl3EASr7CZdYN-151" value="" style="shape=cube;whiteSpace=wrap;html=1;boundedLbl=1;backgroundOutline=1;darkOpacity=0.05;darkOpacity2=0.1;size=12;" parent="1" vertex="1">
          <mxGeometry x="2039.77" y="-46.749999999999986" width="52.09" height="16.95" as="geometry" />
        </mxCell>
        <mxCell id="IM26monnl3EASr7CZdYN-152" value="" style="shape=cube;whiteSpace=wrap;html=1;boundedLbl=1;backgroundOutline=1;darkOpacity=0.05;darkOpacity2=0.1;size=12;fillColor=#67AB9F;" parent="1" vertex="1">
          <mxGeometry x="2039.77" y="-51.749999999999986" width="52.09" height="16.95" as="geometry" />
        </mxCell>
        <mxCell id="IM26monnl3EASr7CZdYN-153" value="" style="shape=cube;whiteSpace=wrap;html=1;boundedLbl=1;backgroundOutline=1;darkOpacity=0.05;darkOpacity2=0.1;size=12;fillColor=#67AB9F;" parent="1" vertex="1">
          <mxGeometry x="2039.77" y="-56.79999999999999" width="52.09" height="16.95" as="geometry" />
        </mxCell>
        <mxCell id="IM26monnl3EASr7CZdYN-154" value="" style="shape=cube;whiteSpace=wrap;html=1;boundedLbl=1;backgroundOutline=1;darkOpacity=0.05;darkOpacity2=0.1;size=12;fillColor=#67AB9F;" parent="1" vertex="1">
          <mxGeometry x="2039.77" y="-61.74999999999998" width="52.09" height="16.95" as="geometry" />
        </mxCell>
        <mxCell id="IM26monnl3EASr7CZdYN-155" value="" style="shape=cube;whiteSpace=wrap;html=1;boundedLbl=1;backgroundOutline=1;darkOpacity=0.05;darkOpacity2=0.1;size=12;fillColor=#67AB9F;" parent="1" vertex="1">
          <mxGeometry x="2039.77" y="-66.96000000000001" width="52.09" height="16.95" as="geometry" />
        </mxCell>
        <mxCell id="IM26monnl3EASr7CZdYN-156" value="" style="shape=cube;whiteSpace=wrap;html=1;boundedLbl=1;backgroundOutline=1;darkOpacity=0.05;darkOpacity2=0.1;size=12;" parent="1" vertex="1">
          <mxGeometry x="1863.8100000000002" y="-38.33000000000003" width="52.09" height="16.95" as="geometry" />
        </mxCell>
        <mxCell id="IM26monnl3EASr7CZdYN-157" value="" style="shape=cube;whiteSpace=wrap;html=1;boundedLbl=1;backgroundOutline=1;darkOpacity=0.05;darkOpacity2=0.1;size=12;" parent="1" vertex="1">
          <mxGeometry x="1863.8100000000002" y="-42.76000000000003" width="52.09" height="16.95" as="geometry" />
        </mxCell>
        <mxCell id="IM26monnl3EASr7CZdYN-158" value="" style="shape=cube;whiteSpace=wrap;html=1;boundedLbl=1;backgroundOutline=1;darkOpacity=0.05;darkOpacity2=0.1;size=12;" parent="1" vertex="1">
          <mxGeometry x="1863.8100000000002" y="-47.280000000000015" width="52.09" height="16.95" as="geometry" />
        </mxCell>
        <mxCell id="IM26monnl3EASr7CZdYN-159" value="" style="shape=cube;whiteSpace=wrap;html=1;boundedLbl=1;backgroundOutline=1;darkOpacity=0.05;darkOpacity2=0.1;size=12;fillColor=#A9C4EB;" parent="1" vertex="1">
          <mxGeometry x="1863.8100000000002" y="-52.28000000000003" width="52.09" height="16.95" as="geometry" />
        </mxCell>
        <mxCell id="IM26monnl3EASr7CZdYN-160" value="" style="shape=cube;whiteSpace=wrap;html=1;boundedLbl=1;backgroundOutline=1;darkOpacity=0.05;darkOpacity2=0.1;size=12;fillColor=#A9C4EB;" parent="1" vertex="1">
          <mxGeometry x="1863.8100000000002" y="-57.329999999999984" width="52.09" height="16.95" as="geometry" />
        </mxCell>
        <mxCell id="IM26monnl3EASr7CZdYN-161" value="" style="shape=cube;whiteSpace=wrap;html=1;boundedLbl=1;backgroundOutline=1;darkOpacity=0.05;darkOpacity2=0.1;size=12;fillColor=#A9C4EB;" parent="1" vertex="1">
          <mxGeometry x="1863.8100000000002" y="-62.27999999999997" width="52.09" height="16.95" as="geometry" />
        </mxCell>
        <mxCell id="IM26monnl3EASr7CZdYN-162" value="" style="shape=cube;whiteSpace=wrap;html=1;boundedLbl=1;backgroundOutline=1;darkOpacity=0.05;darkOpacity2=0.1;size=12;fillColor=#A9C4EB;" parent="1" vertex="1">
          <mxGeometry x="1863.8100000000002" y="-67.49000000000001" width="52.09" height="16.95" as="geometry" />
        </mxCell>
        <mxCell id="IM26monnl3EASr7CZdYN-135" value="" style="shape=cube;whiteSpace=wrap;html=1;boundedLbl=1;backgroundOutline=1;darkOpacity=0.05;darkOpacity2=0.1;size=12;fillColor=#67AB9F;" parent="1" vertex="1">
          <mxGeometry x="2074.9700000000003" y="-228.03000000000003" width="52.09" height="16.95" as="geometry" />
        </mxCell>
        <mxCell id="IM26monnl3EASr7CZdYN-136" value="" style="shape=cube;whiteSpace=wrap;html=1;boundedLbl=1;backgroundOutline=1;darkOpacity=0.05;darkOpacity2=0.1;size=12;fillColor=#67AB9F;" parent="1" vertex="1">
          <mxGeometry x="2074.9700000000003" y="-233.08000000000004" width="52.09" height="16.95" as="geometry" />
        </mxCell>
        <mxCell id="IM26monnl3EASr7CZdYN-137" value="" style="shape=cube;whiteSpace=wrap;html=1;boundedLbl=1;backgroundOutline=1;darkOpacity=0.05;darkOpacity2=0.1;size=12;fillColor=#67AB9F;" parent="1" vertex="1">
          <mxGeometry x="2074.9700000000003" y="-238.03000000000003" width="52.09" height="16.95" as="geometry" />
        </mxCell>
        <mxCell id="IM26monnl3EASr7CZdYN-138" value="" style="shape=cube;whiteSpace=wrap;html=1;boundedLbl=1;backgroundOutline=1;darkOpacity=0.05;darkOpacity2=0.1;size=12;fillColor=#67AB9F;" parent="1" vertex="1">
          <mxGeometry x="2074.9700000000003" y="-243.24000000000007" width="52.09" height="16.95" as="geometry" />
        </mxCell>
        <mxCell id="IM26monnl3EASr7CZdYN-164" value="" style="shape=flexArrow;endArrow=classic;html=1;rounded=0;fillColor=#006eb8;strokeColor=none;exitX=0.75;exitY=0;exitDx=0;exitDy=0;" parent="1" edge="1">
          <mxGeometry width="50" height="50" relative="1" as="geometry">
            <mxPoint x="1910.31" y="-70.32999999999993" as="sourcePoint" />
            <mxPoint x="1910" y="-150" as="targetPoint" />
          </mxGeometry>
        </mxCell>
        <mxCell id="IM26monnl3EASr7CZdYN-166" value="" style="shape=flexArrow;endArrow=classic;html=1;rounded=0;fillColor=#006eb8;strokeColor=none;exitX=0.447;exitY=0.002;exitDx=0;exitDy=0;exitPerimeter=0;entryX=0.418;entryY=1.003;entryDx=0;entryDy=0;entryPerimeter=0;" parent="1" edge="1">
          <mxGeometry width="50" height="50" relative="1" as="geometry">
            <mxPoint x="2043.5040000000004" y="-69.74799999999982" as="sourcePoint" />
            <mxPoint x="2043.92" y="-150.61297000000013" as="targetPoint" />
          </mxGeometry>
        </mxCell>
        <mxCell id="IM26monnl3EASr7CZdYN-167" value="" style="shape=flexArrow;endArrow=classic;html=1;rounded=0;fillColor=#006eb8;strokeColor=none;exitX=0.39;exitY=-0.008;exitDx=0;exitDy=0;exitPerimeter=0;" parent="1" source="IM26monnl3EASr7CZdYN-90" edge="1">
          <mxGeometry width="50" height="50" relative="1" as="geometry">
            <mxPoint x="2269.77" y="-89" as="sourcePoint" />
            <mxPoint x="2154" y="-150" as="targetPoint" />
          </mxGeometry>
        </mxCell>
        <mxCell id="IM26monnl3EASr7CZdYN-117" value="&lt;span style=&quot;font-family: &amp;quot;Courier New&amp;quot;; font-size: 10px; font-style: normal; font-variant-ligatures: normal; font-variant-caps: normal; letter-spacing: normal; orphans: 2; text-align: center; text-indent: 0px; text-transform: none; widows: 2; word-spacing: 0px; -webkit-text-stroke-width: 0px; white-space: normal; text-decoration-thickness: initial; text-decoration-style: initial; text-decoration-color: initial; float: none; background-color: rgb(0, 110, 184); display: inline !important;&quot;&gt;&lt;font style=&quot;&quot; color=&quot;#ffffff&quot;&gt;&lt;b&gt;pull image:tag--0.0.0.4&lt;/b&gt;&lt;/font&gt;&lt;/span&gt;" style="text;html=1;align=center;verticalAlign=middle;whiteSpace=wrap;rounded=0;" parent="1" vertex="1">
          <mxGeometry x="1946.9700000000003" y="-121" width="220" height="30" as="geometry" />
        </mxCell>
        <mxCell id="IM26monnl3EASr7CZdYN-168" value="&lt;b&gt;OCI+2DFS Compliant Registry&lt;/b&gt;" style="text;html=1;align=center;verticalAlign=middle;whiteSpace=wrap;rounded=0;" parent="1" vertex="1">
          <mxGeometry x="2069.77" y="-284.95" width="180.85" height="30" as="geometry" />
        </mxCell>
        <mxCell id="IM26monnl3EASr7CZdYN-169" value="" style="shape=flexArrow;endArrow=classic;html=1;rounded=0;fillColor=#A9C4EB;strokeColor=none;entryX=0.5;entryY=0;entryDx=0;entryDy=0;" parent="1" edge="1">
          <mxGeometry width="50" height="50" relative="1" as="geometry">
            <mxPoint x="1881.4699999999998" y="-187.95" as="sourcePoint" />
            <mxPoint x="1880.81" y="-70.32999999999993" as="targetPoint" />
          </mxGeometry>
        </mxCell>
        <mxCell id="IM26monnl3EASr7CZdYN-115" value="&lt;span style=&quot;font-family: &amp;quot;Courier New&amp;quot;; font-size: 10px; font-style: normal; font-variant-ligatures: normal; font-variant-caps: normal; letter-spacing: normal; orphans: 2; text-align: center; text-indent: 0px; text-transform: none; widows: 2; word-spacing: 0px; -webkit-text-stroke-width: 0px; white-space: normal; text-decoration-thickness: initial; text-decoration-style: initial; text-decoration-color: initial; float: none; background-color: rgb(0, 110, 184); display: inline !important;&quot;&gt;&lt;font style=&quot;&quot; color=&quot;#ffffff&quot;&gt;&lt;b&gt;pull image:tag--1.0.2.1&lt;/b&gt;&lt;/font&gt;&lt;/span&gt;" style="text;html=1;align=center;verticalAlign=middle;whiteSpace=wrap;rounded=0;" parent="1" vertex="1">
          <mxGeometry x="1817.17" y="-121" width="200" height="30" as="geometry" />
        </mxCell>
        <mxCell id="IM26monnl3EASr7CZdYN-170" value="" style="shape=flexArrow;endArrow=classic;html=1;rounded=0;fillColor=#FFB570;strokeColor=none;exitX=0.422;exitY=1.191;exitDx=0;exitDy=0;exitPerimeter=0;entryX=0.699;entryY=-0.038;entryDx=0;entryDy=0;entryPerimeter=0;" parent="1" source="IM26monnl3EASr7CZdYN-130" target="IM26monnl3EASr7CZdYN-90" edge="1">
          <mxGeometry width="50" height="50" relative="1" as="geometry">
            <mxPoint x="2226.6" y="-179.03" as="sourcePoint" />
            <mxPoint x="2306.77" y="-90" as="targetPoint" />
          </mxGeometry>
        </mxCell>
        <mxCell id="IM26monnl3EASr7CZdYN-116" value="&lt;span style=&quot;color: rgb(255, 255, 255); font-family: &amp;quot;Courier New&amp;quot;; font-size: 10px; background-color: rgb(0, 110, 184);&quot;&gt;&lt;b&gt;pull image:tag--1.2.1.4--2.4.2.4&lt;/b&gt;&lt;/span&gt;" style="text;html=1;align=center;verticalAlign=middle;whiteSpace=wrap;rounded=0;" parent="1" vertex="1">
          <mxGeometry x="2069.97" y="-139.14" width="220" height="30" as="geometry" />
        </mxCell>
        <mxCell id="IM26monnl3EASr7CZdYN-128" value="" style="shape=cube;whiteSpace=wrap;html=1;boundedLbl=1;backgroundOutline=1;darkOpacity=0.05;darkOpacity2=0.1;size=12;fillColor=#FFB570;" parent="1" vertex="1">
          <mxGeometry x="2169.77" y="-195.93" width="52.09" height="16.95" as="geometry" />
        </mxCell>
        <mxCell id="IM26monnl3EASr7CZdYN-129" value="" style="shape=cube;whiteSpace=wrap;html=1;boundedLbl=1;backgroundOutline=1;darkOpacity=0.05;darkOpacity2=0.1;size=12;fillColor=#FFB570;" parent="1" vertex="1">
          <mxGeometry x="2169.77" y="-200.98000000000002" width="52.09" height="16.95" as="geometry" />
        </mxCell>
        <mxCell id="IM26monnl3EASr7CZdYN-130" value="" style="shape=cube;whiteSpace=wrap;html=1;boundedLbl=1;backgroundOutline=1;darkOpacity=0.05;darkOpacity2=0.1;size=12;fillColor=#FFB570;" parent="1" vertex="1">
          <mxGeometry x="2169.77" y="-205.93000000000006" width="52.09" height="16.95" as="geometry" />
        </mxCell>
        <mxCell id="IM26monnl3EASr7CZdYN-131" value="" style="shape=cube;whiteSpace=wrap;html=1;boundedLbl=1;backgroundOutline=1;darkOpacity=0.05;darkOpacity2=0.1;size=12;fillColor=#FFB570;" parent="1" vertex="1">
          <mxGeometry x="2169.77" y="-211.14000000000004" width="52.09" height="16.95" as="geometry" />
        </mxCell>
        <mxCell id="IM26monnl3EASr7CZdYN-172" value="" style="shape=image;verticalLabelPosition=bottom;labelBackgroundColor=default;verticalAlign=top;aspect=fixed;imageAspect=0;image=data:image/avif,AAAAGGZ0eXBhdmlmAAAAAG1pZjFtaWFmAAABaG1ldGEAAAAAAAAAIWhkbHIAAAAAAAAAAHBpY3QAAAAAAAAAAAAAAAAAAAAADnBpdG0AAAAAAAEAAAAsaWxvYwAAAABEAAACAAEAAAABAAAP5gAAFQQAAgAAAAEAAAGIAAAOXgAAADhpaW5mAAAAAAACAAAAFWluZmUCAAAAAAEAAGF2MDEAAAAAFWluZmUCAAAAAAIAAGF2MDEAAAAAGmlyZWYAAAAAAAAADmF1eGwAAgABAAEAAACvaXBycAAAAIppcGNvAAAAFGlzcGUAAAAAAAAA+gAAAPoAAAAMYXYxQ4E/AAAAAAAQcGl4aQAAAAADCAgIAAAADGF2MUOBHxwAAAAADnBpeGkAAAAAAQgAAAA4YXV4QwAAAAB1cm46bXBlZzptcGVnQjpjaWNwOnN5c3RlbXM6YXV4aWxpYXJ5OmFscGhhAAAAAB1pcG1hAAAAAAAAAAIAAQMBggMAAgQBhAYFAAAjam1kYXQSAAoGH93+fktUMtEcZDeLf5Af0AgkBC4AAAAAACigAizEXHR3U/oon9wVVggcI9FiPruWLdN9VM+aiRecyhYhwaLiGe+NRB81SwEmmOZDCd8u/3Btye0fzn3QLFeImLOMLXBlmDII8rkOl5CIYayBuMsaMQTKAFdMMyRNKsv6bu2KVk8TNqobIkzQ6FMDYfMpAx9xU321JdTjCO+1y/P3RDLv/5kMKur6C1wtj0SU8S3jm5A+XLqzYpPyvmjRZTI9l/pRuPDI8SecNRHe27CrenK4wzmOswnPm0d49vycMWFuKGDKpLG5gejMm6xyL1wNuc3k778vg1XGaxJyXkd4pgj1vtkMPixzisgsoGn7R/wehhQ+EnaOSGScsknHKSdzqWum2OpRQNrm0IVJ5ujT68uArLIuUbUA/voyrUBdeLJyhXRDoVz61qsCkSwsO2HERpZUL0oG0AoTCOb5uXF6ccGE70E0+et5kt9N/O78+XtPcKq75LNXKi7C6s9i4nncJUdTN1Pv6bxSGxaQhSj3KlI+vUiRrjhFUH1x8+lHVYPNfIAtba8QY203QDp1QAttG8fX94Ptc/kLTaQX0Enu8loUf7BCDVLlUKDP+c9bsQLZ2FCwghTLEXWX0XlBLv+mDk7AemYKgMC/fWG7tZ2xFpNKY5DpNG4qpyqR0Z8yQVvz1k10DtIvBYiSjdudOzkt3b+YO9ZSMPUMskCSPGXeuNV7qsRH7cTDoomBFjwmeH8vRfY7isf7Z9Q7g4hgxeTjLbC+w2oz+B6AvPIfFBGazB5yjBKH+ZfKp2W/+gV40Qtwv/9sooJ1o0teeYh3KJaKZi3XqMP1cXsGv42kFa1s0sq3368LneSXTRSkLA+cx2OguDjadaOKH9boRRL7+o/Sy5bHRv9Oq1n2sjWPti8n/bGCGlcVBe3xBS5+UqXKA3Tadvegd923vlqVyS+gRAMlH/1twTcrHyWAcPvr8DVoI6OXW6zuul+Fpms0LHN4mBh5mg4CmZuUd3Ug0SgLec/+pcNrTtIhIbIAPDNpOhEHL5Xmt8E9SEFWz6NGGao3aQnLNqh2TWrmzHg6TJs3oKcRVrxw9F4g+3jVCmQ5dUgIA44yKNn3m1PP+Qlq2tox3dOLvsGFamiSjr/OE6VDv146OcgmGgCEe5y8ICPTtcdX9Ax2g2g+YK0e8vUzNobsqQOov9T/aEdRUrUU1xMVl9mu+/izJOPRW4aq5xPC1NGw+dhf6tP1hirIywGBMGvDEoaL1+XTsQ6+fIBBCNhbPgTNggb5PMFM0oRHjYgz2vSXRoZ+ilY0QTso56WWp32qMDlo8K3yRVMhPPkEUzCmdTfl+G5yqoH6NJKysXugKKVR1GtBlfpy3OtiDavTDNh5Cd8sRMMjcg8tQPXoZ6yQoLnCyhImhmahRstneJj5h1JtbMXjqtdri2WsHDy5wAlYNNHmhWnBmbRjbPG16sMU/XfIGy7wVuz9Q1r+zn6+zOUVuTnQpSgoeBTCA0Fx2XUoylIwaYoiuL03xkpeBWLdkePKoakFDuiv9ogA9avh4BnIBrGTKWlHU9Fpe7vx3F57aIG/ga1TeTenm60DZz/rq12PyKJVhlhvNFAzmKv046iEzz0tdjVsOhi4w/lrs6/Lhz/vo6Qj5RVEx4wwvq+EQt2jlDJy9oyQCVmY7F/2stoahETBvWo822RsIS3avopJvF5haLhsbcuVswAz94GuIMxhMnZ9cEwYjKYtuuDNqqGnSUyWL0P02wSOliApzv8FZg0jyQfvjJAG7zdH+iPr8UIgjAa2/+HlaFikpJX5K9Zo0P9/zFd1CpdwMOIQHCNmF3U+hQg3A7xZy8qvf9LfQ+eKLlvFIEtpNNAMhZjC0uHYjoxQ247XoXmCTX1f6khbuFfa5QBtesSu9FQoqSqbIWxPSj6IVe6mh2Jx8dOxOoUnbUkBbkshemoC38RB+HfUcaWoiSZS9WNpNc8bF7qoMrKj63ji0WLKoQe3vGhoMMcDPYPl4dmlNxVxsY8btFU6vCX7dP3VcTzDFFc8u3dFLzryR1B4uoFhAh7NbOGMDJiXGfs2Nfp2N+tL/FvjJIYD+i30jfinE0y/hqOf1z0Zc9VFw1TPfCscucbz4IrCLYxHMJUJkNBlHHTts43yqvXTMIbEFsePom+xDS3oVQ0oQ9+Ij7aW7Nd2P0NOozMhvxcekVHbfyRdHpu41Il03dKqA5KPAWtcTqMiDEjZUOr5Xd2J0nmK58uWAHx+F7AV8uc3v/EnSpHfQStjrVEf7JutFADUuQ+5qrfoNEH/eYOxZVhH0ON46NSiedUMJUtB4/O6U2/gses41JPLqJav33OW91zxyfrKC7/d6RiBl+h0wcM1i+eFHJZb6YNxl3s/eewuO7VrBisYci+8I8VC01MeVpaTSxaOIgmcZx/F6wZBpIC/lwap97Q8ffQXZtGpWfbIzzEOQ1ygEVPiZqBatQYdJ1BaO575W7CtPpPL3wRxsH//OobIUExZAhvH4rvv373bR0uLuu6MviCNq6wAqrJ+56qnK1mFd64RqtBaT3SmPUgxywlrtpKHxAhk9AvmiT0TOxKrG4CV9I2+2jTdh0PN8rE0g1oCGtboSxIGdGn3ryK7/bK8ppxIYntbB9OYI2vuecp7WG6a2Kg/Cf6CU4l8NVOOZGXZJuSdgyRD3tHaVUL4tPqNNsljDTdzmKavRQZ/WRvrHYKQjI+W2CMfxUZTzjQXG6V5Js11LQWPLqkBbRbbpUqKoGHRkZ/YHY9+1iFnY9ZVZABb7uJBtH57Yq/F/1jQjVfxElhU+Ng3ygOGGlz/BmKBGz0kN5zq6qYbJPKBktIt1RtsS0kXQf4Qt9rTUY5f7rZSfmSNNxp00MGV1nHAqZ2PtDrdZgsh+ZPyDIYgOxHjSFFg+/VtkWoPAlMrUyNCo2Xd//tJq3IbooKT7lxOTu8zT/YNybEkfJ4/14KiTJsCRi6bP/OOR8KUZD80uCK1bVKs0VQnN8O08cVnceu9ohzcQQ0/19JrE9oQadotIMaL6sy7pccG+szokDj+6w3Po0vuEBI0DQZbhG9nAKiZCrptDHYgCAUgm4cueyesGvN8EswB4c1fzCXS8BnCDYVmldRRxG+ZSpq7XpYIX1FN5vnjv/jL47qzKHaAhKuqLXZZJa3wWlx4Qs5ejrPzhNYUZ/n0AOzSgRyOV/EItieKK0ChJLB+JiHMJqNBiLpyltROLkP/CBnKddC3g0pxHLOy2R1FNH9psJZJRR6QpQwvInaOms7z7CKFA2eMR5r5tqPcJcrLmmlgjZbBGvE4AXPU0G3bgRWQfCfwZN3iCQSHlDp2suF99QZLnE4OFxH2IcSpsDsQsN5hq9iuwdnlzDZBF8ahf0141kss+9kwLOxy/s7AMDNgG+vir9J9HiPpUoOSCIOASgZmJd2rr87nN1881LjRf24RfxviQnrhEkj3e4JnOjaDWo1KZHY+ePz6MIRVClp2IVZ8fVL+kndY9NwMoT9bnTqSqw9tkirSCfpPGoMCO2BZDkf2ujH8ecyZ+3fnU4BNWm5WKq6tnGdsTWUp/gKw2mY2OiMCFDiDfToytK8WJUrbU+NVmz3TmZIGDnfGBJQDpMICeDigFH9T4mBRSaAxWFDnMM/rcVFTgQNp44c4jEHCbt7QApj1ov/myCJmIPuEhXLAVOcAkURr9rST3/d4eyiqelgbgSnk2BuKbglyWrIKPlKWKSKHQCZBFCFO0Rls9rPAokjAM6khsrcHMcIBtFZO4HeOrK+ZCuCKEpjvB1JamebsW/yiIa/i/9CmqO7KydujKLj75gzRWgCgHBNbbJfwH18GF/dFqsr4tlSLSSfdbxc3afLSFbyrdTghEzlj4vCh0vyNTm4O6/yjDKu/DyDKDDvTTOwl4MTVOFPX/3U3d8MAaDt15vAHk6ooX9lVXJZxZKqwJoZLvhVFiF4NR0dxGPPVXJOa4mYEcpXmiHC0U04ivYf+wS/xvWvRPOkXxUmcFYaFabacBQm/+TtIGK2lDmNp2cVeO8LVdipyjAG9xEALc5V1kWVCVBnYDDGpnhCT51BZrDTGcSsgAYAwSpKL3E2hY1fdF4411Vea6LDK9/EcSp3b3ZV0uBUtZtkUdifhv3z4yxwkyI5gPxlHCrZ6+yafK+jFdxUCeRSKLvnc/EMPwVCOWNvGfifctpjBAYLJA7dWNZkFQ7dKCPQUn62l/ZkFW/q1IJq3jkQif/8KmvxbxG8UkpeM8mXYfSJ0Ezt5heVfnYhNUBpHvGrobN+QW9Bn/J5TIDo5ne0E0gTQJF2gyDalbp8NI9mtVQWcj2OZduOyO8kAuvmvu/6YqT3WsY5/dc/G6g2NOYGEtNTnzQurXxHoIxGlYSuBCqSarYM8BtKlMfXXntJDGHT8PXgYjIEYhamNcD4IZ7ZHOTcI2ylM4gNvdoWEmHEb0zVYEVo6rdXSnbQ/m6cclXFkRFR0mLt5bTIW5b+W3MsIWHTFwyTFJAnQ3d/KbRggghNQgjvsu+WTeY+PfW3n+aHeglqwDx3maW26xsRQQybok84HNldKj62vveaThd1lX1FUQGRyhI12rSz44dm9ljAbgjQHNr+n1117Nsf0sWY2Wc4DTBWv/VAvUpJsqx6x6+27KzxIPi3/2Oq8p+bvGwjKX2wk3NZTUmXsMx9Azaef9cCmUF8EI/9hXUYxZdfBoKiLSxcUO3G+YNomi12NqJ3Ur2PcDbio0j0fElELRdk+orX1m7Dh0najrVmVWqEOZd2lvC+GoTurk7JW5/CglaxgIyxJRhW1sSkiTnwTQtqjEaXX4OdqyAQBQI/bV/LMO3Lwrt54G9XCOl9hbC8VF4hMVENAPcj69Thb5yIMMHmlHUSLvu48UzZuKJVAE1Ma6LXE8wAF8CW7T4ASAAoJP93+fktAQ0G0MvQpZGWN0UnFfz/AD+QH9AP7Af4AgIBBoCFQB1VRMEEEVYAH9S4vHl6IZ6Fm8zU5A2ueRg1VwX1dLu/nNlplbKVJYCpFmregv4t5H/pCGQNOYaVz+2I//SzOO6UjRs2HeRJMKC9Tpl/REjs+kO0wQoC/tWzYSKrAMBhQWsCLv442FDQYxhb1zNm67UlklK0et9EymOeHcydw82c7yBqdbi3ihqEwbVI71x6DPf7mTsDxzzabVPLpf26m5uN/dns4ebWpKb5lHVq1kYD2ao67rQngzP7yG599YgOEhyv2+Ppr4NUSzLlNTq5m/Kpe0MJAlogvWlJpfj7H6DmIPCFJd8BmfCaAlysDdQqwe8w/Ad5IlxOb2KwMx899Ejtfv+DE5jDP41LajLycJO2sNazk8hTPKX6Uf2e92ysihLTmx5s0OB3g94U+5ZfL6VGBK48qn9rHt5Pw5qkjGyV6I4P6Gt13tjoKPYQavqbqHVbGNJjirtDzXFS2KAKkXTf1mG2GsjV75DhP5PR35jUiSct7VatxfFTIoRQ4xydg/VgQZR+S3HsW3AGron4zmlbOtP1zqSDMn2YsP0F6GyCy1kHr6kjXZ4Ng388smCRHJ4fikIp7XKX/XfVEnTtpZQChHR5Mq5uVaF47qhQ+xE9TEC5mONc5/79Zjt2izYe/n5J6JWbzqTF1WiDHt/Otu0TQFebXyk4CicdfBSLObfVUl4kzyGOBkLcYtLrje7hVkj/Mexl++4zhqfOzG6EmJG4cW1rZhAy/BnKqqF/4bWWaN8aUVPO5OEssR0AHx4xwLkWY7e4BXJ1pSm401milnKxRU0RAm5UvEcpHlFXK8my13+WU/THBdqDtDiAk/QXESAv1ZmJTi/O3N7mum03AjDDGvmNaNX1QAzUF6O5m6Pn7e42NLNJokBY2enLp043Qjs0rVYrcam+ZIwANetut1I7YaGN0xJf/dEYPvdYEJA4qVR5edT98JwR2FF6A01QCocJp9BId9H8OnKqLQPnRSms/SSNWtTCDh9uzy3AEPO2mi1IvUxISTWIxBJBvGUHHoo/OvR6KhTlU8UsUdnkdxMlcv4xPw71DYYM3N2MCf7l6w9rKleivjSdXVAWwEfgWCgPCzJQO97t6B7TRtwrIQ42+x4lpa+P4dTccBr+FhFmgiBrQU3NEmn8pXN40WNI+muFKa4umYl5tmgYroU2piRUNyp7t3SSplqrrTnsqO9A1yPdEWyaPrvArBurVUKXCgNcm+QXqzxJEMpkjbHI/HLqie0Rl9i8V8HR7yfJ3Wty+vyNtBHBy5KJc7YT0E03yEl3QvTpi73pEWrJiOMBUbOKBfcacBMswSDS989OVI7x9xwbhg2LONfRUbKmeugUkuz9sxexX3tuZTQ/tIF4WTmKaHst/508h+Nn87CzqLZ7MOvtYfTtnVqOPkGu0gphEn1pR0uT/C51V5UnWcW8KinHL5qdTwpOPpLrxOQJa9RbBJ7umGlbI7ujMTFGtoi2kg0cSY/Q/AXtCmrhKrlhwiOecu8l8vVzwR7g1SKz3CVT3zx+OAP5nChA9PMoaaNhtyK8bxTUQlDwWfQxTt6o4n1tRvP3GQdDXNLgox3SP1q8CvtpNznD0sPzTlbbUqEJGUzN1rgAnFeqj258SbKqbZbT4rdctEGfkcSg5FVIr+WugptU8ibXCgDbj2uMsEJ7FGiTQVlaTzoYoZ0Dv1blbPSaQZfBsfMNZ6KC4VdS5AEDa7q4wtaf6qbozm2voj2Z7NjxSaeCa9TrHKmt+EZJ6RtssZopYEUGyZyaRFCW/9VMI2vWSRZorZzcqHQP4PTpJ1j/rR9tF8FaO1ueM047YMDNOqqThr1sfvnuLrcAx2e0zjFKnsTJg7yHuG8HY0EAXeLieYZlN8fD/R/ZujtUg7mzwguerdKwZ0rXqUCDi1TH64RIZEA+vADQxg57d8NRBA200UJh+Nno3kgxd9GT/xFnyyRFiyIRtR82LcV0yte9yJUQtwR50Pxdea4HmI7WDmHLHHPy8uxqvEr2GAOcuuyqemWjpOImp4LETf2D+bGEYgQ36yinSeIDsfDxmOVRWL5K4rFVh8EFUYK+VJbXL94Vyf5/s3C/eQLX8xjgM9wZHB+0CcozdlfyC4y0Vj6C9d4QqjMOpagn+wPDPTYFlBfJygyi3RPfKEZ32UZ9CEO6X0uQBJ3ZHw8SF8SRBuxEKZ5KnI2GXmfr6duxWq5NGwNDW/syU98DxS6sg/TGSkSnqtS3cUetWlWLY6FVYPcIphLjY/WLoU/d2zdQKWygdbo/hE4w+SRmDCTwCsiYBs81WPRM7odCyBF1Ix85wW6zQSnBTwwCEJWcksS3iEXjSpx0r2UFV4M/r/zw8F66bDosfsoLN8TvGLuUMf/QNYvhT8NwanZ6ObcNhSd5ASZ21sh7LrCVQY8QfUSuB8Sdo6Azet0nO1I56+/5DDgMkts5id22yRRcl1+VbHLr0FzSAOxZv9ymP8KZA9asCzrpluUx7s5OB0T+5gRnJk1ut5356h6LUdofTJBR/xF5o87ul/OZdP/+PHLElBMU2gpxIXJTd2fRcxyXaIHdkjTNWz4Ek1jQMB+3sGaQqqo7pYuU50k673a6W+tjtFW3vOU3BNxY3V/0071ux3IpDNK788/mlbxK7y1rAvGfyoe/k3Und35/VFkCruK4dxcKfLM+pACdkXG8N3/kr/RNEI5wU0x2Sq0S9kwEeU32chTJ2pAqJSDjMQmMpP3aDClJQ5EbCobwEKYF8rgxhlIhAUT9HzcpADiRNXXl0c6MOhqYjTS6YqgV94RYp3fZKTVkDjwG30wHgoWy7LfIakNrVbkNMafMAMM+CP5qit24rl1rEx5EpEj1EKb1YizIyFNAN3KqIy40AwWIWb3k9xwb3TGDrAqbtydvBdfN3oqL69zlhBjLmHLzvt6K0OPYo0dXYyg1tnZitOsaET8Ne60+YNoO5u3zI7aVREs1/mqA0596abD4jOs2oFNvrK7c4Ao7wcJ/2jtQx2vSUS4A+TkzI1cZhP8pag9oJHVitKSucH5RLHe4uRrp2B5+tzAWNbQm0gUe+IVlVevHib0XZ0eKqTwiAR2Rl0sb6yJ/UqrMZ1FU8OXugb9KQ57l2NKJrKUPhbU9SN5vWnU05kOzSl2yI25uPYVKkMscqFVwVn7/bgoYdI71/WkE1WSmEG/Cesd3zCSr1UX6RH3skOmxQ47CUNYeiZmgQsH6IS1RqOF5zwoWeIf0uMVs4tU0XOSi+oQtmHsOCh/URt7SG3iWfka3gmmXPslnJ1NtEyw2ihDQwQKjADFWUwYlONIAW4veSDd08WSjhKUrrjtyCfGoitX+BefMKhhgVG9khZgXtFLgYxLdaOD79qdJf/cRhsvCltsqo8zzF4OmZMotLhKowzUHDhbmKcwDxSM26rqMn8LDLFrIbe5ypWiVQ1HliCeZIt8HkcyQNtLEQQOYg2JSMzqkWaFJdsLSTFOuI4sauZ8RYNm2YpkCElk4Bf6Nldgg9ZHMa3u9Vx9tbuQqBL5MrxEHM90ulGykf9QA5pEWx08Dj+I/FCiPSfuZxt+Y93Ud8aXb5YT2rb0vKr1jDop3cev5VLG33Dj+B4VbC0s3OH+/pYAWEhcp66fJ4lA5AeZPJC9d+JJXETTsPjODSpgPHgk+DSs3YkWxay4j9lkf+apQcZQfq1OJYND02eE3JWqwJYYBaET0CCBhVwveA47yBEvBWxkz1LuPoDYImAnEwpX7U6iKN9fxiYqtKqhmINpryP4H/JL/UyK5f37OK88C3VrAXRYgxCvDg2ps3ejHhhoqB7D7f9HD5bjFpdNUVGIx3F9TZTd/pi23cT/jvI+QFbf7DCSPPpBDVpSUnZDh6PWk7OZVTA1tSULSLFmWMfNK8UCbfmK+POBK4PCxbMW73HJEH/cQRoTofmX4+2xtLqHOrK96mvznWn29XsGM4UpsEJiQr0laTHaHevLQq5/Og3Ub74dpmo0KKqHLg0Un3Vj2g1n7qLjdKTzaZToGDfQ0VQSPLOtYZoVito+imwQod+OXQS2f2EZdwB31TulO06YXyw2UiKbhVMXOW278kV4rU75GmXkcgYaMWIdMRWq5VQQanb3MAFITfpZIpt7N8nMjCZb3RQsEHPM4Ad040HnsK7/xH67EbkhOMkT3BDBRmh1fSPLOsKE/ANfBk7N2QgKdtrDjEVDW/rhZ10Qjw5uMqZ/mtYEVQkTJx1AcMi48Tc0AcEq+Y0e9x+/cmN6V5OUj8uLjwYbpwxua3qK7wAxDs3USDfHONmJfljrDE7s5CJ+9HjSI25hS3VxoecRv9d1d99YAiIXbnb0I9w4QC1278udjH5uWGrbCCsreTOIXxkgcoN3M7RxztOzCHSHjgUeTzIc1vXJgaz4tHpuWnWn1XKOUxjkmQ4JVUB/hhUbRtzduZee4o7RHljacZWSi+Jmr+dKVlcpTnNeoyLMzVYNGPcvOHw954YmEPWKzQF/o4eyDdu61nY9eT+bPWdPDm2b2qEERJ67qnL02vSGd02w+3Si5YCVOV+G0qz0C8r8SZdvtmgojOSQQQfKvWWYshj/4n7rWgJOUFvmGlZ5swwKhd4foZODB7gEgOjUGG/e3YJAOyY5Yks/lq224B2HzoSmeHWDVgqhlyIBHAI2pdvVhrAR7GrmEwQrJCo92MsBdoOYtwqBmPUXUQc0k3B4eikqJYXKPdW2Dw8BQUnZqZvTHMMAzlRI6WdUy9fZEVDfaQbQOecWGz2DDa4iMb1D3BIoF9H52/aePCpss1sa+661jrVe82fAodq4adf8zlzGOPJu1Ot8NpIKnY2dtoQbJ0hd8e/gBz9IqsegewzyGv01dWfm8BzLMygdTtyGGvDVBZJEecsLNlacvN1KIiEavRdWk+LwfzSKlWKqbP4RObZV5rihEaWZbgtH92eELqOvPF/yOPf55dsG5OdSgZZJxgnCStUSnPWm7hnY8AltA/d25m1sWYaeUnwP33bqvEH0gyz0270pCkEqYABJ8M4ldZ91lwBXriL6SsCqZa84W2SC067RpFcPzpIPqMMhybeG/hh6aDIvfqrV0Ykhfn3FX6zFA3wYVN+lHEfKeHpzmNdi6HL79Zgm7+h8SVN99qdeTxUAusJCRzYlFzS6hqyHvHXNPkzhjow86MWX9CunltaQHX3I03+b8xZFSruhGy+kMkCtYNtsOWuvc5Ux1NsaDhad9c57L61Val1eB5iCjvwJLgbm6fe1BVFHn4LdNLqrK9rCRqXei+3L0ZyNLKfqNMnmwv98mNzAgXlvC+2rR6yT+NeqCGPl3GrmD2ciAKKCWYr1y6OpeyNRgYS34xOkuc/xzPApi4OfpbjsI6+M1JNEYRYdYHEvicLVREAwBhaZD82eafTKUC23ptXI0i65ORl7VSjL1whgVwmDyLq53r9JKiSx40gwdh+wI1PTnTtE+2yjpFoB32YK6/BC6bt37HaOUE3NIJq2cpVbNxl2L+ib2kaY3Xue6965X8TOOWOLUvopYKxlgfoTbQmrXMPsyBwNFrpgXD5dbO2YKmdzQ/00dsqyMGFdcTum5OtPJZ1FO2/grjZ2DHegkVJ/BBTPeev0rlYQexW4nRMsGh4nKCSlPjnNutXoJJqhLx+/K9clRe5X5kkWLo4xMbJziVCDqJ0E0RktxkroCQyBWuiIoKxNUC/sFmIG4Dl/9th9JPmsMY+xm/Fgc+MZ1Y3kn1RYIVN4j7utBhvtxZXjhPfvsMIoBsNUDEWdD8ZzNjDPoxMwyKjJB12CcSPM0mP52ZliVYEtBQCRdMsF0VuYn4L2Lb/cLV6PblVqmp33LdadJDN+LSsEDomrYNMK+t083UKU2jVFkjxYuK/ZhFFdavjO1CYH1oghhzekB8xuV2dMAI8uTTQN6oz5FEi66e6IRAmgCqySvVABUJ2eGGyCwFbBeYyrUDhy9olxJgYj8n1qC80aEcBcaNPDuBCZVXIyNKD2tbLO0S+5svDAg8KnXfGftqLkqsWUzq/I7xW3B8BHvmnPaCjc/+meuhIHR+VVXyCS4z2y0fxxGLFk5KaQNNvLPWfKqQI45jG5Im/5y6QWxxgQlbVqiWH1ZTK6GEAYdNNPt3gqCDmhMTouBMNde4ceNcjCbuySQ4smr3vbA5W7CPKhxbc+JomkSMRq+NdBWoyA1T1UgTV7cmL1/RN+ospKbMh2CwD7I04vmPj82SgVAxFifhjJv8PBKqeChBZ7ixKz6vv327SogSaQNsUUALQvqvrET+z5JWLbwUfl/7HWMvMgKw3Y/mOX+1jsqdoMiP6LwqC2p9wFUl3DMzPOdz8arQEu4iTfdsQmxF3yND5JtSQ6wnfp0r41PjUBMRuUdNwdANokASwxqWK8rwemR6rvJoTAZpDl3RF0sxRYZ+6yJLbqNfuokoy/rLVhzGltdG7RNRBlzreXVHJ5rs579arVTHdQ2HI0cSoS5qnQ0nznetf8XfPFpR/bj8glQye9yMmUDpxVK5uNSAJvFnhB0pV+2bkkqrCqPJ+tsirO0MueUyguB91ukR17MxD4rfLcLf0PCNr03wDTi6RZ/tsg0QMoa88E+9kMKPXeZs152/Ans5lPujzeiZVk7Q7IzHU2lTxEfLgTi4W7stQ/FvQAO2G90R9VWTZXm16LMDljD0nNXlOYQOkGfgzSLZUIOJVGOUJvJi0BLi9bXqyGUllpXEGF18WzKkYlJISNR4Qt2TkfKx3U5Ryic7nu9Ch32T+B9XdHCFxlMV1Lsj2ncNGvhAegc0VssVetAjSLnNFV5BrndL5TgogF0VTQokZVJrLr+hiceOQqC++7b6uiMcD29XXt1s71nNSWTH2MJ5HFhgq9lZN39FwalH3gK7pUDrilqgxT8HZz9+Sv8v8ODXokOUzgQZI31ig+E2zvWP4/ils1j5ML3yFqh3U/rWieh+G0hfQN6BhQgYhROswQ2rYAr0yLyCzUHBotKU4xd7xWXTbpFIZqt00iqbXUlarKAKedZC6NByo209GMzeuboyncfMMPyBDuAxvHdGNlsIwB8KELYKTRIDBfexlri31DMZ8dkcy8hwJSwkftYjkl2XxLBSd70buRt8BY0TDjNgllU9CPYdjpdiFM0Mc8UrQiK2d5rTJcJYDkCUuqKA;" parent="1" vertex="1">
          <mxGeometry x="1920.1599999999999" y="-67.38" width="46.1" height="46.1" as="geometry" />
        </mxCell>
        <mxCell id="IM26monnl3EASr7CZdYN-173" value="" style="shape=image;verticalLabelPosition=bottom;labelBackgroundColor=default;verticalAlign=top;aspect=fixed;imageAspect=0;image=data:image/avif,AAAAGGZ0eXBhdmlmAAAAAG1pZjFtaWFmAAABaG1ldGEAAAAAAAAAIWhkbHIAAAAAAAAAAHBpY3QAAAAAAAAAAAAAAAAAAAAADnBpdG0AAAAAAAEAAAAsaWxvYwAAAABEAAACAAEAAAABAAAP5gAAFQQAAgAAAAEAAAGIAAAOXgAAADhpaW5mAAAAAAACAAAAFWluZmUCAAAAAAEAAGF2MDEAAAAAFWluZmUCAAAAAAIAAGF2MDEAAAAAGmlyZWYAAAAAAAAADmF1eGwAAgABAAEAAACvaXBycAAAAIppcGNvAAAAFGlzcGUAAAAAAAAA+gAAAPoAAAAMYXYxQ4E/AAAAAAAQcGl4aQAAAAADCAgIAAAADGF2MUOBHxwAAAAADnBpeGkAAAAAAQgAAAA4YXV4QwAAAAB1cm46bXBlZzptcGVnQjpjaWNwOnN5c3RlbXM6YXV4aWxpYXJ5OmFscGhhAAAAAB1pcG1hAAAAAAAAAAIAAQMBggMAAgQBhAYFAAAjam1kYXQSAAoGH93+fktUMtEcZDeLf5Af0AgkBC4AAAAAACigAizEXHR3U/oon9wVVggcI9FiPruWLdN9VM+aiRecyhYhwaLiGe+NRB81SwEmmOZDCd8u/3Btye0fzn3QLFeImLOMLXBlmDII8rkOl5CIYayBuMsaMQTKAFdMMyRNKsv6bu2KVk8TNqobIkzQ6FMDYfMpAx9xU321JdTjCO+1y/P3RDLv/5kMKur6C1wtj0SU8S3jm5A+XLqzYpPyvmjRZTI9l/pRuPDI8SecNRHe27CrenK4wzmOswnPm0d49vycMWFuKGDKpLG5gejMm6xyL1wNuc3k778vg1XGaxJyXkd4pgj1vtkMPixzisgsoGn7R/wehhQ+EnaOSGScsknHKSdzqWum2OpRQNrm0IVJ5ujT68uArLIuUbUA/voyrUBdeLJyhXRDoVz61qsCkSwsO2HERpZUL0oG0AoTCOb5uXF6ccGE70E0+et5kt9N/O78+XtPcKq75LNXKi7C6s9i4nncJUdTN1Pv6bxSGxaQhSj3KlI+vUiRrjhFUH1x8+lHVYPNfIAtba8QY203QDp1QAttG8fX94Ptc/kLTaQX0Enu8loUf7BCDVLlUKDP+c9bsQLZ2FCwghTLEXWX0XlBLv+mDk7AemYKgMC/fWG7tZ2xFpNKY5DpNG4qpyqR0Z8yQVvz1k10DtIvBYiSjdudOzkt3b+YO9ZSMPUMskCSPGXeuNV7qsRH7cTDoomBFjwmeH8vRfY7isf7Z9Q7g4hgxeTjLbC+w2oz+B6AvPIfFBGazB5yjBKH+ZfKp2W/+gV40Qtwv/9sooJ1o0teeYh3KJaKZi3XqMP1cXsGv42kFa1s0sq3368LneSXTRSkLA+cx2OguDjadaOKH9boRRL7+o/Sy5bHRv9Oq1n2sjWPti8n/bGCGlcVBe3xBS5+UqXKA3Tadvegd923vlqVyS+gRAMlH/1twTcrHyWAcPvr8DVoI6OXW6zuul+Fpms0LHN4mBh5mg4CmZuUd3Ug0SgLec/+pcNrTtIhIbIAPDNpOhEHL5Xmt8E9SEFWz6NGGao3aQnLNqh2TWrmzHg6TJs3oKcRVrxw9F4g+3jVCmQ5dUgIA44yKNn3m1PP+Qlq2tox3dOLvsGFamiSjr/OE6VDv146OcgmGgCEe5y8ICPTtcdX9Ax2g2g+YK0e8vUzNobsqQOov9T/aEdRUrUU1xMVl9mu+/izJOPRW4aq5xPC1NGw+dhf6tP1hirIywGBMGvDEoaL1+XTsQ6+fIBBCNhbPgTNggb5PMFM0oRHjYgz2vSXRoZ+ilY0QTso56WWp32qMDlo8K3yRVMhPPkEUzCmdTfl+G5yqoH6NJKysXugKKVR1GtBlfpy3OtiDavTDNh5Cd8sRMMjcg8tQPXoZ6yQoLnCyhImhmahRstneJj5h1JtbMXjqtdri2WsHDy5wAlYNNHmhWnBmbRjbPG16sMU/XfIGy7wVuz9Q1r+zn6+zOUVuTnQpSgoeBTCA0Fx2XUoylIwaYoiuL03xkpeBWLdkePKoakFDuiv9ogA9avh4BnIBrGTKWlHU9Fpe7vx3F57aIG/ga1TeTenm60DZz/rq12PyKJVhlhvNFAzmKv046iEzz0tdjVsOhi4w/lrs6/Lhz/vo6Qj5RVEx4wwvq+EQt2jlDJy9oyQCVmY7F/2stoahETBvWo822RsIS3avopJvF5haLhsbcuVswAz94GuIMxhMnZ9cEwYjKYtuuDNqqGnSUyWL0P02wSOliApzv8FZg0jyQfvjJAG7zdH+iPr8UIgjAa2/+HlaFikpJX5K9Zo0P9/zFd1CpdwMOIQHCNmF3U+hQg3A7xZy8qvf9LfQ+eKLlvFIEtpNNAMhZjC0uHYjoxQ247XoXmCTX1f6khbuFfa5QBtesSu9FQoqSqbIWxPSj6IVe6mh2Jx8dOxOoUnbUkBbkshemoC38RB+HfUcaWoiSZS9WNpNc8bF7qoMrKj63ji0WLKoQe3vGhoMMcDPYPl4dmlNxVxsY8btFU6vCX7dP3VcTzDFFc8u3dFLzryR1B4uoFhAh7NbOGMDJiXGfs2Nfp2N+tL/FvjJIYD+i30jfinE0y/hqOf1z0Zc9VFw1TPfCscucbz4IrCLYxHMJUJkNBlHHTts43yqvXTMIbEFsePom+xDS3oVQ0oQ9+Ij7aW7Nd2P0NOozMhvxcekVHbfyRdHpu41Il03dKqA5KPAWtcTqMiDEjZUOr5Xd2J0nmK58uWAHx+F7AV8uc3v/EnSpHfQStjrVEf7JutFADUuQ+5qrfoNEH/eYOxZVhH0ON46NSiedUMJUtB4/O6U2/gses41JPLqJav33OW91zxyfrKC7/d6RiBl+h0wcM1i+eFHJZb6YNxl3s/eewuO7VrBisYci+8I8VC01MeVpaTSxaOIgmcZx/F6wZBpIC/lwap97Q8ffQXZtGpWfbIzzEOQ1ygEVPiZqBatQYdJ1BaO575W7CtPpPL3wRxsH//OobIUExZAhvH4rvv373bR0uLuu6MviCNq6wAqrJ+56qnK1mFd64RqtBaT3SmPUgxywlrtpKHxAhk9AvmiT0TOxKrG4CV9I2+2jTdh0PN8rE0g1oCGtboSxIGdGn3ryK7/bK8ppxIYntbB9OYI2vuecp7WG6a2Kg/Cf6CU4l8NVOOZGXZJuSdgyRD3tHaVUL4tPqNNsljDTdzmKavRQZ/WRvrHYKQjI+W2CMfxUZTzjQXG6V5Js11LQWPLqkBbRbbpUqKoGHRkZ/YHY9+1iFnY9ZVZABb7uJBtH57Yq/F/1jQjVfxElhU+Ng3ygOGGlz/BmKBGz0kN5zq6qYbJPKBktIt1RtsS0kXQf4Qt9rTUY5f7rZSfmSNNxp00MGV1nHAqZ2PtDrdZgsh+ZPyDIYgOxHjSFFg+/VtkWoPAlMrUyNCo2Xd//tJq3IbooKT7lxOTu8zT/YNybEkfJ4/14KiTJsCRi6bP/OOR8KUZD80uCK1bVKs0VQnN8O08cVnceu9ohzcQQ0/19JrE9oQadotIMaL6sy7pccG+szokDj+6w3Po0vuEBI0DQZbhG9nAKiZCrptDHYgCAUgm4cueyesGvN8EswB4c1fzCXS8BnCDYVmldRRxG+ZSpq7XpYIX1FN5vnjv/jL47qzKHaAhKuqLXZZJa3wWlx4Qs5ejrPzhNYUZ/n0AOzSgRyOV/EItieKK0ChJLB+JiHMJqNBiLpyltROLkP/CBnKddC3g0pxHLOy2R1FNH9psJZJRR6QpQwvInaOms7z7CKFA2eMR5r5tqPcJcrLmmlgjZbBGvE4AXPU0G3bgRWQfCfwZN3iCQSHlDp2suF99QZLnE4OFxH2IcSpsDsQsN5hq9iuwdnlzDZBF8ahf0141kss+9kwLOxy/s7AMDNgG+vir9J9HiPpUoOSCIOASgZmJd2rr87nN1881LjRf24RfxviQnrhEkj3e4JnOjaDWo1KZHY+ePz6MIRVClp2IVZ8fVL+kndY9NwMoT9bnTqSqw9tkirSCfpPGoMCO2BZDkf2ujH8ecyZ+3fnU4BNWm5WKq6tnGdsTWUp/gKw2mY2OiMCFDiDfToytK8WJUrbU+NVmz3TmZIGDnfGBJQDpMICeDigFH9T4mBRSaAxWFDnMM/rcVFTgQNp44c4jEHCbt7QApj1ov/myCJmIPuEhXLAVOcAkURr9rST3/d4eyiqelgbgSnk2BuKbglyWrIKPlKWKSKHQCZBFCFO0Rls9rPAokjAM6khsrcHMcIBtFZO4HeOrK+ZCuCKEpjvB1JamebsW/yiIa/i/9CmqO7KydujKLj75gzRWgCgHBNbbJfwH18GF/dFqsr4tlSLSSfdbxc3afLSFbyrdTghEzlj4vCh0vyNTm4O6/yjDKu/DyDKDDvTTOwl4MTVOFPX/3U3d8MAaDt15vAHk6ooX9lVXJZxZKqwJoZLvhVFiF4NR0dxGPPVXJOa4mYEcpXmiHC0U04ivYf+wS/xvWvRPOkXxUmcFYaFabacBQm/+TtIGK2lDmNp2cVeO8LVdipyjAG9xEALc5V1kWVCVBnYDDGpnhCT51BZrDTGcSsgAYAwSpKL3E2hY1fdF4411Vea6LDK9/EcSp3b3ZV0uBUtZtkUdifhv3z4yxwkyI5gPxlHCrZ6+yafK+jFdxUCeRSKLvnc/EMPwVCOWNvGfifctpjBAYLJA7dWNZkFQ7dKCPQUn62l/ZkFW/q1IJq3jkQif/8KmvxbxG8UkpeM8mXYfSJ0Ezt5heVfnYhNUBpHvGrobN+QW9Bn/J5TIDo5ne0E0gTQJF2gyDalbp8NI9mtVQWcj2OZduOyO8kAuvmvu/6YqT3WsY5/dc/G6g2NOYGEtNTnzQurXxHoIxGlYSuBCqSarYM8BtKlMfXXntJDGHT8PXgYjIEYhamNcD4IZ7ZHOTcI2ylM4gNvdoWEmHEb0zVYEVo6rdXSnbQ/m6cclXFkRFR0mLt5bTIW5b+W3MsIWHTFwyTFJAnQ3d/KbRggghNQgjvsu+WTeY+PfW3n+aHeglqwDx3maW26xsRQQybok84HNldKj62vveaThd1lX1FUQGRyhI12rSz44dm9ljAbgjQHNr+n1117Nsf0sWY2Wc4DTBWv/VAvUpJsqx6x6+27KzxIPi3/2Oq8p+bvGwjKX2wk3NZTUmXsMx9Azaef9cCmUF8EI/9hXUYxZdfBoKiLSxcUO3G+YNomi12NqJ3Ur2PcDbio0j0fElELRdk+orX1m7Dh0najrVmVWqEOZd2lvC+GoTurk7JW5/CglaxgIyxJRhW1sSkiTnwTQtqjEaXX4OdqyAQBQI/bV/LMO3Lwrt54G9XCOl9hbC8VF4hMVENAPcj69Thb5yIMMHmlHUSLvu48UzZuKJVAE1Ma6LXE8wAF8CW7T4ASAAoJP93+fktAQ0G0MvQpZGWN0UnFfz/AD+QH9AP7Af4AgIBBoCFQB1VRMEEEVYAH9S4vHl6IZ6Fm8zU5A2ueRg1VwX1dLu/nNlplbKVJYCpFmregv4t5H/pCGQNOYaVz+2I//SzOO6UjRs2HeRJMKC9Tpl/REjs+kO0wQoC/tWzYSKrAMBhQWsCLv442FDQYxhb1zNm67UlklK0et9EymOeHcydw82c7yBqdbi3ihqEwbVI71x6DPf7mTsDxzzabVPLpf26m5uN/dns4ebWpKb5lHVq1kYD2ao67rQngzP7yG599YgOEhyv2+Ppr4NUSzLlNTq5m/Kpe0MJAlogvWlJpfj7H6DmIPCFJd8BmfCaAlysDdQqwe8w/Ad5IlxOb2KwMx899Ejtfv+DE5jDP41LajLycJO2sNazk8hTPKX6Uf2e92ysihLTmx5s0OB3g94U+5ZfL6VGBK48qn9rHt5Pw5qkjGyV6I4P6Gt13tjoKPYQavqbqHVbGNJjirtDzXFS2KAKkXTf1mG2GsjV75DhP5PR35jUiSct7VatxfFTIoRQ4xydg/VgQZR+S3HsW3AGron4zmlbOtP1zqSDMn2YsP0F6GyCy1kHr6kjXZ4Ng388smCRHJ4fikIp7XKX/XfVEnTtpZQChHR5Mq5uVaF47qhQ+xE9TEC5mONc5/79Zjt2izYe/n5J6JWbzqTF1WiDHt/Otu0TQFebXyk4CicdfBSLObfVUl4kzyGOBkLcYtLrje7hVkj/Mexl++4zhqfOzG6EmJG4cW1rZhAy/BnKqqF/4bWWaN8aUVPO5OEssR0AHx4xwLkWY7e4BXJ1pSm401milnKxRU0RAm5UvEcpHlFXK8my13+WU/THBdqDtDiAk/QXESAv1ZmJTi/O3N7mum03AjDDGvmNaNX1QAzUF6O5m6Pn7e42NLNJokBY2enLp043Qjs0rVYrcam+ZIwANetut1I7YaGN0xJf/dEYPvdYEJA4qVR5edT98JwR2FF6A01QCocJp9BId9H8OnKqLQPnRSms/SSNWtTCDh9uzy3AEPO2mi1IvUxISTWIxBJBvGUHHoo/OvR6KhTlU8UsUdnkdxMlcv4xPw71DYYM3N2MCf7l6w9rKleivjSdXVAWwEfgWCgPCzJQO97t6B7TRtwrIQ42+x4lpa+P4dTccBr+FhFmgiBrQU3NEmn8pXN40WNI+muFKa4umYl5tmgYroU2piRUNyp7t3SSplqrrTnsqO9A1yPdEWyaPrvArBurVUKXCgNcm+QXqzxJEMpkjbHI/HLqie0Rl9i8V8HR7yfJ3Wty+vyNtBHBy5KJc7YT0E03yEl3QvTpi73pEWrJiOMBUbOKBfcacBMswSDS989OVI7x9xwbhg2LONfRUbKmeugUkuz9sxexX3tuZTQ/tIF4WTmKaHst/508h+Nn87CzqLZ7MOvtYfTtnVqOPkGu0gphEn1pR0uT/C51V5UnWcW8KinHL5qdTwpOPpLrxOQJa9RbBJ7umGlbI7ujMTFGtoi2kg0cSY/Q/AXtCmrhKrlhwiOecu8l8vVzwR7g1SKz3CVT3zx+OAP5nChA9PMoaaNhtyK8bxTUQlDwWfQxTt6o4n1tRvP3GQdDXNLgox3SP1q8CvtpNznD0sPzTlbbUqEJGUzN1rgAnFeqj258SbKqbZbT4rdctEGfkcSg5FVIr+WugptU8ibXCgDbj2uMsEJ7FGiTQVlaTzoYoZ0Dv1blbPSaQZfBsfMNZ6KC4VdS5AEDa7q4wtaf6qbozm2voj2Z7NjxSaeCa9TrHKmt+EZJ6RtssZopYEUGyZyaRFCW/9VMI2vWSRZorZzcqHQP4PTpJ1j/rR9tF8FaO1ueM047YMDNOqqThr1sfvnuLrcAx2e0zjFKnsTJg7yHuG8HY0EAXeLieYZlN8fD/R/ZujtUg7mzwguerdKwZ0rXqUCDi1TH64RIZEA+vADQxg57d8NRBA200UJh+Nno3kgxd9GT/xFnyyRFiyIRtR82LcV0yte9yJUQtwR50Pxdea4HmI7WDmHLHHPy8uxqvEr2GAOcuuyqemWjpOImp4LETf2D+bGEYgQ36yinSeIDsfDxmOVRWL5K4rFVh8EFUYK+VJbXL94Vyf5/s3C/eQLX8xjgM9wZHB+0CcozdlfyC4y0Vj6C9d4QqjMOpagn+wPDPTYFlBfJygyi3RPfKEZ32UZ9CEO6X0uQBJ3ZHw8SF8SRBuxEKZ5KnI2GXmfr6duxWq5NGwNDW/syU98DxS6sg/TGSkSnqtS3cUetWlWLY6FVYPcIphLjY/WLoU/d2zdQKWygdbo/hE4w+SRmDCTwCsiYBs81WPRM7odCyBF1Ix85wW6zQSnBTwwCEJWcksS3iEXjSpx0r2UFV4M/r/zw8F66bDosfsoLN8TvGLuUMf/QNYvhT8NwanZ6ObcNhSd5ASZ21sh7LrCVQY8QfUSuB8Sdo6Azet0nO1I56+/5DDgMkts5id22yRRcl1+VbHLr0FzSAOxZv9ymP8KZA9asCzrpluUx7s5OB0T+5gRnJk1ut5356h6LUdofTJBR/xF5o87ul/OZdP/+PHLElBMU2gpxIXJTd2fRcxyXaIHdkjTNWz4Ek1jQMB+3sGaQqqo7pYuU50k673a6W+tjtFW3vOU3BNxY3V/0071ux3IpDNK788/mlbxK7y1rAvGfyoe/k3Und35/VFkCruK4dxcKfLM+pACdkXG8N3/kr/RNEI5wU0x2Sq0S9kwEeU32chTJ2pAqJSDjMQmMpP3aDClJQ5EbCobwEKYF8rgxhlIhAUT9HzcpADiRNXXl0c6MOhqYjTS6YqgV94RYp3fZKTVkDjwG30wHgoWy7LfIakNrVbkNMafMAMM+CP5qit24rl1rEx5EpEj1EKb1YizIyFNAN3KqIy40AwWIWb3k9xwb3TGDrAqbtydvBdfN3oqL69zlhBjLmHLzvt6K0OPYo0dXYyg1tnZitOsaET8Ne60+YNoO5u3zI7aVREs1/mqA0596abD4jOs2oFNvrK7c4Ao7wcJ/2jtQx2vSUS4A+TkzI1cZhP8pag9oJHVitKSucH5RLHe4uRrp2B5+tzAWNbQm0gUe+IVlVevHib0XZ0eKqTwiAR2Rl0sb6yJ/UqrMZ1FU8OXugb9KQ57l2NKJrKUPhbU9SN5vWnU05kOzSl2yI25uPYVKkMscqFVwVn7/bgoYdI71/WkE1WSmEG/Cesd3zCSr1UX6RH3skOmxQ47CUNYeiZmgQsH6IS1RqOF5zwoWeIf0uMVs4tU0XOSi+oQtmHsOCh/URt7SG3iWfka3gmmXPslnJ1NtEyw2ihDQwQKjADFWUwYlONIAW4veSDd08WSjhKUrrjtyCfGoitX+BefMKhhgVG9khZgXtFLgYxLdaOD79qdJf/cRhsvCltsqo8zzF4OmZMotLhKowzUHDhbmKcwDxSM26rqMn8LDLFrIbe5ypWiVQ1HliCeZIt8HkcyQNtLEQQOYg2JSMzqkWaFJdsLSTFOuI4sauZ8RYNm2YpkCElk4Bf6Nldgg9ZHMa3u9Vx9tbuQqBL5MrxEHM90ulGykf9QA5pEWx08Dj+I/FCiPSfuZxt+Y93Ud8aXb5YT2rb0vKr1jDop3cev5VLG33Dj+B4VbC0s3OH+/pYAWEhcp66fJ4lA5AeZPJC9d+JJXETTsPjODSpgPHgk+DSs3YkWxay4j9lkf+apQcZQfq1OJYND02eE3JWqwJYYBaET0CCBhVwveA47yBEvBWxkz1LuPoDYImAnEwpX7U6iKN9fxiYqtKqhmINpryP4H/JL/UyK5f37OK88C3VrAXRYgxCvDg2ps3ejHhhoqB7D7f9HD5bjFpdNUVGIx3F9TZTd/pi23cT/jvI+QFbf7DCSPPpBDVpSUnZDh6PWk7OZVTA1tSULSLFmWMfNK8UCbfmK+POBK4PCxbMW73HJEH/cQRoTofmX4+2xtLqHOrK96mvznWn29XsGM4UpsEJiQr0laTHaHevLQq5/Og3Ub74dpmo0KKqHLg0Un3Vj2g1n7qLjdKTzaZToGDfQ0VQSPLOtYZoVito+imwQod+OXQS2f2EZdwB31TulO06YXyw2UiKbhVMXOW278kV4rU75GmXkcgYaMWIdMRWq5VQQanb3MAFITfpZIpt7N8nMjCZb3RQsEHPM4Ad040HnsK7/xH67EbkhOMkT3BDBRmh1fSPLOsKE/ANfBk7N2QgKdtrDjEVDW/rhZ10Qjw5uMqZ/mtYEVQkTJx1AcMi48Tc0AcEq+Y0e9x+/cmN6V5OUj8uLjwYbpwxua3qK7wAxDs3USDfHONmJfljrDE7s5CJ+9HjSI25hS3VxoecRv9d1d99YAiIXbnb0I9w4QC1278udjH5uWGrbCCsreTOIXxkgcoN3M7RxztOzCHSHjgUeTzIc1vXJgaz4tHpuWnWn1XKOUxjkmQ4JVUB/hhUbRtzduZee4o7RHljacZWSi+Jmr+dKVlcpTnNeoyLMzVYNGPcvOHw954YmEPWKzQF/o4eyDdu61nY9eT+bPWdPDm2b2qEERJ67qnL02vSGd02w+3Si5YCVOV+G0qz0C8r8SZdvtmgojOSQQQfKvWWYshj/4n7rWgJOUFvmGlZ5swwKhd4foZODB7gEgOjUGG/e3YJAOyY5Yks/lq224B2HzoSmeHWDVgqhlyIBHAI2pdvVhrAR7GrmEwQrJCo92MsBdoOYtwqBmPUXUQc0k3B4eikqJYXKPdW2Dw8BQUnZqZvTHMMAzlRI6WdUy9fZEVDfaQbQOecWGz2DDa4iMb1D3BIoF9H52/aePCpss1sa+661jrVe82fAodq4adf8zlzGOPJu1Ot8NpIKnY2dtoQbJ0hd8e/gBz9IqsegewzyGv01dWfm8BzLMygdTtyGGvDVBZJEecsLNlacvN1KIiEavRdWk+LwfzSKlWKqbP4RObZV5rihEaWZbgtH92eELqOvPF/yOPf55dsG5OdSgZZJxgnCStUSnPWm7hnY8AltA/d25m1sWYaeUnwP33bqvEH0gyz0270pCkEqYABJ8M4ldZ91lwBXriL6SsCqZa84W2SC067RpFcPzpIPqMMhybeG/hh6aDIvfqrV0Ykhfn3FX6zFA3wYVN+lHEfKeHpzmNdi6HL79Zgm7+h8SVN99qdeTxUAusJCRzYlFzS6hqyHvHXNPkzhjow86MWX9CunltaQHX3I03+b8xZFSruhGy+kMkCtYNtsOWuvc5Ux1NsaDhad9c57L61Val1eB5iCjvwJLgbm6fe1BVFHn4LdNLqrK9rCRqXei+3L0ZyNLKfqNMnmwv98mNzAgXlvC+2rR6yT+NeqCGPl3GrmD2ciAKKCWYr1y6OpeyNRgYS34xOkuc/xzPApi4OfpbjsI6+M1JNEYRYdYHEvicLVREAwBhaZD82eafTKUC23ptXI0i65ORl7VSjL1whgVwmDyLq53r9JKiSx40gwdh+wI1PTnTtE+2yjpFoB32YK6/BC6bt37HaOUE3NIJq2cpVbNxl2L+ib2kaY3Xue6965X8TOOWOLUvopYKxlgfoTbQmrXMPsyBwNFrpgXD5dbO2YKmdzQ/00dsqyMGFdcTum5OtPJZ1FO2/grjZ2DHegkVJ/BBTPeev0rlYQexW4nRMsGh4nKCSlPjnNutXoJJqhLx+/K9clRe5X5kkWLo4xMbJziVCDqJ0E0RktxkroCQyBWuiIoKxNUC/sFmIG4Dl/9th9JPmsMY+xm/Fgc+MZ1Y3kn1RYIVN4j7utBhvtxZXjhPfvsMIoBsNUDEWdD8ZzNjDPoxMwyKjJB12CcSPM0mP52ZliVYEtBQCRdMsF0VuYn4L2Lb/cLV6PblVqmp33LdadJDN+LSsEDomrYNMK+t083UKU2jVFkjxYuK/ZhFFdavjO1CYH1oghhzekB8xuV2dMAI8uTTQN6oz5FEi66e6IRAmgCqySvVABUJ2eGGyCwFbBeYyrUDhy9olxJgYj8n1qC80aEcBcaNPDuBCZVXIyNKD2tbLO0S+5svDAg8KnXfGftqLkqsWUzq/I7xW3B8BHvmnPaCjc/+meuhIHR+VVXyCS4z2y0fxxGLFk5KaQNNvLPWfKqQI45jG5Im/5y6QWxxgQlbVqiWH1ZTK6GEAYdNNPt3gqCDmhMTouBMNde4ceNcjCbuySQ4smr3vbA5W7CPKhxbc+JomkSMRq+NdBWoyA1T1UgTV7cmL1/RN+ospKbMh2CwD7I04vmPj82SgVAxFifhjJv8PBKqeChBZ7ixKz6vv327SogSaQNsUUALQvqvrET+z5JWLbwUfl/7HWMvMgKw3Y/mOX+1jsqdoMiP6LwqC2p9wFUl3DMzPOdz8arQEu4iTfdsQmxF3yND5JtSQ6wnfp0r41PjUBMRuUdNwdANokASwxqWK8rwemR6rvJoTAZpDl3RF0sxRYZ+6yJLbqNfuokoy/rLVhzGltdG7RNRBlzreXVHJ5rs579arVTHdQ2HI0cSoS5qnQ0nznetf8XfPFpR/bj8glQye9yMmUDpxVK5uNSAJvFnhB0pV+2bkkqrCqPJ+tsirO0MueUyguB91ukR17MxD4rfLcLf0PCNr03wDTi6RZ/tsg0QMoa88E+9kMKPXeZs152/Ans5lPujzeiZVk7Q7IzHU2lTxEfLgTi4W7stQ/FvQAO2G90R9VWTZXm16LMDljD0nNXlOYQOkGfgzSLZUIOJVGOUJvJi0BLi9bXqyGUllpXEGF18WzKkYlJISNR4Qt2TkfKx3U5Ryic7nu9Ch32T+B9XdHCFxlMV1Lsj2ncNGvhAegc0VssVetAjSLnNFV5BrndL5TgogF0VTQokZVJrLr+hiceOQqC++7b6uiMcD29XXt1s71nNSWTH2MJ5HFhgq9lZN39FwalH3gK7pUDrilqgxT8HZz9+Sv8v8ODXokOUzgQZI31ig+E2zvWP4/ils1j5ML3yFqh3U/rWieh+G0hfQN6BhQgYhROswQ2rYAr0yLyCzUHBotKU4xd7xWXTbpFIZqt00iqbXUlarKAKedZC6NByo209GMzeuboyncfMMPyBDuAxvHdGNlsIwB8KELYKTRIDBfexlri31DMZ8dkcy8hwJSwkftYjkl2XxLBSd70buRt8BY0TDjNgllU9CPYdjpdiFM0Mc8UrQiK2d5rTJcJYDkCUuqKA;" parent="1" vertex="1">
          <mxGeometry x="1986.77" y="-66.85" width="46.1" height="46.1" as="geometry" />
        </mxCell>
        <mxCell id="IM26monnl3EASr7CZdYN-174" value="" style="shape=image;verticalLabelPosition=bottom;labelBackgroundColor=default;verticalAlign=top;aspect=fixed;imageAspect=0;image=data:image/avif,AAAAGGZ0eXBhdmlmAAAAAG1pZjFtaWFmAAABaG1ldGEAAAAAAAAAIWhkbHIAAAAAAAAAAHBpY3QAAAAAAAAAAAAAAAAAAAAADnBpdG0AAAAAAAEAAAAsaWxvYwAAAABEAAACAAEAAAABAAAP5gAAFQQAAgAAAAEAAAGIAAAOXgAAADhpaW5mAAAAAAACAAAAFWluZmUCAAAAAAEAAGF2MDEAAAAAFWluZmUCAAAAAAIAAGF2MDEAAAAAGmlyZWYAAAAAAAAADmF1eGwAAgABAAEAAACvaXBycAAAAIppcGNvAAAAFGlzcGUAAAAAAAAA+gAAAPoAAAAMYXYxQ4E/AAAAAAAQcGl4aQAAAAADCAgIAAAADGF2MUOBHxwAAAAADnBpeGkAAAAAAQgAAAA4YXV4QwAAAAB1cm46bXBlZzptcGVnQjpjaWNwOnN5c3RlbXM6YXV4aWxpYXJ5OmFscGhhAAAAAB1pcG1hAAAAAAAAAAIAAQMBggMAAgQBhAYFAAAjam1kYXQSAAoGH93+fktUMtEcZDeLf5Af0AgkBC4AAAAAACigAizEXHR3U/oon9wVVggcI9FiPruWLdN9VM+aiRecyhYhwaLiGe+NRB81SwEmmOZDCd8u/3Btye0fzn3QLFeImLOMLXBlmDII8rkOl5CIYayBuMsaMQTKAFdMMyRNKsv6bu2KVk8TNqobIkzQ6FMDYfMpAx9xU321JdTjCO+1y/P3RDLv/5kMKur6C1wtj0SU8S3jm5A+XLqzYpPyvmjRZTI9l/pRuPDI8SecNRHe27CrenK4wzmOswnPm0d49vycMWFuKGDKpLG5gejMm6xyL1wNuc3k778vg1XGaxJyXkd4pgj1vtkMPixzisgsoGn7R/wehhQ+EnaOSGScsknHKSdzqWum2OpRQNrm0IVJ5ujT68uArLIuUbUA/voyrUBdeLJyhXRDoVz61qsCkSwsO2HERpZUL0oG0AoTCOb5uXF6ccGE70E0+et5kt9N/O78+XtPcKq75LNXKi7C6s9i4nncJUdTN1Pv6bxSGxaQhSj3KlI+vUiRrjhFUH1x8+lHVYPNfIAtba8QY203QDp1QAttG8fX94Ptc/kLTaQX0Enu8loUf7BCDVLlUKDP+c9bsQLZ2FCwghTLEXWX0XlBLv+mDk7AemYKgMC/fWG7tZ2xFpNKY5DpNG4qpyqR0Z8yQVvz1k10DtIvBYiSjdudOzkt3b+YO9ZSMPUMskCSPGXeuNV7qsRH7cTDoomBFjwmeH8vRfY7isf7Z9Q7g4hgxeTjLbC+w2oz+B6AvPIfFBGazB5yjBKH+ZfKp2W/+gV40Qtwv/9sooJ1o0teeYh3KJaKZi3XqMP1cXsGv42kFa1s0sq3368LneSXTRSkLA+cx2OguDjadaOKH9boRRL7+o/Sy5bHRv9Oq1n2sjWPti8n/bGCGlcVBe3xBS5+UqXKA3Tadvegd923vlqVyS+gRAMlH/1twTcrHyWAcPvr8DVoI6OXW6zuul+Fpms0LHN4mBh5mg4CmZuUd3Ug0SgLec/+pcNrTtIhIbIAPDNpOhEHL5Xmt8E9SEFWz6NGGao3aQnLNqh2TWrmzHg6TJs3oKcRVrxw9F4g+3jVCmQ5dUgIA44yKNn3m1PP+Qlq2tox3dOLvsGFamiSjr/OE6VDv146OcgmGgCEe5y8ICPTtcdX9Ax2g2g+YK0e8vUzNobsqQOov9T/aEdRUrUU1xMVl9mu+/izJOPRW4aq5xPC1NGw+dhf6tP1hirIywGBMGvDEoaL1+XTsQ6+fIBBCNhbPgTNggb5PMFM0oRHjYgz2vSXRoZ+ilY0QTso56WWp32qMDlo8K3yRVMhPPkEUzCmdTfl+G5yqoH6NJKysXugKKVR1GtBlfpy3OtiDavTDNh5Cd8sRMMjcg8tQPXoZ6yQoLnCyhImhmahRstneJj5h1JtbMXjqtdri2WsHDy5wAlYNNHmhWnBmbRjbPG16sMU/XfIGy7wVuz9Q1r+zn6+zOUVuTnQpSgoeBTCA0Fx2XUoylIwaYoiuL03xkpeBWLdkePKoakFDuiv9ogA9avh4BnIBrGTKWlHU9Fpe7vx3F57aIG/ga1TeTenm60DZz/rq12PyKJVhlhvNFAzmKv046iEzz0tdjVsOhi4w/lrs6/Lhz/vo6Qj5RVEx4wwvq+EQt2jlDJy9oyQCVmY7F/2stoahETBvWo822RsIS3avopJvF5haLhsbcuVswAz94GuIMxhMnZ9cEwYjKYtuuDNqqGnSUyWL0P02wSOliApzv8FZg0jyQfvjJAG7zdH+iPr8UIgjAa2/+HlaFikpJX5K9Zo0P9/zFd1CpdwMOIQHCNmF3U+hQg3A7xZy8qvf9LfQ+eKLlvFIEtpNNAMhZjC0uHYjoxQ247XoXmCTX1f6khbuFfa5QBtesSu9FQoqSqbIWxPSj6IVe6mh2Jx8dOxOoUnbUkBbkshemoC38RB+HfUcaWoiSZS9WNpNc8bF7qoMrKj63ji0WLKoQe3vGhoMMcDPYPl4dmlNxVxsY8btFU6vCX7dP3VcTzDFFc8u3dFLzryR1B4uoFhAh7NbOGMDJiXGfs2Nfp2N+tL/FvjJIYD+i30jfinE0y/hqOf1z0Zc9VFw1TPfCscucbz4IrCLYxHMJUJkNBlHHTts43yqvXTMIbEFsePom+xDS3oVQ0oQ9+Ij7aW7Nd2P0NOozMhvxcekVHbfyRdHpu41Il03dKqA5KPAWtcTqMiDEjZUOr5Xd2J0nmK58uWAHx+F7AV8uc3v/EnSpHfQStjrVEf7JutFADUuQ+5qrfoNEH/eYOxZVhH0ON46NSiedUMJUtB4/O6U2/gses41JPLqJav33OW91zxyfrKC7/d6RiBl+h0wcM1i+eFHJZb6YNxl3s/eewuO7VrBisYci+8I8VC01MeVpaTSxaOIgmcZx/F6wZBpIC/lwap97Q8ffQXZtGpWfbIzzEOQ1ygEVPiZqBatQYdJ1BaO575W7CtPpPL3wRxsH//OobIUExZAhvH4rvv373bR0uLuu6MviCNq6wAqrJ+56qnK1mFd64RqtBaT3SmPUgxywlrtpKHxAhk9AvmiT0TOxKrG4CV9I2+2jTdh0PN8rE0g1oCGtboSxIGdGn3ryK7/bK8ppxIYntbB9OYI2vuecp7WG6a2Kg/Cf6CU4l8NVOOZGXZJuSdgyRD3tHaVUL4tPqNNsljDTdzmKavRQZ/WRvrHYKQjI+W2CMfxUZTzjQXG6V5Js11LQWPLqkBbRbbpUqKoGHRkZ/YHY9+1iFnY9ZVZABb7uJBtH57Yq/F/1jQjVfxElhU+Ng3ygOGGlz/BmKBGz0kN5zq6qYbJPKBktIt1RtsS0kXQf4Qt9rTUY5f7rZSfmSNNxp00MGV1nHAqZ2PtDrdZgsh+ZPyDIYgOxHjSFFg+/VtkWoPAlMrUyNCo2Xd//tJq3IbooKT7lxOTu8zT/YNybEkfJ4/14KiTJsCRi6bP/OOR8KUZD80uCK1bVKs0VQnN8O08cVnceu9ohzcQQ0/19JrE9oQadotIMaL6sy7pccG+szokDj+6w3Po0vuEBI0DQZbhG9nAKiZCrptDHYgCAUgm4cueyesGvN8EswB4c1fzCXS8BnCDYVmldRRxG+ZSpq7XpYIX1FN5vnjv/jL47qzKHaAhKuqLXZZJa3wWlx4Qs5ejrPzhNYUZ/n0AOzSgRyOV/EItieKK0ChJLB+JiHMJqNBiLpyltROLkP/CBnKddC3g0pxHLOy2R1FNH9psJZJRR6QpQwvInaOms7z7CKFA2eMR5r5tqPcJcrLmmlgjZbBGvE4AXPU0G3bgRWQfCfwZN3iCQSHlDp2suF99QZLnE4OFxH2IcSpsDsQsN5hq9iuwdnlzDZBF8ahf0141kss+9kwLOxy/s7AMDNgG+vir9J9HiPpUoOSCIOASgZmJd2rr87nN1881LjRf24RfxviQnrhEkj3e4JnOjaDWo1KZHY+ePz6MIRVClp2IVZ8fVL+kndY9NwMoT9bnTqSqw9tkirSCfpPGoMCO2BZDkf2ujH8ecyZ+3fnU4BNWm5WKq6tnGdsTWUp/gKw2mY2OiMCFDiDfToytK8WJUrbU+NVmz3TmZIGDnfGBJQDpMICeDigFH9T4mBRSaAxWFDnMM/rcVFTgQNp44c4jEHCbt7QApj1ov/myCJmIPuEhXLAVOcAkURr9rST3/d4eyiqelgbgSnk2BuKbglyWrIKPlKWKSKHQCZBFCFO0Rls9rPAokjAM6khsrcHMcIBtFZO4HeOrK+ZCuCKEpjvB1JamebsW/yiIa/i/9CmqO7KydujKLj75gzRWgCgHBNbbJfwH18GF/dFqsr4tlSLSSfdbxc3afLSFbyrdTghEzlj4vCh0vyNTm4O6/yjDKu/DyDKDDvTTOwl4MTVOFPX/3U3d8MAaDt15vAHk6ooX9lVXJZxZKqwJoZLvhVFiF4NR0dxGPPVXJOa4mYEcpXmiHC0U04ivYf+wS/xvWvRPOkXxUmcFYaFabacBQm/+TtIGK2lDmNp2cVeO8LVdipyjAG9xEALc5V1kWVCVBnYDDGpnhCT51BZrDTGcSsgAYAwSpKL3E2hY1fdF4411Vea6LDK9/EcSp3b3ZV0uBUtZtkUdifhv3z4yxwkyI5gPxlHCrZ6+yafK+jFdxUCeRSKLvnc/EMPwVCOWNvGfifctpjBAYLJA7dWNZkFQ7dKCPQUn62l/ZkFW/q1IJq3jkQif/8KmvxbxG8UkpeM8mXYfSJ0Ezt5heVfnYhNUBpHvGrobN+QW9Bn/J5TIDo5ne0E0gTQJF2gyDalbp8NI9mtVQWcj2OZduOyO8kAuvmvu/6YqT3WsY5/dc/G6g2NOYGEtNTnzQurXxHoIxGlYSuBCqSarYM8BtKlMfXXntJDGHT8PXgYjIEYhamNcD4IZ7ZHOTcI2ylM4gNvdoWEmHEb0zVYEVo6rdXSnbQ/m6cclXFkRFR0mLt5bTIW5b+W3MsIWHTFwyTFJAnQ3d/KbRggghNQgjvsu+WTeY+PfW3n+aHeglqwDx3maW26xsRQQybok84HNldKj62vveaThd1lX1FUQGRyhI12rSz44dm9ljAbgjQHNr+n1117Nsf0sWY2Wc4DTBWv/VAvUpJsqx6x6+27KzxIPi3/2Oq8p+bvGwjKX2wk3NZTUmXsMx9Azaef9cCmUF8EI/9hXUYxZdfBoKiLSxcUO3G+YNomi12NqJ3Ur2PcDbio0j0fElELRdk+orX1m7Dh0najrVmVWqEOZd2lvC+GoTurk7JW5/CglaxgIyxJRhW1sSkiTnwTQtqjEaXX4OdqyAQBQI/bV/LMO3Lwrt54G9XCOl9hbC8VF4hMVENAPcj69Thb5yIMMHmlHUSLvu48UzZuKJVAE1Ma6LXE8wAF8CW7T4ASAAoJP93+fktAQ0G0MvQpZGWN0UnFfz/AD+QH9AP7Af4AgIBBoCFQB1VRMEEEVYAH9S4vHl6IZ6Fm8zU5A2ueRg1VwX1dLu/nNlplbKVJYCpFmregv4t5H/pCGQNOYaVz+2I//SzOO6UjRs2HeRJMKC9Tpl/REjs+kO0wQoC/tWzYSKrAMBhQWsCLv442FDQYxhb1zNm67UlklK0et9EymOeHcydw82c7yBqdbi3ihqEwbVI71x6DPf7mTsDxzzabVPLpf26m5uN/dns4ebWpKb5lHVq1kYD2ao67rQngzP7yG599YgOEhyv2+Ppr4NUSzLlNTq5m/Kpe0MJAlogvWlJpfj7H6DmIPCFJd8BmfCaAlysDdQqwe8w/Ad5IlxOb2KwMx899Ejtfv+DE5jDP41LajLycJO2sNazk8hTPKX6Uf2e92ysihLTmx5s0OB3g94U+5ZfL6VGBK48qn9rHt5Pw5qkjGyV6I4P6Gt13tjoKPYQavqbqHVbGNJjirtDzXFS2KAKkXTf1mG2GsjV75DhP5PR35jUiSct7VatxfFTIoRQ4xydg/VgQZR+S3HsW3AGron4zmlbOtP1zqSDMn2YsP0F6GyCy1kHr6kjXZ4Ng388smCRHJ4fikIp7XKX/XfVEnTtpZQChHR5Mq5uVaF47qhQ+xE9TEC5mONc5/79Zjt2izYe/n5J6JWbzqTF1WiDHt/Otu0TQFebXyk4CicdfBSLObfVUl4kzyGOBkLcYtLrje7hVkj/Mexl++4zhqfOzG6EmJG4cW1rZhAy/BnKqqF/4bWWaN8aUVPO5OEssR0AHx4xwLkWY7e4BXJ1pSm401milnKxRU0RAm5UvEcpHlFXK8my13+WU/THBdqDtDiAk/QXESAv1ZmJTi/O3N7mum03AjDDGvmNaNX1QAzUF6O5m6Pn7e42NLNJokBY2enLp043Qjs0rVYrcam+ZIwANetut1I7YaGN0xJf/dEYPvdYEJA4qVR5edT98JwR2FF6A01QCocJp9BId9H8OnKqLQPnRSms/SSNWtTCDh9uzy3AEPO2mi1IvUxISTWIxBJBvGUHHoo/OvR6KhTlU8UsUdnkdxMlcv4xPw71DYYM3N2MCf7l6w9rKleivjSdXVAWwEfgWCgPCzJQO97t6B7TRtwrIQ42+x4lpa+P4dTccBr+FhFmgiBrQU3NEmn8pXN40WNI+muFKa4umYl5tmgYroU2piRUNyp7t3SSplqrrTnsqO9A1yPdEWyaPrvArBurVUKXCgNcm+QXqzxJEMpkjbHI/HLqie0Rl9i8V8HR7yfJ3Wty+vyNtBHBy5KJc7YT0E03yEl3QvTpi73pEWrJiOMBUbOKBfcacBMswSDS989OVI7x9xwbhg2LONfRUbKmeugUkuz9sxexX3tuZTQ/tIF4WTmKaHst/508h+Nn87CzqLZ7MOvtYfTtnVqOPkGu0gphEn1pR0uT/C51V5UnWcW8KinHL5qdTwpOPpLrxOQJa9RbBJ7umGlbI7ujMTFGtoi2kg0cSY/Q/AXtCmrhKrlhwiOecu8l8vVzwR7g1SKz3CVT3zx+OAP5nChA9PMoaaNhtyK8bxTUQlDwWfQxTt6o4n1tRvP3GQdDXNLgox3SP1q8CvtpNznD0sPzTlbbUqEJGUzN1rgAnFeqj258SbKqbZbT4rdctEGfkcSg5FVIr+WugptU8ibXCgDbj2uMsEJ7FGiTQVlaTzoYoZ0Dv1blbPSaQZfBsfMNZ6KC4VdS5AEDa7q4wtaf6qbozm2voj2Z7NjxSaeCa9TrHKmt+EZJ6RtssZopYEUGyZyaRFCW/9VMI2vWSRZorZzcqHQP4PTpJ1j/rR9tF8FaO1ueM047YMDNOqqThr1sfvnuLrcAx2e0zjFKnsTJg7yHuG8HY0EAXeLieYZlN8fD/R/ZujtUg7mzwguerdKwZ0rXqUCDi1TH64RIZEA+vADQxg57d8NRBA200UJh+Nno3kgxd9GT/xFnyyRFiyIRtR82LcV0yte9yJUQtwR50Pxdea4HmI7WDmHLHHPy8uxqvEr2GAOcuuyqemWjpOImp4LETf2D+bGEYgQ36yinSeIDsfDxmOVRWL5K4rFVh8EFUYK+VJbXL94Vyf5/s3C/eQLX8xjgM9wZHB+0CcozdlfyC4y0Vj6C9d4QqjMOpagn+wPDPTYFlBfJygyi3RPfKEZ32UZ9CEO6X0uQBJ3ZHw8SF8SRBuxEKZ5KnI2GXmfr6duxWq5NGwNDW/syU98DxS6sg/TGSkSnqtS3cUetWlWLY6FVYPcIphLjY/WLoU/d2zdQKWygdbo/hE4w+SRmDCTwCsiYBs81WPRM7odCyBF1Ix85wW6zQSnBTwwCEJWcksS3iEXjSpx0r2UFV4M/r/zw8F66bDosfsoLN8TvGLuUMf/QNYvhT8NwanZ6ObcNhSd5ASZ21sh7LrCVQY8QfUSuB8Sdo6Azet0nO1I56+/5DDgMkts5id22yRRcl1+VbHLr0FzSAOxZv9ymP8KZA9asCzrpluUx7s5OB0T+5gRnJk1ut5356h6LUdofTJBR/xF5o87ul/OZdP/+PHLElBMU2gpxIXJTd2fRcxyXaIHdkjTNWz4Ek1jQMB+3sGaQqqo7pYuU50k673a6W+tjtFW3vOU3BNxY3V/0071ux3IpDNK788/mlbxK7y1rAvGfyoe/k3Und35/VFkCruK4dxcKfLM+pACdkXG8N3/kr/RNEI5wU0x2Sq0S9kwEeU32chTJ2pAqJSDjMQmMpP3aDClJQ5EbCobwEKYF8rgxhlIhAUT9HzcpADiRNXXl0c6MOhqYjTS6YqgV94RYp3fZKTVkDjwG30wHgoWy7LfIakNrVbkNMafMAMM+CP5qit24rl1rEx5EpEj1EKb1YizIyFNAN3KqIy40AwWIWb3k9xwb3TGDrAqbtydvBdfN3oqL69zlhBjLmHLzvt6K0OPYo0dXYyg1tnZitOsaET8Ne60+YNoO5u3zI7aVREs1/mqA0596abD4jOs2oFNvrK7c4Ao7wcJ/2jtQx2vSUS4A+TkzI1cZhP8pag9oJHVitKSucH5RLHe4uRrp2B5+tzAWNbQm0gUe+IVlVevHib0XZ0eKqTwiAR2Rl0sb6yJ/UqrMZ1FU8OXugb9KQ57l2NKJrKUPhbU9SN5vWnU05kOzSl2yI25uPYVKkMscqFVwVn7/bgoYdI71/WkE1WSmEG/Cesd3zCSr1UX6RH3skOmxQ47CUNYeiZmgQsH6IS1RqOF5zwoWeIf0uMVs4tU0XOSi+oQtmHsOCh/URt7SG3iWfka3gmmXPslnJ1NtEyw2ihDQwQKjADFWUwYlONIAW4veSDd08WSjhKUrrjtyCfGoitX+BefMKhhgVG9khZgXtFLgYxLdaOD79qdJf/cRhsvCltsqo8zzF4OmZMotLhKowzUHDhbmKcwDxSM26rqMn8LDLFrIbe5ypWiVQ1HliCeZIt8HkcyQNtLEQQOYg2JSMzqkWaFJdsLSTFOuI4sauZ8RYNm2YpkCElk4Bf6Nldgg9ZHMa3u9Vx9tbuQqBL5MrxEHM90ulGykf9QA5pEWx08Dj+I/FCiPSfuZxt+Y93Ud8aXb5YT2rb0vKr1jDop3cev5VLG33Dj+B4VbC0s3OH+/pYAWEhcp66fJ4lA5AeZPJC9d+JJXETTsPjODSpgPHgk+DSs3YkWxay4j9lkf+apQcZQfq1OJYND02eE3JWqwJYYBaET0CCBhVwveA47yBEvBWxkz1LuPoDYImAnEwpX7U6iKN9fxiYqtKqhmINpryP4H/JL/UyK5f37OK88C3VrAXRYgxCvDg2ps3ejHhhoqB7D7f9HD5bjFpdNUVGIx3F9TZTd/pi23cT/jvI+QFbf7DCSPPpBDVpSUnZDh6PWk7OZVTA1tSULSLFmWMfNK8UCbfmK+POBK4PCxbMW73HJEH/cQRoTofmX4+2xtLqHOrK96mvznWn29XsGM4UpsEJiQr0laTHaHevLQq5/Og3Ub74dpmo0KKqHLg0Un3Vj2g1n7qLjdKTzaZToGDfQ0VQSPLOtYZoVito+imwQod+OXQS2f2EZdwB31TulO06YXyw2UiKbhVMXOW278kV4rU75GmXkcgYaMWIdMRWq5VQQanb3MAFITfpZIpt7N8nMjCZb3RQsEHPM4Ad040HnsK7/xH67EbkhOMkT3BDBRmh1fSPLOsKE/ANfBk7N2QgKdtrDjEVDW/rhZ10Qjw5uMqZ/mtYEVQkTJx1AcMi48Tc0AcEq+Y0e9x+/cmN6V5OUj8uLjwYbpwxua3qK7wAxDs3USDfHONmJfljrDE7s5CJ+9HjSI25hS3VxoecRv9d1d99YAiIXbnb0I9w4QC1278udjH5uWGrbCCsreTOIXxkgcoN3M7RxztOzCHSHjgUeTzIc1vXJgaz4tHpuWnWn1XKOUxjkmQ4JVUB/hhUbRtzduZee4o7RHljacZWSi+Jmr+dKVlcpTnNeoyLMzVYNGPcvOHw954YmEPWKzQF/o4eyDdu61nY9eT+bPWdPDm2b2qEERJ67qnL02vSGd02w+3Si5YCVOV+G0qz0C8r8SZdvtmgojOSQQQfKvWWYshj/4n7rWgJOUFvmGlZ5swwKhd4foZODB7gEgOjUGG/e3YJAOyY5Yks/lq224B2HzoSmeHWDVgqhlyIBHAI2pdvVhrAR7GrmEwQrJCo92MsBdoOYtwqBmPUXUQc0k3B4eikqJYXKPdW2Dw8BQUnZqZvTHMMAzlRI6WdUy9fZEVDfaQbQOecWGz2DDa4iMb1D3BIoF9H52/aePCpss1sa+661jrVe82fAodq4adf8zlzGOPJu1Ot8NpIKnY2dtoQbJ0hd8e/gBz9IqsegewzyGv01dWfm8BzLMygdTtyGGvDVBZJEecsLNlacvN1KIiEavRdWk+LwfzSKlWKqbP4RObZV5rihEaWZbgtH92eELqOvPF/yOPf55dsG5OdSgZZJxgnCStUSnPWm7hnY8AltA/d25m1sWYaeUnwP33bqvEH0gyz0270pCkEqYABJ8M4ldZ91lwBXriL6SsCqZa84W2SC067RpFcPzpIPqMMhybeG/hh6aDIvfqrV0Ykhfn3FX6zFA3wYVN+lHEfKeHpzmNdi6HL79Zgm7+h8SVN99qdeTxUAusJCRzYlFzS6hqyHvHXNPkzhjow86MWX9CunltaQHX3I03+b8xZFSruhGy+kMkCtYNtsOWuvc5Ux1NsaDhad9c57L61Val1eB5iCjvwJLgbm6fe1BVFHn4LdNLqrK9rCRqXei+3L0ZyNLKfqNMnmwv98mNzAgXlvC+2rR6yT+NeqCGPl3GrmD2ciAKKCWYr1y6OpeyNRgYS34xOkuc/xzPApi4OfpbjsI6+M1JNEYRYdYHEvicLVREAwBhaZD82eafTKUC23ptXI0i65ORl7VSjL1whgVwmDyLq53r9JKiSx40gwdh+wI1PTnTtE+2yjpFoB32YK6/BC6bt37HaOUE3NIJq2cpVbNxl2L+ib2kaY3Xue6965X8TOOWOLUvopYKxlgfoTbQmrXMPsyBwNFrpgXD5dbO2YKmdzQ/00dsqyMGFdcTum5OtPJZ1FO2/grjZ2DHegkVJ/BBTPeev0rlYQexW4nRMsGh4nKCSlPjnNutXoJJqhLx+/K9clRe5X5kkWLo4xMbJziVCDqJ0E0RktxkroCQyBWuiIoKxNUC/sFmIG4Dl/9th9JPmsMY+xm/Fgc+MZ1Y3kn1RYIVN4j7utBhvtxZXjhPfvsMIoBsNUDEWdD8ZzNjDPoxMwyKjJB12CcSPM0mP52ZliVYEtBQCRdMsF0VuYn4L2Lb/cLV6PblVqmp33LdadJDN+LSsEDomrYNMK+t083UKU2jVFkjxYuK/ZhFFdavjO1CYH1oghhzekB8xuV2dMAI8uTTQN6oz5FEi66e6IRAmgCqySvVABUJ2eGGyCwFbBeYyrUDhy9olxJgYj8n1qC80aEcBcaNPDuBCZVXIyNKD2tbLO0S+5svDAg8KnXfGftqLkqsWUzq/I7xW3B8BHvmnPaCjc/+meuhIHR+VVXyCS4z2y0fxxGLFk5KaQNNvLPWfKqQI45jG5Im/5y6QWxxgQlbVqiWH1ZTK6GEAYdNNPt3gqCDmhMTouBMNde4ceNcjCbuySQ4smr3vbA5W7CPKhxbc+JomkSMRq+NdBWoyA1T1UgTV7cmL1/RN+ospKbMh2CwD7I04vmPj82SgVAxFifhjJv8PBKqeChBZ7ixKz6vv327SogSaQNsUUALQvqvrET+z5JWLbwUfl/7HWMvMgKw3Y/mOX+1jsqdoMiP6LwqC2p9wFUl3DMzPOdz8arQEu4iTfdsQmxF3yND5JtSQ6wnfp0r41PjUBMRuUdNwdANokASwxqWK8rwemR6rvJoTAZpDl3RF0sxRYZ+6yJLbqNfuokoy/rLVhzGltdG7RNRBlzreXVHJ5rs579arVTHdQ2HI0cSoS5qnQ0nznetf8XfPFpR/bj8glQye9yMmUDpxVK5uNSAJvFnhB0pV+2bkkqrCqPJ+tsirO0MueUyguB91ukR17MxD4rfLcLf0PCNr03wDTi6RZ/tsg0QMoa88E+9kMKPXeZs152/Ans5lPujzeiZVk7Q7IzHU2lTxEfLgTi4W7stQ/FvQAO2G90R9VWTZXm16LMDljD0nNXlOYQOkGfgzSLZUIOJVGOUJvJi0BLi9bXqyGUllpXEGF18WzKkYlJISNR4Qt2TkfKx3U5Ryic7nu9Ch32T+B9XdHCFxlMV1Lsj2ncNGvhAegc0VssVetAjSLnNFV5BrndL5TgogF0VTQokZVJrLr+hiceOQqC++7b6uiMcD29XXt1s71nNSWTH2MJ5HFhgq9lZN39FwalH3gK7pUDrilqgxT8HZz9+Sv8v8ODXokOUzgQZI31ig+E2zvWP4/ils1j5ML3yFqh3U/rWieh+G0hfQN6BhQgYhROswQ2rYAr0yLyCzUHBotKU4xd7xWXTbpFIZqt00iqbXUlarKAKedZC6NByo209GMzeuboyncfMMPyBDuAxvHdGNlsIwB8KELYKTRIDBfexlri31DMZ8dkcy8hwJSwkftYjkl2XxLBSd70buRt8BY0TDjNgllU9CPYdjpdiFM0Mc8UrQiK2d5rTJcJYDkCUuqKA;" parent="1" vertex="1">
          <mxGeometry x="2113.3399999999997" y="-67.32999999999998" width="46.1" height="46.1" as="geometry" />
        </mxCell>
        <mxCell id="IM26monnl3EASr7CZdYN-175" value="Worker Node" style="text;html=1;align=center;verticalAlign=middle;whiteSpace=wrap;rounded=0;fontFamily=CMU Sans Serif;fontStyle=1" parent="1" vertex="1">
          <mxGeometry x="1867.46" y="-25.330000000000002" width="89" height="30" as="geometry" />
        </mxCell>
        <mxCell id="IM26monnl3EASr7CZdYN-176" value="Worker Node" style="text;html=1;align=center;verticalAlign=middle;whiteSpace=wrap;rounded=0;fontFamily=CMU Sans Serif;fontStyle=1" parent="1" vertex="1">
          <mxGeometry x="1996.9699999999998" y="-24.80000000000001" width="89" height="30" as="geometry" />
        </mxCell>
        <mxCell id="IM26monnl3EASr7CZdYN-177" value="Worker Node" style="text;html=1;align=center;verticalAlign=middle;whiteSpace=wrap;rounded=0;fontFamily=CMU Sans Serif;fontStyle=1" parent="1" vertex="1">
          <mxGeometry x="2123.04" y="-25.28" width="89" height="30" as="geometry" />
        </mxCell>
        <mxCell id="_1kocXs8016OxGvP9XQf-130" value="" style="shape=flexArrow;endArrow=classic;html=1;rounded=0;fillColor=#000000;strokeColor=none;" parent="1" edge="1">
          <mxGeometry width="50" height="50" relative="1" as="geometry">
            <mxPoint x="2310" y="-207" as="sourcePoint" />
            <mxPoint x="2260" y="-206.85999999999999" as="targetPoint" />
          </mxGeometry>
        </mxCell>
        <mxCell id="siydrkHGnIHfL26yGSPk-2" value="" style="rounded=0;whiteSpace=wrap;html=1;strokeColor=none;fillColor=#000000;" parent="1" vertex="1">
          <mxGeometry x="2300" y="-212.05" width="10" height="252.05" as="geometry" />
        </mxCell>
        <mxCell id="_1kocXs8016OxGvP9XQf-131" value="&lt;span style=&quot;font-family: &amp;quot;Courier New&amp;quot;; font-size: 10px; font-style: normal; font-variant-ligatures: normal; font-variant-caps: normal; letter-spacing: normal; orphans: 2; text-align: center; text-indent: 0px; text-transform: none; widows: 2; word-spacing: 0px; -webkit-text-stroke-width: 0px; white-space: normal; text-decoration-thickness: initial; text-decoration-style: initial; text-decoration-color: initial; float: none; display: inline !important; background-color: rgb(0, 0, 0);&quot;&gt;&lt;font style=&quot;&quot; color=&quot;#ffffff&quot;&gt;&lt;b style=&quot;&quot;&gt;tdfs image push image:v1&lt;/b&gt;&lt;/font&gt;&lt;/span&gt;" style="text;html=1;align=center;verticalAlign=middle;whiteSpace=wrap;rounded=0;" parent="1" vertex="1">
          <mxGeometry x="2159.44" y="20" width="220" height="30" as="geometry" />
        </mxCell>
        <mxCell id="_1kocXs8016OxGvP9XQf-156" value="" style="group" parent="1" vertex="1" connectable="0">
          <mxGeometry x="2264.92" y="-54.00000000000001" width="75.23" height="50.81" as="geometry" />
        </mxCell>
        <mxCell id="_1kocXs8016OxGvP9XQf-132" value="" style="shape=cube;whiteSpace=wrap;html=1;boundedLbl=1;backgroundOutline=1;darkOpacity=0.05;darkOpacity2=0.1;" parent="_1kocXs8016OxGvP9XQf-156" vertex="1">
          <mxGeometry y="26.472817466211236" width="75.23" height="24.33718253378877" as="geometry" />
        </mxCell>
        <mxCell id="_1kocXs8016OxGvP9XQf-133" value="" style="shape=cube;whiteSpace=wrap;html=1;boundedLbl=1;backgroundOutline=1;darkOpacity=0.05;darkOpacity2=0.1;" parent="_1kocXs8016OxGvP9XQf-156" vertex="1">
          <mxGeometry y="17.41712163968518" width="75.23" height="24.571121342640694" as="geometry" />
        </mxCell>
        <mxCell id="_1kocXs8016OxGvP9XQf-134" value="" style="shape=cube;whiteSpace=wrap;html=1;boundedLbl=1;backgroundOutline=1;darkOpacity=0.05;darkOpacity2=0.1;" parent="_1kocXs8016OxGvP9XQf-156" vertex="1">
          <mxGeometry y="8.51990049012332" width="75.23" height="24.148522204069476" as="geometry" />
        </mxCell>
        <mxCell id="_1kocXs8016OxGvP9XQf-135" value="" style="shape=cube;whiteSpace=wrap;html=1;boundedLbl=1;backgroundOutline=1;darkOpacity=0.05;darkOpacity2=0.1;size=6;fillColor=#67AB9F;aspect=fixed;" parent="_1kocXs8016OxGvP9XQf-156" vertex="1">
          <mxGeometry x="48.02561616161603" width="14.386709721786191" height="13.840014752358314" as="geometry" />
        </mxCell>
        <mxCell id="_1kocXs8016OxGvP9XQf-136" value="" style="shape=cube;whiteSpace=wrap;html=1;boundedLbl=1;backgroundOutline=1;darkOpacity=0.05;darkOpacity2=0.1;size=6;fillColor=#FFB570;aspect=fixed;" parent="_1kocXs8016OxGvP9XQf-156" vertex="1">
          <mxGeometry x="53.49688888888896" y="4.150527253824441" width="14.386709721786191" height="13.840014752358314" as="geometry" />
        </mxCell>
        <mxCell id="_1kocXs8016OxGvP9XQf-137" value="" style="shape=cube;whiteSpace=wrap;html=1;boundedLbl=1;backgroundOutline=1;darkOpacity=0.05;darkOpacity2=0.1;size=6;fillColor=#FFB570;aspect=fixed;" parent="_1kocXs8016OxGvP9XQf-156" vertex="1">
          <mxGeometry x="58.81618181818189" y="8.519900490123279" width="14.386709721786191" height="13.840014752358314" as="geometry" />
        </mxCell>
        <mxCell id="_1kocXs8016OxGvP9XQf-138" value="" style="shape=cube;whiteSpace=wrap;html=1;boundedLbl=1;backgroundOutline=1;darkOpacity=0.05;darkOpacity2=0.1;size=6;fillColor=#67AB9F;aspect=fixed;" parent="_1kocXs8016OxGvP9XQf-156" vertex="1">
          <mxGeometry x="35.86723232323219" y="0.10564978464279366" width="14.386709721786191" height="13.840014752358314" as="geometry" />
        </mxCell>
        <mxCell id="_1kocXs8016OxGvP9XQf-139" value="" style="shape=cube;whiteSpace=wrap;html=1;boundedLbl=1;backgroundOutline=1;darkOpacity=0.05;darkOpacity2=0.1;size=6;fillColor=#FFB570;aspect=fixed;" parent="_1kocXs8016OxGvP9XQf-156" vertex="1">
          <mxGeometry x="41.33850505050513" y="4.256177038467235" width="14.386709721786191" height="13.840014752358314" as="geometry" />
        </mxCell>
        <mxCell id="_1kocXs8016OxGvP9XQf-140" value="" style="shape=cube;whiteSpace=wrap;html=1;boundedLbl=1;backgroundOutline=1;darkOpacity=0.05;darkOpacity2=0.1;size=6;aspect=fixed;" parent="_1kocXs8016OxGvP9XQf-156" vertex="1">
          <mxGeometry x="46.65779797979805" y="8.62555027476607" width="14.386709721786191" height="13.840014752358314" as="geometry" />
        </mxCell>
        <mxCell id="_1kocXs8016OxGvP9XQf-141" value="" style="shape=cube;whiteSpace=wrap;html=1;boundedLbl=1;backgroundOutline=1;darkOpacity=0.05;darkOpacity2=0.1;size=6;fillColor=#67AB9F;aspect=fixed;" parent="_1kocXs8016OxGvP9XQf-156" vertex="1">
          <mxGeometry x="23.860828282828354" y="0.10564978464279366" width="14.386709721786191" height="13.840014752358314" as="geometry" />
        </mxCell>
        <mxCell id="_1kocXs8016OxGvP9XQf-142" value="" style="shape=cube;whiteSpace=wrap;html=1;boundedLbl=1;backgroundOutline=1;darkOpacity=0.05;darkOpacity2=0.1;size=6;fillColor=#FFB570;aspect=fixed;" parent="_1kocXs8016OxGvP9XQf-156" vertex="1">
          <mxGeometry x="29.332101010100942" y="4.256177038467235" width="14.386709721786191" height="13.840014752358314" as="geometry" />
        </mxCell>
        <mxCell id="_1kocXs8016OxGvP9XQf-143" value="" style="shape=cube;whiteSpace=wrap;html=1;boundedLbl=1;backgroundOutline=1;darkOpacity=0.05;darkOpacity2=0.1;size=6;aspect=fixed;" parent="_1kocXs8016OxGvP9XQf-156" vertex="1">
          <mxGeometry x="34.65139393939388" y="8.62555027476607" width="14.386709721786191" height="13.840014752358314" as="geometry" />
        </mxCell>
        <mxCell id="_1kocXs8016OxGvP9XQf-144" value="" style="shape=cube;whiteSpace=wrap;html=1;boundedLbl=1;backgroundOutline=1;darkOpacity=0.05;darkOpacity2=0.1;size=6;fillColor=#67AB9F;aspect=fixed;" parent="_1kocXs8016OxGvP9XQf-156" vertex="1">
          <mxGeometry x="12.918282828282829" y="0.10564978464279366" width="14.386709721786191" height="13.840014752358314" as="geometry" />
        </mxCell>
        <mxCell id="_1kocXs8016OxGvP9XQf-145" value="" style="shape=cube;whiteSpace=wrap;html=1;boundedLbl=1;backgroundOutline=1;darkOpacity=0.05;darkOpacity2=0.1;size=6;fillColor=#A9C4EB;aspect=fixed;" parent="_1kocXs8016OxGvP9XQf-156" vertex="1">
          <mxGeometry x="17.6296565656566" y="4.256177038467235" width="14.386709721786191" height="13.840014752358314" as="geometry" />
        </mxCell>
        <mxCell id="_1kocXs8016OxGvP9XQf-146" value="" style="shape=cube;whiteSpace=wrap;html=1;boundedLbl=1;backgroundOutline=1;darkOpacity=0.05;darkOpacity2=0.1;size=6;fillColor=#A9C4EB;aspect=fixed;" parent="_1kocXs8016OxGvP9XQf-156" vertex="1">
          <mxGeometry x="22.948949494949357" y="8.62555027476607" width="14.386709721786191" height="13.840014752358314" as="geometry" />
        </mxCell>
        <mxCell id="_1kocXs8016OxGvP9XQf-147" value="" style="shape=cube;whiteSpace=wrap;html=1;boundedLbl=1;backgroundOutline=1;darkOpacity=0.05;darkOpacity2=0.1;size=6;fillColor=#67AB9F;aspect=fixed;" parent="_1kocXs8016OxGvP9XQf-156" vertex="1">
          <mxGeometry x="1.6717777777778124" y="0.10564978464279366" width="14.386709721786191" height="13.840014752358314" as="geometry" />
        </mxCell>
        <mxCell id="_1kocXs8016OxGvP9XQf-148" value="" style="shape=cube;whiteSpace=wrap;html=1;boundedLbl=1;backgroundOutline=1;darkOpacity=0.05;darkOpacity2=0.1;size=6;fillColor=#A9C4EB;aspect=fixed;" parent="_1kocXs8016OxGvP9XQf-156" vertex="1">
          <mxGeometry x="6.383151515151585" y="4.256177038467235" width="14.386709721786191" height="13.840014752358314" as="geometry" />
        </mxCell>
        <mxCell id="_1kocXs8016OxGvP9XQf-155" value="" style="shape=cube;whiteSpace=wrap;html=1;boundedLbl=1;backgroundOutline=1;darkOpacity=0.05;darkOpacity2=0.1;size=6;fillColor=#A9C4EB;aspect=fixed;" parent="_1kocXs8016OxGvP9XQf-156" vertex="1">
          <mxGeometry x="10.942545454545524" y="8.784024951730261" width="14.386709721786191" height="13.840014752358314" as="geometry" />
        </mxCell>
        <mxCell id="7pugg50jkRx0BBcVPbMS-1" value="" style="shape=cube;whiteSpace=wrap;html=1;boundedLbl=1;backgroundOutline=1;darkOpacity=0.05;darkOpacity2=0.1;size=6;fillColor=#FFB570;aspect=fixed;" parent="1" vertex="1">
          <mxGeometry x="2728.92" y="-109.14" width="20.79" height="20" as="geometry" />
        </mxCell>
        <mxCell id="7pugg50jkRx0BBcVPbMS-2" value="" style="shape=cube;whiteSpace=wrap;html=1;boundedLbl=1;backgroundOutline=1;darkOpacity=0.05;darkOpacity2=0.1;size=6;fillColor=#67AB9F;aspect=fixed;" parent="1" vertex="1">
          <mxGeometry x="2710.01" y="-109.14" width="20.79" height="20" as="geometry" />
        </mxCell>
        <mxCell id="7pugg50jkRx0BBcVPbMS-22" value="" style="shape=cube;whiteSpace=wrap;html=1;boundedLbl=1;backgroundOutline=1;darkOpacity=0.05;darkOpacity2=0.1;size=6;fillColor=#A9C4EB;aspect=fixed;" parent="1" vertex="1">
          <mxGeometry x="2690.69" y="-109.14" width="20.79" height="20" as="geometry" />
        </mxCell>
        <mxCell id="6Nv2sgZuV1dzqbvO0ICD-1" value="" style="shape=cube;whiteSpace=wrap;html=1;boundedLbl=1;backgroundOutline=1;darkOpacity=0.05;darkOpacity2=0.1;" parent="1" vertex="1">
          <mxGeometry x="2690.68" y="10" width="80" height="30" as="geometry" />
        </mxCell>
        <mxCell id="6Nv2sgZuV1dzqbvO0ICD-2" value="" style="shape=cube;whiteSpace=wrap;html=1;boundedLbl=1;backgroundOutline=1;darkOpacity=0.05;darkOpacity2=0.1;size=20;fillColor=#A9C4EB;" parent="1" vertex="1">
          <mxGeometry x="2690.6899999999996" width="80" height="30" as="geometry" />
        </mxCell>
        <mxCell id="6Nv2sgZuV1dzqbvO0ICD-3" value="" style="shape=cube;whiteSpace=wrap;html=1;boundedLbl=1;backgroundOutline=1;darkOpacity=0.05;darkOpacity2=0.1;size=20;fillColor=#A9C4EB;" parent="1" vertex="1">
          <mxGeometry x="2690.68" y="-51.75" width="80" height="30" as="geometry" />
        </mxCell>
        <mxCell id="WvtxnRwSr4wazI9uZ_7g-1" value="" style="shape=cube;whiteSpace=wrap;html=1;boundedLbl=1;backgroundOutline=1;darkOpacity=0.05;darkOpacity2=0.1;" parent="1" vertex="1">
          <mxGeometry x="2505" y="262.73" width="80" height="30" as="geometry" />
        </mxCell>
        <mxCell id="WvtxnRwSr4wazI9uZ_7g-2" value="" style="shape=cube;whiteSpace=wrap;html=1;boundedLbl=1;backgroundOutline=1;darkOpacity=0.05;darkOpacity2=0.1;" parent="1" vertex="1">
          <mxGeometry x="2505" y="252.73000000000002" width="80" height="30" as="geometry" />
        </mxCell>
        <mxCell id="WvtxnRwSr4wazI9uZ_7g-3" value="" style="shape=cube;whiteSpace=wrap;html=1;boundedLbl=1;backgroundOutline=1;darkOpacity=0.05;darkOpacity2=0.1;" parent="1" vertex="1">
          <mxGeometry x="2505" y="242.73000000000002" width="80" height="30" as="geometry" />
        </mxCell>
        <mxCell id="WvtxnRwSr4wazI9uZ_7g-17" value="" style="group" parent="1" vertex="1" connectable="0">
          <mxGeometry x="2504.9999999999995" y="182.73000000000002" width="71.08000000000084" height="29.06" as="geometry" />
        </mxCell>
        <mxCell id="WvtxnRwSr4wazI9uZ_7g-5" value="" style="shape=cube;whiteSpace=wrap;html=1;boundedLbl=1;backgroundOutline=1;darkOpacity=0.05;darkOpacity2=0.1;size=5;aspect=fixed;fillColor=#FF3333;" parent="WvtxnRwSr4wazI9uZ_7g-17" vertex="1">
          <mxGeometry x="41.46000000000049" width="15.8" height="15.2" as="geometry" />
        </mxCell>
        <mxCell id="WvtxnRwSr4wazI9uZ_7g-6" value="" style="shape=cube;whiteSpace=wrap;html=1;boundedLbl=1;backgroundOutline=1;darkOpacity=0.05;darkOpacity2=0.1;size=5;aspect=fixed;fillColor=#FF3333;" parent="WvtxnRwSr4wazI9uZ_7g-17" vertex="1">
          <mxGeometry x="48.46000000000049" y="7" width="15.8" height="15.2" as="geometry" />
        </mxCell>
        <mxCell id="WvtxnRwSr4wazI9uZ_7g-7" value="" style="shape=cube;whiteSpace=wrap;html=1;boundedLbl=1;backgroundOutline=1;darkOpacity=0.05;darkOpacity2=0.1;size=5;aspect=fixed;fillColor=#FFA955;" parent="WvtxnRwSr4wazI9uZ_7g-17" vertex="1">
          <mxGeometry x="55.280000000000655" y="13.719999999999999" width="15.8" height="15.2" as="geometry" />
        </mxCell>
        <mxCell id="WvtxnRwSr4wazI9uZ_7g-8" value="" style="shape=cube;whiteSpace=wrap;html=1;boundedLbl=1;backgroundOutline=1;darkOpacity=0.05;darkOpacity2=0.1;size=5;aspect=fixed;fillColor=#FF3333;" parent="WvtxnRwSr4wazI9uZ_7g-17" vertex="1">
          <mxGeometry x="27.640000000000327" width="15.8" height="15.2" as="geometry" />
        </mxCell>
        <mxCell id="WvtxnRwSr4wazI9uZ_7g-9" value="" style="shape=cube;whiteSpace=wrap;html=1;boundedLbl=1;backgroundOutline=1;darkOpacity=0.05;darkOpacity2=0.1;size=5;aspect=fixed;fillColor=#FF3333;" parent="WvtxnRwSr4wazI9uZ_7g-17" vertex="1">
          <mxGeometry x="34.64000000000033" y="7" width="15.8" height="15.2" as="geometry" />
        </mxCell>
        <mxCell id="WvtxnRwSr4wazI9uZ_7g-10" value="" style="shape=cube;whiteSpace=wrap;html=1;boundedLbl=1;backgroundOutline=1;darkOpacity=0.05;darkOpacity2=0.1;size=5;aspect=fixed;fillColor=#FFA955;" parent="WvtxnRwSr4wazI9uZ_7g-17" vertex="1">
          <mxGeometry x="41.46000000000049" y="13.719999999999999" width="15.8" height="15.2" as="geometry" />
        </mxCell>
        <mxCell id="WvtxnRwSr4wazI9uZ_7g-11" value="" style="shape=cube;whiteSpace=wrap;html=1;boundedLbl=1;backgroundOutline=1;darkOpacity=0.05;darkOpacity2=0.1;size=5;aspect=fixed;fillColor=#FF3333;" parent="WvtxnRwSr4wazI9uZ_7g-17" vertex="1">
          <mxGeometry x="13.820000000000164" width="15.8" height="15.2" as="geometry" />
        </mxCell>
        <mxCell id="WvtxnRwSr4wazI9uZ_7g-12" value="" style="shape=cube;whiteSpace=wrap;html=1;boundedLbl=1;backgroundOutline=1;darkOpacity=0.05;darkOpacity2=0.1;size=5;aspect=fixed;fillColor=#FFD63A;" parent="WvtxnRwSr4wazI9uZ_7g-17" vertex="1">
          <mxGeometry x="20.820000000000164" y="7" width="15.8" height="15.2" as="geometry" />
        </mxCell>
        <mxCell id="WvtxnRwSr4wazI9uZ_7g-13" value="" style="shape=cube;whiteSpace=wrap;html=1;boundedLbl=1;backgroundOutline=1;darkOpacity=0.05;darkOpacity2=0.1;size=5;aspect=fixed;fillColor=#FFA955;" parent="WvtxnRwSr4wazI9uZ_7g-17" vertex="1">
          <mxGeometry x="27.640000000000327" y="13.719999999999999" width="15.8" height="15.2" as="geometry" />
        </mxCell>
        <mxCell id="WvtxnRwSr4wazI9uZ_7g-14" value="" style="shape=cube;whiteSpace=wrap;html=1;boundedLbl=1;backgroundOutline=1;darkOpacity=0.05;darkOpacity2=0.1;size=5;aspect=fixed;fillColor=#FF3333;" parent="WvtxnRwSr4wazI9uZ_7g-17" vertex="1">
          <mxGeometry y="0.14000000000000057" width="15.8" height="15.2" as="geometry" />
        </mxCell>
        <mxCell id="WvtxnRwSr4wazI9uZ_7g-15" value="" style="shape=cube;whiteSpace=wrap;html=1;boundedLbl=1;backgroundOutline=1;darkOpacity=0.05;darkOpacity2=0.1;size=5;aspect=fixed;fillColor=#FFD63A;" parent="WvtxnRwSr4wazI9uZ_7g-17" vertex="1">
          <mxGeometry x="7" y="7.140000000000001" width="15.8" height="15.2" as="geometry" />
        </mxCell>
        <mxCell id="WvtxnRwSr4wazI9uZ_7g-16" value="" style="shape=cube;whiteSpace=wrap;html=1;boundedLbl=1;backgroundOutline=1;darkOpacity=0.05;darkOpacity2=0.1;size=5;aspect=fixed;fillColor=#FFA955;" parent="WvtxnRwSr4wazI9uZ_7g-17" vertex="1">
          <mxGeometry x="13.820000000000164" y="13.86" width="15.8" height="15.2" as="geometry" />
        </mxCell>
        <mxCell id="WvtxnRwSr4wazI9uZ_7g-65" value="" style="group" parent="1" vertex="1" connectable="0">
          <mxGeometry x="2869.43" y="-151" width="32.210000000000036" height="46.179999999999836" as="geometry" />
        </mxCell>
        <mxCell id="WvtxnRwSr4wazI9uZ_7g-18" value="" style="rounded=0;whiteSpace=wrap;html=1;gradientColor=none;fillColor=#ffcc99;rotation=90;" parent="WvtxnRwSr4wazI9uZ_7g-65" vertex="1">
          <mxGeometry x="10.580000000000155" y="-10.5" width="11" height="32" as="geometry" />
        </mxCell>
        <mxCell id="WvtxnRwSr4wazI9uZ_7g-19" value="" style="rounded=0;whiteSpace=wrap;html=1;gradientColor=none;fillColor=#ffcc99;rotation=90;" parent="WvtxnRwSr4wazI9uZ_7g-65" vertex="1">
          <mxGeometry x="17.610000000000127" y="8.739999999999782" width="12" height="17" as="geometry" />
        </mxCell>
        <mxCell id="WvtxnRwSr4wazI9uZ_7g-20" value="" style="rounded=0;whiteSpace=wrap;html=1;gradientColor=none;fillColor=#ffcc99;rotation=90;strokeColor=none;" parent="WvtxnRwSr4wazI9uZ_7g-65" vertex="1">
          <mxGeometry x="18.110000000000127" y="3.8599999999999" width="10.96" height="16" as="geometry" />
        </mxCell>
        <mxCell id="WvtxnRwSr4wazI9uZ_7g-21" value="" style="rounded=0;whiteSpace=wrap;html=1;gradientColor=none;fillColor=#eaffbd;rotation=90;" parent="WvtxnRwSr4wazI9uZ_7g-65" vertex="1">
          <mxGeometry x="1.8099999999999454" y="10.049999999999955" width="11.96" height="15.4" as="geometry" />
        </mxCell>
        <mxCell id="WvtxnRwSr4wazI9uZ_7g-22" value="" style="rounded=0;whiteSpace=wrap;html=1;gradientColor=none;fillColor=#9999FF;rotation=90;" parent="WvtxnRwSr4wazI9uZ_7g-65" vertex="1">
          <mxGeometry x="4.710000000000036" y="18.679999999999836" width="23" height="32" as="geometry" />
        </mxCell>
        <mxCell id="WvtxnRwSr4wazI9uZ_7g-23" style="rounded=0;orthogonalLoop=1;jettySize=auto;html=1;exitX=1;exitY=0.5;exitDx=0;exitDy=0;entryX=0;entryY=0.5;entryDx=0;entryDy=0;endArrow=none;endFill=0;" parent="WvtxnRwSr4wazI9uZ_7g-65" source="WvtxnRwSr4wazI9uZ_7g-27" target="WvtxnRwSr4wazI9uZ_7g-40" edge="1">
          <mxGeometry relative="1" as="geometry" />
        </mxCell>
        <mxCell id="WvtxnRwSr4wazI9uZ_7g-24" style="edgeStyle=none;rounded=0;orthogonalLoop=1;jettySize=auto;html=1;exitX=1;exitY=0.5;exitDx=0;exitDy=0;entryX=0;entryY=0.5;entryDx=0;entryDy=0;endArrow=none;endFill=0;" parent="WvtxnRwSr4wazI9uZ_7g-65" source="WvtxnRwSr4wazI9uZ_7g-27" target="WvtxnRwSr4wazI9uZ_7g-64" edge="1">
          <mxGeometry relative="1" as="geometry" />
        </mxCell>
        <mxCell id="WvtxnRwSr4wazI9uZ_7g-25" style="edgeStyle=none;rounded=0;orthogonalLoop=1;jettySize=auto;html=1;exitX=1;exitY=0.5;exitDx=0;exitDy=0;entryX=0;entryY=0.5;entryDx=0;entryDy=0;endArrow=none;endFill=0;" parent="WvtxnRwSr4wazI9uZ_7g-65" source="WvtxnRwSr4wazI9uZ_7g-27" target="WvtxnRwSr4wazI9uZ_7g-47" edge="1">
          <mxGeometry relative="1" as="geometry" />
        </mxCell>
        <mxCell id="WvtxnRwSr4wazI9uZ_7g-26" style="edgeStyle=none;rounded=0;orthogonalLoop=1;jettySize=auto;html=1;exitX=1;exitY=0.5;exitDx=0;exitDy=0;entryX=0;entryY=0.5;entryDx=0;entryDy=0;endArrow=none;endFill=0;" parent="WvtxnRwSr4wazI9uZ_7g-65" source="WvtxnRwSr4wazI9uZ_7g-27" target="WvtxnRwSr4wazI9uZ_7g-51" edge="1">
          <mxGeometry relative="1" as="geometry" />
        </mxCell>
        <mxCell id="WvtxnRwSr4wazI9uZ_7g-27" value="" style="ellipse;whiteSpace=wrap;html=1;aspect=fixed;rotation=90;" parent="WvtxnRwSr4wazI9uZ_7g-65" vertex="1">
          <mxGeometry x="20.079999999999927" y="1.7499999999997726" width="6" height="6" as="geometry" />
        </mxCell>
        <mxCell id="WvtxnRwSr4wazI9uZ_7g-28" style="edgeStyle=none;rounded=0;orthogonalLoop=1;jettySize=auto;html=1;exitX=1;exitY=0.5;exitDx=0;exitDy=0;entryX=0;entryY=0.5;entryDx=0;entryDy=0;endArrow=none;endFill=0;" parent="WvtxnRwSr4wazI9uZ_7g-65" source="WvtxnRwSr4wazI9uZ_7g-31" target="WvtxnRwSr4wazI9uZ_7g-64" edge="1">
          <mxGeometry relative="1" as="geometry" />
        </mxCell>
        <mxCell id="WvtxnRwSr4wazI9uZ_7g-29" style="edgeStyle=none;rounded=0;orthogonalLoop=1;jettySize=auto;html=1;exitX=1;exitY=0.5;exitDx=0;exitDy=0;entryX=0;entryY=0.5;entryDx=0;entryDy=0;endArrow=none;endFill=0;" parent="WvtxnRwSr4wazI9uZ_7g-65" source="WvtxnRwSr4wazI9uZ_7g-31" target="WvtxnRwSr4wazI9uZ_7g-47" edge="1">
          <mxGeometry relative="1" as="geometry" />
        </mxCell>
        <mxCell id="WvtxnRwSr4wazI9uZ_7g-30" style="edgeStyle=none;rounded=0;orthogonalLoop=1;jettySize=auto;html=1;exitX=1;exitY=0.5;exitDx=0;exitDy=0;entryX=0;entryY=0.5;entryDx=0;entryDy=0;endArrow=none;endFill=0;" parent="WvtxnRwSr4wazI9uZ_7g-65" source="WvtxnRwSr4wazI9uZ_7g-31" target="WvtxnRwSr4wazI9uZ_7g-51" edge="1">
          <mxGeometry relative="1" as="geometry" />
        </mxCell>
        <mxCell id="WvtxnRwSr4wazI9uZ_7g-31" value="" style="ellipse;whiteSpace=wrap;html=1;aspect=fixed;rotation=90;" parent="WvtxnRwSr4wazI9uZ_7g-65" vertex="1">
          <mxGeometry x="11" y="1.7499999999997726" width="6" height="6" as="geometry" />
        </mxCell>
        <mxCell id="WvtxnRwSr4wazI9uZ_7g-32" style="edgeStyle=none;rounded=0;orthogonalLoop=1;jettySize=auto;html=1;exitX=1;exitY=0.5;exitDx=0;exitDy=0;entryX=0;entryY=0.5;entryDx=0;entryDy=0;endArrow=none;endFill=0;" parent="WvtxnRwSr4wazI9uZ_7g-65" source="WvtxnRwSr4wazI9uZ_7g-36" target="WvtxnRwSr4wazI9uZ_7g-40" edge="1">
          <mxGeometry relative="1" as="geometry" />
        </mxCell>
        <mxCell id="WvtxnRwSr4wazI9uZ_7g-33" style="edgeStyle=none;rounded=0;orthogonalLoop=1;jettySize=auto;html=1;exitX=1;exitY=0.5;exitDx=0;exitDy=0;entryX=0;entryY=0.5;entryDx=0;entryDy=0;endArrow=none;endFill=0;" parent="WvtxnRwSr4wazI9uZ_7g-65" source="WvtxnRwSr4wazI9uZ_7g-36" target="WvtxnRwSr4wazI9uZ_7g-64" edge="1">
          <mxGeometry relative="1" as="geometry" />
        </mxCell>
        <mxCell id="WvtxnRwSr4wazI9uZ_7g-34" style="edgeStyle=none;rounded=0;orthogonalLoop=1;jettySize=auto;html=1;exitX=1;exitY=0.5;exitDx=0;exitDy=0;entryX=0;entryY=0.5;entryDx=0;entryDy=0;endArrow=none;endFill=0;" parent="WvtxnRwSr4wazI9uZ_7g-65" source="WvtxnRwSr4wazI9uZ_7g-36" target="WvtxnRwSr4wazI9uZ_7g-47" edge="1">
          <mxGeometry relative="1" as="geometry" />
        </mxCell>
        <mxCell id="WvtxnRwSr4wazI9uZ_7g-35" style="edgeStyle=none;rounded=0;orthogonalLoop=1;jettySize=auto;html=1;exitX=1;exitY=0.5;exitDx=0;exitDy=0;entryX=0;entryY=0.5;entryDx=0;entryDy=0;endArrow=none;endFill=0;" parent="WvtxnRwSr4wazI9uZ_7g-65" source="WvtxnRwSr4wazI9uZ_7g-36" target="WvtxnRwSr4wazI9uZ_7g-51" edge="1">
          <mxGeometry relative="1" as="geometry" />
        </mxCell>
        <mxCell id="WvtxnRwSr4wazI9uZ_7g-36" value="" style="ellipse;whiteSpace=wrap;html=1;aspect=fixed;rotation=90;" parent="WvtxnRwSr4wazI9uZ_7g-65" vertex="1">
          <mxGeometry x="2" y="1.7499999999997726" width="6" height="6" as="geometry" />
        </mxCell>
        <mxCell id="WvtxnRwSr4wazI9uZ_7g-37" style="edgeStyle=none;rounded=0;orthogonalLoop=1;jettySize=auto;html=1;exitX=1;exitY=0.5;exitDx=0;exitDy=0;entryX=0;entryY=0.5;entryDx=0;entryDy=0;endArrow=none;endFill=0;" parent="WvtxnRwSr4wazI9uZ_7g-65" source="WvtxnRwSr4wazI9uZ_7g-40" target="WvtxnRwSr4wazI9uZ_7g-54" edge="1">
          <mxGeometry relative="1" as="geometry" />
        </mxCell>
        <mxCell id="WvtxnRwSr4wazI9uZ_7g-38" style="edgeStyle=none;rounded=0;orthogonalLoop=1;jettySize=auto;html=1;exitX=1;exitY=0.5;exitDx=0;exitDy=0;entryX=0;entryY=0.5;entryDx=0;entryDy=0;endArrow=none;endFill=0;" parent="WvtxnRwSr4wazI9uZ_7g-65" source="WvtxnRwSr4wazI9uZ_7g-40" target="WvtxnRwSr4wazI9uZ_7g-57" edge="1">
          <mxGeometry relative="1" as="geometry" />
        </mxCell>
        <mxCell id="WvtxnRwSr4wazI9uZ_7g-39" style="edgeStyle=none;rounded=0;orthogonalLoop=1;jettySize=auto;html=1;exitX=1;exitY=0.5;exitDx=0;exitDy=0;entryX=0;entryY=0.5;entryDx=0;entryDy=0;endArrow=none;endFill=0;" parent="WvtxnRwSr4wazI9uZ_7g-65" source="WvtxnRwSr4wazI9uZ_7g-40" target="WvtxnRwSr4wazI9uZ_7g-60" edge="1">
          <mxGeometry relative="1" as="geometry" />
        </mxCell>
        <mxCell id="WvtxnRwSr4wazI9uZ_7g-40" value="" style="ellipse;whiteSpace=wrap;html=1;aspect=fixed;rotation=90;" parent="WvtxnRwSr4wazI9uZ_7g-65" vertex="1">
          <mxGeometry x="25.079999999999927" y="13.529999999999745" width="6" height="6" as="geometry" />
        </mxCell>
        <mxCell id="WvtxnRwSr4wazI9uZ_7g-41" style="edgeStyle=none;rounded=0;orthogonalLoop=1;jettySize=auto;html=1;exitX=1;exitY=0.5;exitDx=0;exitDy=0;entryX=0;entryY=0.5;entryDx=0;entryDy=0;endArrow=none;endFill=0;" parent="WvtxnRwSr4wazI9uZ_7g-65" source="WvtxnRwSr4wazI9uZ_7g-64" target="WvtxnRwSr4wazI9uZ_7g-54" edge="1">
          <mxGeometry relative="1" as="geometry" />
        </mxCell>
        <mxCell id="WvtxnRwSr4wazI9uZ_7g-42" style="edgeStyle=none;rounded=0;orthogonalLoop=1;jettySize=auto;html=1;exitX=1;exitY=0.5;exitDx=0;exitDy=0;entryX=0;entryY=0.5;entryDx=0;entryDy=0;endArrow=none;endFill=0;" parent="WvtxnRwSr4wazI9uZ_7g-65" source="WvtxnRwSr4wazI9uZ_7g-64" target="WvtxnRwSr4wazI9uZ_7g-57" edge="1">
          <mxGeometry relative="1" as="geometry" />
        </mxCell>
        <mxCell id="WvtxnRwSr4wazI9uZ_7g-43" style="edgeStyle=none;rounded=0;orthogonalLoop=1;jettySize=auto;html=1;exitX=1;exitY=0.5;exitDx=0;exitDy=0;entryX=0;entryY=0.5;entryDx=0;entryDy=0;endArrow=none;endFill=0;" parent="WvtxnRwSr4wazI9uZ_7g-65" source="WvtxnRwSr4wazI9uZ_7g-64" target="WvtxnRwSr4wazI9uZ_7g-60" edge="1">
          <mxGeometry relative="1" as="geometry" />
        </mxCell>
        <mxCell id="WvtxnRwSr4wazI9uZ_7g-44" style="edgeStyle=none;rounded=0;orthogonalLoop=1;jettySize=auto;html=1;exitX=1;exitY=0.5;exitDx=0;exitDy=0;entryX=0;entryY=0.5;entryDx=0;entryDy=0;endArrow=none;endFill=0;" parent="WvtxnRwSr4wazI9uZ_7g-65" source="WvtxnRwSr4wazI9uZ_7g-47" target="WvtxnRwSr4wazI9uZ_7g-54" edge="1">
          <mxGeometry relative="1" as="geometry" />
        </mxCell>
        <mxCell id="WvtxnRwSr4wazI9uZ_7g-45" style="edgeStyle=none;rounded=0;orthogonalLoop=1;jettySize=auto;html=1;exitX=1;exitY=0.5;exitDx=0;exitDy=0;entryX=0;entryY=0.5;entryDx=0;entryDy=0;endArrow=none;endFill=0;" parent="WvtxnRwSr4wazI9uZ_7g-65" source="WvtxnRwSr4wazI9uZ_7g-47" target="WvtxnRwSr4wazI9uZ_7g-57" edge="1">
          <mxGeometry relative="1" as="geometry" />
        </mxCell>
        <mxCell id="WvtxnRwSr4wazI9uZ_7g-46" style="edgeStyle=none;rounded=0;orthogonalLoop=1;jettySize=auto;html=1;exitX=1;exitY=0.5;exitDx=0;exitDy=0;entryX=0;entryY=0.5;entryDx=0;entryDy=0;endArrow=none;endFill=0;" parent="WvtxnRwSr4wazI9uZ_7g-65" source="WvtxnRwSr4wazI9uZ_7g-47" target="WvtxnRwSr4wazI9uZ_7g-60" edge="1">
          <mxGeometry relative="1" as="geometry" />
        </mxCell>
        <mxCell id="WvtxnRwSr4wazI9uZ_7g-47" value="" style="ellipse;whiteSpace=wrap;html=1;aspect=fixed;rotation=90;" parent="WvtxnRwSr4wazI9uZ_7g-65" vertex="1">
          <mxGeometry x="8" y="13.879999999999654" width="6" height="6" as="geometry" />
        </mxCell>
        <mxCell id="WvtxnRwSr4wazI9uZ_7g-48" style="edgeStyle=none;rounded=0;orthogonalLoop=1;jettySize=auto;html=1;exitX=1;exitY=0.5;exitDx=0;exitDy=0;entryX=0;entryY=0.5;entryDx=0;entryDy=0;endArrow=none;endFill=0;" parent="WvtxnRwSr4wazI9uZ_7g-65" source="WvtxnRwSr4wazI9uZ_7g-51" target="WvtxnRwSr4wazI9uZ_7g-54" edge="1">
          <mxGeometry relative="1" as="geometry" />
        </mxCell>
        <mxCell id="WvtxnRwSr4wazI9uZ_7g-49" style="edgeStyle=none;rounded=0;orthogonalLoop=1;jettySize=auto;html=1;exitX=1;exitY=0.5;exitDx=0;exitDy=0;entryX=0;entryY=0.5;entryDx=0;entryDy=0;endArrow=none;endFill=0;" parent="WvtxnRwSr4wazI9uZ_7g-65" source="WvtxnRwSr4wazI9uZ_7g-51" target="WvtxnRwSr4wazI9uZ_7g-57" edge="1">
          <mxGeometry relative="1" as="geometry" />
        </mxCell>
        <mxCell id="WvtxnRwSr4wazI9uZ_7g-50" style="edgeStyle=none;rounded=0;orthogonalLoop=1;jettySize=auto;html=1;exitX=1;exitY=0.5;exitDx=0;exitDy=0;entryX=0;entryY=0.5;entryDx=0;entryDy=0;endArrow=none;endFill=0;" parent="WvtxnRwSr4wazI9uZ_7g-65" source="WvtxnRwSr4wazI9uZ_7g-51" target="WvtxnRwSr4wazI9uZ_7g-60" edge="1">
          <mxGeometry relative="1" as="geometry" />
        </mxCell>
        <mxCell id="WvtxnRwSr4wazI9uZ_7g-51" value="" style="ellipse;whiteSpace=wrap;html=1;aspect=fixed;rotation=90;" parent="WvtxnRwSr4wazI9uZ_7g-65" vertex="1">
          <mxGeometry y="13.879999999999654" width="6" height="6" as="geometry" />
        </mxCell>
        <mxCell id="WvtxnRwSr4wazI9uZ_7g-52" style="edgeStyle=none;rounded=0;orthogonalLoop=1;jettySize=auto;html=1;exitX=1;exitY=0.5;exitDx=0;exitDy=0;entryX=0;entryY=0.5;entryDx=0;entryDy=0;endArrow=none;endFill=0;" parent="WvtxnRwSr4wazI9uZ_7g-65" source="WvtxnRwSr4wazI9uZ_7g-54" target="WvtxnRwSr4wazI9uZ_7g-61" edge="1">
          <mxGeometry relative="1" as="geometry" />
        </mxCell>
        <mxCell id="WvtxnRwSr4wazI9uZ_7g-53" style="edgeStyle=none;rounded=0;orthogonalLoop=1;jettySize=auto;html=1;exitX=1;exitY=0.5;exitDx=0;exitDy=0;entryX=0;entryY=0.5;entryDx=0;entryDy=0;endArrow=none;endFill=0;" parent="WvtxnRwSr4wazI9uZ_7g-65" source="WvtxnRwSr4wazI9uZ_7g-54" target="WvtxnRwSr4wazI9uZ_7g-62" edge="1">
          <mxGeometry relative="1" as="geometry" />
        </mxCell>
        <mxCell id="WvtxnRwSr4wazI9uZ_7g-54" value="" style="ellipse;whiteSpace=wrap;html=1;aspect=fixed;rotation=90;" parent="WvtxnRwSr4wazI9uZ_7g-65" vertex="1">
          <mxGeometry x="21.519999999999982" y="26.5" width="6" height="6" as="geometry" />
        </mxCell>
        <mxCell id="WvtxnRwSr4wazI9uZ_7g-55" style="edgeStyle=none;rounded=0;orthogonalLoop=1;jettySize=auto;html=1;exitX=1;exitY=0.5;exitDx=0;exitDy=0;entryX=0;entryY=0.5;entryDx=0;entryDy=0;endArrow=none;endFill=0;" parent="WvtxnRwSr4wazI9uZ_7g-65" source="WvtxnRwSr4wazI9uZ_7g-57" target="WvtxnRwSr4wazI9uZ_7g-61" edge="1">
          <mxGeometry relative="1" as="geometry" />
        </mxCell>
        <mxCell id="WvtxnRwSr4wazI9uZ_7g-56" style="edgeStyle=none;rounded=0;orthogonalLoop=1;jettySize=auto;html=1;exitX=1;exitY=0.5;exitDx=0;exitDy=0;entryX=0;entryY=0.5;entryDx=0;entryDy=0;endArrow=none;endFill=0;" parent="WvtxnRwSr4wazI9uZ_7g-65" source="WvtxnRwSr4wazI9uZ_7g-57" target="WvtxnRwSr4wazI9uZ_7g-62" edge="1">
          <mxGeometry relative="1" as="geometry" />
        </mxCell>
        <mxCell id="WvtxnRwSr4wazI9uZ_7g-57" value="" style="ellipse;whiteSpace=wrap;html=1;aspect=fixed;rotation=90;" parent="WvtxnRwSr4wazI9uZ_7g-65" vertex="1">
          <mxGeometry x="13.079999999999927" y="26.499999999999773" width="6" height="6" as="geometry" />
        </mxCell>
        <mxCell id="WvtxnRwSr4wazI9uZ_7g-58" style="edgeStyle=none;rounded=0;orthogonalLoop=1;jettySize=auto;html=1;exitX=1;exitY=0.5;exitDx=0;exitDy=0;entryX=0;entryY=0.5;entryDx=0;entryDy=0;endArrow=none;endFill=0;" parent="WvtxnRwSr4wazI9uZ_7g-65" source="WvtxnRwSr4wazI9uZ_7g-60" target="WvtxnRwSr4wazI9uZ_7g-61" edge="1">
          <mxGeometry relative="1" as="geometry" />
        </mxCell>
        <mxCell id="WvtxnRwSr4wazI9uZ_7g-59" style="edgeStyle=none;rounded=0;orthogonalLoop=1;jettySize=auto;html=1;exitX=1;exitY=0.5;exitDx=0;exitDy=0;entryX=0;entryY=0.5;entryDx=0;entryDy=0;endArrow=none;endFill=0;" parent="WvtxnRwSr4wazI9uZ_7g-65" source="WvtxnRwSr4wazI9uZ_7g-60" target="WvtxnRwSr4wazI9uZ_7g-62" edge="1">
          <mxGeometry relative="1" as="geometry" />
        </mxCell>
        <mxCell id="WvtxnRwSr4wazI9uZ_7g-60" value="" style="ellipse;whiteSpace=wrap;html=1;aspect=fixed;rotation=90;" parent="WvtxnRwSr4wazI9uZ_7g-65" vertex="1">
          <mxGeometry x="4.519999999999982" y="26.499999999999773" width="6" height="6" as="geometry" />
        </mxCell>
        <mxCell id="WvtxnRwSr4wazI9uZ_7g-61" value="" style="ellipse;whiteSpace=wrap;html=1;aspect=fixed;rotation=90;" parent="WvtxnRwSr4wazI9uZ_7g-65" vertex="1">
          <mxGeometry x="17.75" y="38.06999999999971" width="6" height="6" as="geometry" />
        </mxCell>
        <mxCell id="WvtxnRwSr4wazI9uZ_7g-62" value="" style="ellipse;whiteSpace=wrap;html=1;aspect=fixed;rotation=90;" parent="WvtxnRwSr4wazI9uZ_7g-65" vertex="1">
          <mxGeometry x="9.039999999999964" y="38.06999999999948" width="6" height="6" as="geometry" />
        </mxCell>
        <mxCell id="WvtxnRwSr4wazI9uZ_7g-63" value="" style="edgeStyle=none;rounded=0;orthogonalLoop=1;jettySize=auto;html=1;exitX=1;exitY=0.5;exitDx=0;exitDy=0;entryX=0;entryY=0.5;entryDx=0;entryDy=0;endArrow=none;endFill=0;" parent="WvtxnRwSr4wazI9uZ_7g-65" source="WvtxnRwSr4wazI9uZ_7g-31" target="WvtxnRwSr4wazI9uZ_7g-64" edge="1">
          <mxGeometry relative="1" as="geometry">
            <mxPoint x="30.5" y="15.749999999999773" as="sourcePoint" />
            <mxPoint x="110.5" y="46.74999999999977" as="targetPoint" />
          </mxGeometry>
        </mxCell>
        <mxCell id="WvtxnRwSr4wazI9uZ_7g-64" value="" style="ellipse;whiteSpace=wrap;html=1;aspect=fixed;rotation=90;" parent="WvtxnRwSr4wazI9uZ_7g-65" vertex="1">
          <mxGeometry x="16.519999999999982" y="13.529999999999745" width="6" height="6" as="geometry" />
        </mxCell>
        <mxCell id="7SQ2KfPjlmpKPXrfd3ve-14" value="" style="shape=cube;whiteSpace=wrap;html=1;boundedLbl=1;backgroundOutline=1;darkOpacity=0.05;darkOpacity2=0.1;size=5;aspect=fixed;fillColor=#F75A5A;strokeColor=#000000;strokeWidth=1;" parent="1" vertex="1">
          <mxGeometry x="3099.7999999999997" y="-78.51999999999998" width="15.8" height="15.2" as="geometry" />
        </mxCell>
        <mxCell id="7SQ2KfPjlmpKPXrfd3ve-15" value="" style="shape=cube;whiteSpace=wrap;html=1;boundedLbl=1;backgroundOutline=1;darkOpacity=0.05;darkOpacity2=0.1;size=5;aspect=fixed;fillColor=#F75A5A;strokeColor=#000000;strokeWidth=1;" parent="1" vertex="1">
          <mxGeometry x="3089.7999999999997" y="-78.51999999999998" width="15.8" height="15.2" as="geometry" />
        </mxCell>
        <mxCell id="7SQ2KfPjlmpKPXrfd3ve-16" value="" style="shape=cube;whiteSpace=wrap;html=1;boundedLbl=1;backgroundOutline=1;darkOpacity=0.05;darkOpacity2=0.1;size=5;aspect=fixed;fillColor=#F75A5A;strokeColor=#000000;strokeWidth=1;" parent="1" vertex="1">
          <mxGeometry x="3079.9999999999995" y="-78.51999999999998" width="15.8" height="15.2" as="geometry" />
        </mxCell>
        <mxCell id="7SQ2KfPjlmpKPXrfd3ve-17" value="" style="shape=cube;whiteSpace=wrap;html=1;boundedLbl=1;backgroundOutline=1;darkOpacity=0.05;darkOpacity2=0.1;size=5;aspect=fixed;fillColor=#F75A5A;strokeColor=#000000;strokeWidth=1;" parent="1" vertex="1">
          <mxGeometry x="3080.9999999999995" y="-88.64999999999999" width="15.8" height="15.2" as="geometry" />
        </mxCell>
        <mxCell id="7SQ2KfPjlmpKPXrfd3ve-18" value="" style="shape=cube;whiteSpace=wrap;html=1;boundedLbl=1;backgroundOutline=1;darkOpacity=0.05;darkOpacity2=0.1;size=5;aspect=fixed;fillColor=#F75A5A;strokeColor=#000000;strokeWidth=1;" parent="1" vertex="1">
          <mxGeometry x="3088.9299999999994" y="-98.51999999999998" width="15.8" height="15.2" as="geometry" />
        </mxCell>
        <mxCell id="7SQ2KfPjlmpKPXrfd3ve-19" value="" style="shape=cube;whiteSpace=wrap;html=1;boundedLbl=1;backgroundOutline=1;darkOpacity=0.05;darkOpacity2=0.1;size=5;aspect=fixed;fillColor=#F75A5A;strokeColor=#000000;strokeWidth=1;" parent="1" vertex="1">
          <mxGeometry x="3098.6399999999994" y="-108.32" width="15.8" height="15.2" as="geometry" />
        </mxCell>
        <mxCell id="7SQ2KfPjlmpKPXrfd3ve-20" value="" style="shape=cube;whiteSpace=wrap;html=1;boundedLbl=1;backgroundOutline=1;darkOpacity=0.05;darkOpacity2=0.1;size=5;aspect=fixed;fillColor=#F75A5A;strokeColor=#000000;strokeWidth=1;" parent="1" vertex="1">
          <mxGeometry x="3092.9299999999994" y="-119.13" width="15.8" height="15.2" as="geometry" />
        </mxCell>
        <mxCell id="7SQ2KfPjlmpKPXrfd3ve-21" value="" style="shape=cube;whiteSpace=wrap;html=1;boundedLbl=1;backgroundOutline=1;darkOpacity=0.05;darkOpacity2=0.1;size=5;aspect=fixed;fillColor=#F75A5A;strokeColor=#000000;strokeWidth=1;" parent="1" vertex="1">
          <mxGeometry x="3081.9999999999995" y="-119.11999999999999" width="15.8" height="15.2" as="geometry" />
        </mxCell>
        <mxCell id="7SQ2KfPjlmpKPXrfd3ve-22" value="" style="shape=cube;whiteSpace=wrap;html=1;boundedLbl=1;backgroundOutline=1;darkOpacity=0.05;darkOpacity2=0.1;size=5;aspect=fixed;fillColor=#F75A5A;strokeColor=#000000;strokeWidth=1;" parent="1" vertex="1">
          <mxGeometry x="3070.9999999999995" y="-116.11999999999999" width="15.8" height="15.2" as="geometry" />
        </mxCell>
        <mxCell id="7SQ2KfPjlmpKPXrfd3ve-23" value="" style="shape=cube;whiteSpace=wrap;html=1;boundedLbl=1;backgroundOutline=1;darkOpacity=0.05;darkOpacity2=0.1;size=5;aspect=fixed;fillColor=#F75A5A;strokeColor=#000000;strokeWidth=1;" parent="1" vertex="1">
          <mxGeometry x="3069.1999999999994" y="-78.51999999999998" width="15.8" height="15.2" as="geometry" />
        </mxCell>
        <mxCell id="7SQ2KfPjlmpKPXrfd3ve-24" value="" style="shape=cube;whiteSpace=wrap;html=1;boundedLbl=1;backgroundOutline=1;darkOpacity=0.05;darkOpacity2=0.1;size=5;aspect=fixed;fillColor=#F75A5A;" parent="1" vertex="1">
          <mxGeometry x="3139.0799999999995" y="-78.91999999999999" width="15.8" height="15.2" as="geometry" />
        </mxCell>
        <mxCell id="7SQ2KfPjlmpKPXrfd3ve-25" value="" style="shape=cube;whiteSpace=wrap;html=1;boundedLbl=1;backgroundOutline=1;darkOpacity=0.05;darkOpacity2=0.1;size=5;aspect=fixed;fillColor=#F75A5A;" parent="1" vertex="1">
          <mxGeometry x="3149.0699999999997" y="-88.91999999999999" width="15.8" height="15.2" as="geometry" />
        </mxCell>
        <mxCell id="7SQ2KfPjlmpKPXrfd3ve-26" value="" style="shape=cube;whiteSpace=wrap;html=1;boundedLbl=1;backgroundOutline=1;darkOpacity=0.05;darkOpacity2=0.1;size=5;aspect=fixed;fillColor=#F75A5A;" parent="1" vertex="1">
          <mxGeometry x="3153.0699999999997" y="-99.32" width="15.8" height="15.2" as="geometry" />
        </mxCell>
        <mxCell id="7SQ2KfPjlmpKPXrfd3ve-27" value="" style="shape=cube;whiteSpace=wrap;html=1;boundedLbl=1;backgroundOutline=1;darkOpacity=0.05;darkOpacity2=0.1;size=5;aspect=fixed;fillColor=#F75A5A;" parent="1" vertex="1">
          <mxGeometry x="3148.8799999999997" y="-109.32" width="15.8" height="15.2" as="geometry" />
        </mxCell>
        <mxCell id="7SQ2KfPjlmpKPXrfd3ve-29" value="" style="shape=cube;whiteSpace=wrap;html=1;boundedLbl=1;backgroundOutline=1;darkOpacity=0.05;darkOpacity2=0.1;size=5;aspect=fixed;fillColor=#F75A5A;" parent="1" vertex="1">
          <mxGeometry x="3139.08" y="-119.11999999999999" width="15.8" height="15.2" as="geometry" />
        </mxCell>
        <mxCell id="7SQ2KfPjlmpKPXrfd3ve-30" value="" style="shape=cube;whiteSpace=wrap;html=1;boundedLbl=1;backgroundOutline=1;darkOpacity=0.05;darkOpacity2=0.1;size=5;aspect=fixed;fillColor=#F75A5A;" parent="1" vertex="1">
          <mxGeometry x="3128.2699999999995" y="-78.91999999999999" width="15.8" height="15.2" as="geometry" />
        </mxCell>
        <mxCell id="7SQ2KfPjlmpKPXrfd3ve-32" value="" style="shape=cube;whiteSpace=wrap;html=1;boundedLbl=1;backgroundOutline=1;darkOpacity=0.05;darkOpacity2=0.1;size=5;aspect=fixed;fillColor=#F75A5A;" parent="1" vertex="1">
          <mxGeometry x="3128.2699999999995" y="-88.91999999999999" width="15.8" height="15.2" as="geometry" />
        </mxCell>
        <mxCell id="7SQ2KfPjlmpKPXrfd3ve-33" value="" style="shape=cube;whiteSpace=wrap;html=1;boundedLbl=1;backgroundOutline=1;darkOpacity=0.05;darkOpacity2=0.1;size=5;aspect=fixed;fillColor=#F75A5A;" parent="1" vertex="1">
          <mxGeometry x="3128.27" y="-99.32" width="15.8" height="15.2" as="geometry" />
        </mxCell>
        <mxCell id="7SQ2KfPjlmpKPXrfd3ve-34" value="" style="shape=cube;whiteSpace=wrap;html=1;boundedLbl=1;backgroundOutline=1;darkOpacity=0.05;darkOpacity2=0.1;size=5;aspect=fixed;fillColor=#F75A5A;" parent="1" vertex="1">
          <mxGeometry x="3128.2699999999995" y="-109.32" width="15.8" height="15.2" as="geometry" />
        </mxCell>
        <mxCell id="7SQ2KfPjlmpKPXrfd3ve-35" value="" style="shape=cube;whiteSpace=wrap;html=1;boundedLbl=1;backgroundOutline=1;darkOpacity=0.05;darkOpacity2=0.1;size=5;aspect=fixed;fillColor=#F75A5A;" parent="1" vertex="1">
          <mxGeometry x="3128.2699999999995" y="-119.11999999999999" width="15.8" height="15.2" as="geometry" />
        </mxCell>
        <mxCell id="7SQ2KfPjlmpKPXrfd3ve-36" value="" style="shape=cube;whiteSpace=wrap;html=1;boundedLbl=1;backgroundOutline=1;darkOpacity=0.05;darkOpacity2=0.1;size=5;aspect=fixed;fillColor=#FFA955;" parent="1" vertex="1">
          <mxGeometry x="3179.9999999999995" y="-79.45" width="15.8" height="15.2" as="geometry" />
        </mxCell>
        <mxCell id="7SQ2KfPjlmpKPXrfd3ve-37" value="" style="shape=cube;whiteSpace=wrap;html=1;boundedLbl=1;backgroundOutline=1;darkOpacity=0.05;darkOpacity2=0.1;size=5;aspect=fixed;fillColor=#FFA955;" parent="1" vertex="1">
          <mxGeometry x="3179.9999999999995" y="-89.32" width="15.8" height="15.2" as="geometry" />
        </mxCell>
        <mxCell id="7SQ2KfPjlmpKPXrfd3ve-38" value="" style="shape=cube;whiteSpace=wrap;html=1;boundedLbl=1;backgroundOutline=1;darkOpacity=0.05;darkOpacity2=0.1;size=5;aspect=fixed;fillColor=#FFA955;" parent="1" vertex="1">
          <mxGeometry x="3190.9999999999995" y="-99.12" width="15.8" height="15.2" as="geometry" />
        </mxCell>
        <mxCell id="7SQ2KfPjlmpKPXrfd3ve-40" value="" style="shape=cube;whiteSpace=wrap;html=1;boundedLbl=1;backgroundOutline=1;darkOpacity=0.05;darkOpacity2=0.1;size=5;aspect=fixed;fillColor=#FFA955;" parent="1" vertex="1">
          <mxGeometry x="3200.9999999999995" y="-118.7" width="15.8" height="15.2" as="geometry" />
        </mxCell>
        <mxCell id="7SQ2KfPjlmpKPXrfd3ve-41" value="" style="shape=cube;whiteSpace=wrap;html=1;boundedLbl=1;backgroundOutline=1;darkOpacity=0.05;darkOpacity2=0.1;size=5;aspect=fixed;fillColor=#FFA955;" parent="1" vertex="1">
          <mxGeometry x="3190.9999999999995" y="-118.7" width="15.8" height="15.2" as="geometry" />
        </mxCell>
        <mxCell id="7SQ2KfPjlmpKPXrfd3ve-43" value="" style="shape=cube;whiteSpace=wrap;html=1;boundedLbl=1;backgroundOutline=1;darkOpacity=0.05;darkOpacity2=0.1;size=5;aspect=fixed;fillColor=#FFA955;" parent="1" vertex="1">
          <mxGeometry x="3179.9999999999995" y="-99.12" width="15.8" height="15.2" as="geometry" />
        </mxCell>
        <mxCell id="7SQ2KfPjlmpKPXrfd3ve-39" value="" style="shape=cube;whiteSpace=wrap;html=1;boundedLbl=1;backgroundOutline=1;darkOpacity=0.05;darkOpacity2=0.1;size=5;aspect=fixed;fillColor=#FFA955;" parent="1" vertex="1">
          <mxGeometry x="3179.9999999999995" y="-109.32" width="15.8" height="15.2" as="geometry" />
        </mxCell>
        <mxCell id="7SQ2KfPjlmpKPXrfd3ve-42" value="" style="shape=cube;whiteSpace=wrap;html=1;boundedLbl=1;backgroundOutline=1;darkOpacity=0.05;darkOpacity2=0.1;size=5;aspect=fixed;fillColor=#FFA955;" parent="1" vertex="1">
          <mxGeometry x="3179.8699999999994" y="-118.7" width="15.8" height="15.2" as="geometry" />
        </mxCell>
        <mxCell id="7SQ2KfPjlmpKPXrfd3ve-44" value="&lt;span style=&quot;color: rgba(0, 0, 0, 0); font-family: monospace; font-size: 0px; text-align: start; text-wrap: nowrap;&quot;&gt;%3CmxGraphModel%3E%3Croot%3E%3CmxCell%20id%3D%220%22%2F%3E%3CmxCell%20id%3D%221%22%20parent%3D%220%22%2F%3E%3CmxCell%20id%3D%222%22%20value%3D%22%22%20style%3D%22shape%3Dcube%3BwhiteSpace%3Dwrap%3Bhtml%3D1%3BboundedLbl%3D1%3BbackgroundOutline%3D1%3BdarkOpacity%3D0.05%3BdarkOpacity2%3D0.1%3Bsize%3D5%3Baspect%3Dfixed%3BfillColor%3D%239999ff%3B%22%20vertex%3D%221%22%20parent%3D%221%22%3E%3CmxGeometry%20x%3D%223179.9999999999995%22%20y%3D%220.19999999999999218%22%20width%3D%2215.8%22%20height%3D%2215.2%22%20as%3D%22geometry%22%2F%3E%3C%2FmxCell%3E%3C%2Froot%3E%3C%2FmxGraphModel%3E&lt;/span&gt;" style="shape=cube;whiteSpace=wrap;html=1;boundedLbl=1;backgroundOutline=1;darkOpacity=0.05;darkOpacity2=0.1;size=5;aspect=fixed;fillColor=#FFD63A;" parent="1" vertex="1">
          <mxGeometry x="3246.9999999999995" y="-87.44999999999999" width="15.8" height="15.2" as="geometry" />
        </mxCell>
        <mxCell id="7SQ2KfPjlmpKPXrfd3ve-45" value="&lt;span style=&quot;color: rgba(0, 0, 0, 0); font-family: monospace; font-size: 0px; text-align: start; text-wrap: nowrap;&quot;&gt;%3CmxGraphModel%3E%3Croot%3E%3CmxCell%20id%3D%220%22%2F%3E%3CmxCell%20id%3D%221%22%20parent%3D%220%22%2F%3E%3CmxCell%20id%3D%222%22%20value%3D%22%22%20style%3D%22shape%3Dcube%3BwhiteSpace%3Dwrap%3Bhtml%3D1%3BboundedLbl%3D1%3BbackgroundOutline%3D1%3BdarkOpacity%3D0.05%3BdarkOpacity2%3D0.1%3Bsize%3D5%3Baspect%3Dfixed%3BfillColor%3D%239999ff%3B%22%20vertex%3D%221%22%20parent%3D%221%22%3E%3CmxGeometry%20x%3D%223179.9999999999995%22%20y%3D%220.19999999999999218%22%20width%3D%2215.8%22%20height%3D%2215.2%22%20as%3D%22geometry%22%2F%3E%3C%2FmxCell%3E%3C%2Froot%3E%3C%2FmxGraphModel%3E&lt;/span&gt;" style="shape=cube;whiteSpace=wrap;html=1;boundedLbl=1;backgroundOutline=1;darkOpacity=0.05;darkOpacity2=0.1;size=5;aspect=fixed;fillColor=#FFD63A;" parent="1" vertex="1">
          <mxGeometry x="3234.9999999999995" y="-78.44999999999999" width="15.8" height="15.2" as="geometry" />
        </mxCell>
        <mxCell id="7SQ2KfPjlmpKPXrfd3ve-46" value="&lt;span style=&quot;color: rgba(0, 0, 0, 0); font-family: monospace; font-size: 0px; text-align: start; text-wrap: nowrap;&quot;&gt;%3CmxGraphModel%3E%3Croot%3E%3CmxCell%20id%3D%220%22%2F%3E%3CmxCell%20id%3D%221%22%20parent%3D%220%22%2F%3E%3CmxCell%20id%3D%222%22%20value%3D%22%22%20style%3D%22shape%3Dcube%3BwhiteSpace%3Dwrap%3Bhtml%3D1%3BboundedLbl%3D1%3BbackgroundOutline%3D1%3BdarkOpacity%3D0.05%3BdarkOpacity2%3D0.1%3Bsize%3D5%3Baspect%3Dfixed%3BfillColor%3D%239999ff%3B%22%20vertex%3D%221%22%20parent%3D%221%22%3E%3CmxGeometry%20x%3D%223179.9999999999995%22%20y%3D%220.19999999999999218%22%20width%3D%2215.8%22%20height%3D%2215.2%22%20as%3D%22geometry%22%2F%3E%3C%2FmxCell%3E%3C%2Froot%3E%3C%2FmxGraphModel%3E&lt;/span&gt;" style="shape=cube;whiteSpace=wrap;html=1;boundedLbl=1;backgroundOutline=1;darkOpacity=0.05;darkOpacity2=0.1;size=5;aspect=fixed;fillColor=#FFD63A;" parent="1" vertex="1">
          <mxGeometry x="3224.1999999999994" y="-78.44999999999999" width="15.8" height="15.2" as="geometry" />
        </mxCell>
        <mxCell id="7SQ2KfPjlmpKPXrfd3ve-47" value="&lt;span style=&quot;color: rgba(0, 0, 0, 0); font-family: monospace; font-size: 0px; text-align: start; text-wrap: nowrap;&quot;&gt;%3CmxGraphModel%3E%3Croot%3E%3CmxCell%20id%3D%220%22%2F%3E%3CmxCell%20id%3D%221%22%20parent%3D%220%22%2F%3E%3CmxCell%20id%3D%222%22%20value%3D%22%22%20style%3D%22shape%3Dcube%3BwhiteSpace%3Dwrap%3Bhtml%3D1%3BboundedLbl%3D1%3BbackgroundOutline%3D1%3BdarkOpacity%3D0.05%3BdarkOpacity2%3D0.1%3Bsize%3D5%3Baspect%3Dfixed%3BfillColor%3D%239999ff%3B%22%20vertex%3D%221%22%20parent%3D%221%22%3E%3CmxGeometry%20x%3D%223179.9999999999995%22%20y%3D%220.19999999999999218%22%20width%3D%2215.8%22%20height%3D%2215.2%22%20as%3D%22geometry%22%2F%3E%3C%2FmxCell%3E%3C%2Froot%3E%3C%2FmxGraphModel%3E&lt;/span&gt;" style="shape=cube;whiteSpace=wrap;html=1;boundedLbl=1;backgroundOutline=1;darkOpacity=0.05;darkOpacity2=0.1;size=5;aspect=fixed;fillColor=#FFD63A;" parent="1" vertex="1">
          <mxGeometry x="3235.9999999999995" y="-97.64999999999999" width="15.8" height="15.2" as="geometry" />
        </mxCell>
        <mxCell id="7SQ2KfPjlmpKPXrfd3ve-48" value="&lt;span style=&quot;color: rgba(0, 0, 0, 0); font-family: monospace; font-size: 0px; text-align: start; text-wrap: nowrap;&quot;&gt;%3CmxGraphModel%3E%3Croot%3E%3CmxCell%20id%3D%220%22%2F%3E%3CmxCell%20id%3D%221%22%20parent%3D%220%22%2F%3E%3CmxCell%20id%3D%222%22%20value%3D%22%22%20style%3D%22shape%3Dcube%3BwhiteSpace%3Dwrap%3Bhtml%3D1%3BboundedLbl%3D1%3BbackgroundOutline%3D1%3BdarkOpacity%3D0.05%3BdarkOpacity2%3D0.1%3Bsize%3D5%3Baspect%3Dfixed%3BfillColor%3D%239999ff%3B%22%20vertex%3D%221%22%20parent%3D%221%22%3E%3CmxGeometry%20x%3D%223179.9999999999995%22%20y%3D%220.19999999999999218%22%20width%3D%2215.8%22%20height%3D%2215.2%22%20as%3D%22geometry%22%2F%3E%3C%2FmxCell%3E%3C%2Froot%3E%3C%2FmxGraphModel%3E&lt;/span&gt;" style="shape=cube;whiteSpace=wrap;html=1;boundedLbl=1;backgroundOutline=1;darkOpacity=0.05;darkOpacity2=0.1;size=5;aspect=fixed;fillColor=#FFD63A;" parent="1" vertex="1">
          <mxGeometry x="3224.1999999999994" y="-107.85" width="15.8" height="15.2" as="geometry" />
        </mxCell>
        <mxCell id="7SQ2KfPjlmpKPXrfd3ve-49" value="&lt;span style=&quot;color: rgba(0, 0, 0, 0); font-family: monospace; font-size: 0px; text-align: start; text-wrap: nowrap;&quot;&gt;%3CmxGraphModel%3E%3Croot%3E%3CmxCell%20id%3D%220%22%2F%3E%3CmxCell%20id%3D%221%22%20parent%3D%220%22%2F%3E%3CmxCell%20id%3D%222%22%20value%3D%22%22%20style%3D%22shape%3Dcube%3BwhiteSpace%3Dwrap%3Bhtml%3D1%3BboundedLbl%3D1%3BbackgroundOutline%3D1%3BdarkOpacity%3D0.05%3BdarkOpacity2%3D0.1%3Bsize%3D5%3Baspect%3Dfixed%3BfillColor%3D%239999ff%3B%22%20vertex%3D%221%22%20parent%3D%221%22%3E%3CmxGeometry%20x%3D%223179.9999999999995%22%20y%3D%220.19999999999999218%22%20width%3D%2215.8%22%20height%3D%2215.2%22%20as%3D%22geometry%22%2F%3E%3C%2FmxCell%3E%3C%2Froot%3E%3C%2FmxGraphModel%3E&lt;/span&gt;" style="shape=cube;whiteSpace=wrap;html=1;boundedLbl=1;backgroundOutline=1;darkOpacity=0.05;darkOpacity2=0.1;size=5;aspect=fixed;fillColor=#FFD63A;" parent="1" vertex="1">
          <mxGeometry x="3246.1999999999994" y="-118.64999999999999" width="15.8" height="15.2" as="geometry" />
        </mxCell>
        <mxCell id="7SQ2KfPjlmpKPXrfd3ve-50" value="&lt;span style=&quot;color: rgba(0, 0, 0, 0); font-family: monospace; font-size: 0px; text-align: start; text-wrap: nowrap;&quot;&gt;%3CmxGraphModel%3E%3Croot%3E%3CmxCell%20id%3D%220%22%2F%3E%3CmxCell%20id%3D%221%22%20parent%3D%220%22%2F%3E%3CmxCell%20id%3D%222%22%20value%3D%22%22%20style%3D%22shape%3Dcube%3BwhiteSpace%3Dwrap%3Bhtml%3D1%3BboundedLbl%3D1%3BbackgroundOutline%3D1%3BdarkOpacity%3D0.05%3BdarkOpacity2%3D0.1%3Bsize%3D5%3Baspect%3Dfixed%3BfillColor%3D%239999ff%3B%22%20vertex%3D%221%22%20parent%3D%221%22%3E%3CmxGeometry%20x%3D%223179.9999999999995%22%20y%3D%220.19999999999999218%22%20width%3D%2215.8%22%20height%3D%2215.2%22%20as%3D%22geometry%22%2F%3E%3C%2FmxCell%3E%3C%2Froot%3E%3C%2FmxGraphModel%3E&lt;/span&gt;" style="shape=cube;whiteSpace=wrap;html=1;boundedLbl=1;backgroundOutline=1;darkOpacity=0.05;darkOpacity2=0.1;size=5;aspect=fixed;fillColor=#FFD63A;" parent="1" vertex="1">
          <mxGeometry x="3235.1999999999994" y="-118.64999999999999" width="15.8" height="15.2" as="geometry" />
        </mxCell>
        <mxCell id="7SQ2KfPjlmpKPXrfd3ve-66" value="" style="rounded=0;whiteSpace=wrap;html=1;fillColor=#f75a5a;" parent="1" vertex="1">
          <mxGeometry x="3080" y="84" width="10" height="10" as="geometry" />
        </mxCell>
        <mxCell id="7SQ2KfPjlmpKPXrfd3ve-67" value="" style="rounded=0;whiteSpace=wrap;html=1;fillColor=#f75a5a;" parent="1" vertex="1">
          <mxGeometry x="3090" y="80" width="10" height="10" as="geometry" />
        </mxCell>
        <mxCell id="7SQ2KfPjlmpKPXrfd3ve-68" value="" style="rounded=0;whiteSpace=wrap;html=1;fillColor=#f75a5a;" parent="1" vertex="1">
          <mxGeometry x="3100" y="80" width="10" height="10" as="geometry" />
        </mxCell>
        <mxCell id="7SQ2KfPjlmpKPXrfd3ve-69" value="" style="rounded=0;whiteSpace=wrap;html=1;fillColor=#f75a5a;" parent="1" vertex="1">
          <mxGeometry x="3108.6" y="90" width="10" height="10" as="geometry" />
        </mxCell>
        <mxCell id="7SQ2KfPjlmpKPXrfd3ve-70" value="" style="rounded=0;whiteSpace=wrap;html=1;fillColor=#f75a5a;" parent="1" vertex="1">
          <mxGeometry x="3097.8" y="100" width="10" height="10" as="geometry" />
        </mxCell>
        <mxCell id="7SQ2KfPjlmpKPXrfd3ve-71" value="" style="rounded=0;whiteSpace=wrap;html=1;fillColor=#f75a5a;" parent="1" vertex="1">
          <mxGeometry x="3087" y="110" width="10" height="10" as="geometry" />
        </mxCell>
        <mxCell id="7SQ2KfPjlmpKPXrfd3ve-72" value="" style="rounded=0;whiteSpace=wrap;html=1;fillColor=#f75a5a;" parent="1" vertex="1">
          <mxGeometry x="3080" y="120" width="10" height="10" as="geometry" />
        </mxCell>
        <mxCell id="7SQ2KfPjlmpKPXrfd3ve-73" value="" style="rounded=0;whiteSpace=wrap;html=1;fillColor=#f75a5a;" parent="1" vertex="1">
          <mxGeometry x="3090" y="120" width="10" height="10" as="geometry" />
        </mxCell>
        <mxCell id="7SQ2KfPjlmpKPXrfd3ve-74" value="" style="rounded=0;whiteSpace=wrap;html=1;fillColor=#f75a5a;" parent="1" vertex="1">
          <mxGeometry x="3100" y="120" width="10" height="10" as="geometry" />
        </mxCell>
        <mxCell id="7SQ2KfPjlmpKPXrfd3ve-75" value="" style="rounded=0;whiteSpace=wrap;html=1;fillColor=#f75a5a;" parent="1" vertex="1">
          <mxGeometry x="3110" y="120" width="10" height="10" as="geometry" />
        </mxCell>
        <mxCell id="7SQ2KfPjlmpKPXrfd3ve-76" value="" style="rounded=0;whiteSpace=wrap;html=1;fillColor=#f75a5a;" parent="1" vertex="1">
          <mxGeometry x="3131.17" y="80" width="10" height="10" as="geometry" />
        </mxCell>
        <mxCell id="7SQ2KfPjlmpKPXrfd3ve-77" value="" style="rounded=0;whiteSpace=wrap;html=1;fillColor=#f75a5a;" parent="1" vertex="1">
          <mxGeometry x="3131.17" y="90" width="10" height="10" as="geometry" />
        </mxCell>
        <mxCell id="7SQ2KfPjlmpKPXrfd3ve-78" value="" style="rounded=0;whiteSpace=wrap;html=1;fillColor=#f75a5a;" parent="1" vertex="1">
          <mxGeometry x="3131.17" y="100" width="10" height="10" as="geometry" />
        </mxCell>
        <mxCell id="7SQ2KfPjlmpKPXrfd3ve-79" value="" style="rounded=0;whiteSpace=wrap;html=1;fillColor=#f75a5a;" parent="1" vertex="1">
          <mxGeometry x="3131.17" y="110" width="10" height="10" as="geometry" />
        </mxCell>
        <mxCell id="7SQ2KfPjlmpKPXrfd3ve-80" value="" style="rounded=0;whiteSpace=wrap;html=1;fillColor=#f75a5a;" parent="1" vertex="1">
          <mxGeometry x="3131.17" y="120" width="10" height="10" as="geometry" />
        </mxCell>
        <mxCell id="7SQ2KfPjlmpKPXrfd3ve-81" value="" style="rounded=0;whiteSpace=wrap;html=1;fillColor=#f75a5a;" parent="1" vertex="1">
          <mxGeometry x="3141.17" y="80" width="10" height="10" as="geometry" />
        </mxCell>
        <mxCell id="7SQ2KfPjlmpKPXrfd3ve-82" value="" style="rounded=0;whiteSpace=wrap;html=1;fillColor=#f75a5a;" parent="1" vertex="1">
          <mxGeometry x="3141.17" y="120" width="10" height="10" as="geometry" />
        </mxCell>
        <mxCell id="7SQ2KfPjlmpKPXrfd3ve-83" value="" style="rounded=0;whiteSpace=wrap;html=1;fillColor=#f75a5a;" parent="1" vertex="1">
          <mxGeometry x="3149.17" y="90" width="10" height="10" as="geometry" />
        </mxCell>
        <mxCell id="7SQ2KfPjlmpKPXrfd3ve-84" value="" style="rounded=0;whiteSpace=wrap;html=1;fillColor=#f75a5a;" parent="1" vertex="1">
          <mxGeometry x="3149.17" y="110" width="10" height="10" as="geometry" />
        </mxCell>
        <mxCell id="7SQ2KfPjlmpKPXrfd3ve-85" value="" style="rounded=0;whiteSpace=wrap;html=1;fillColor=#f75a5a;" parent="1" vertex="1">
          <mxGeometry x="3152.17" y="100" width="10" height="10" as="geometry" />
        </mxCell>
        <mxCell id="7SQ2KfPjlmpKPXrfd3ve-86" value="" style="rounded=0;whiteSpace=wrap;html=1;fillColor=#ffa954;" parent="1" vertex="1">
          <mxGeometry x="3173.87" y="120" width="10" height="10" as="geometry" />
        </mxCell>
        <mxCell id="7SQ2KfPjlmpKPXrfd3ve-87" value="" style="rounded=0;whiteSpace=wrap;html=1;fillColor=#ffa954;" parent="1" vertex="1">
          <mxGeometry x="3173.87" y="110" width="10" height="10" as="geometry" />
        </mxCell>
        <mxCell id="7SQ2KfPjlmpKPXrfd3ve-88" value="" style="rounded=0;whiteSpace=wrap;html=1;fillColor=#ffa954;" parent="1" vertex="1">
          <mxGeometry x="3173.87" y="100" width="10" height="10" as="geometry" />
        </mxCell>
        <mxCell id="7SQ2KfPjlmpKPXrfd3ve-89" value="" style="rounded=0;whiteSpace=wrap;html=1;fillColor=#ffa954;" parent="1" vertex="1">
          <mxGeometry x="3173.87" y="90" width="10" height="10" as="geometry" />
        </mxCell>
        <mxCell id="7SQ2KfPjlmpKPXrfd3ve-90" value="" style="rounded=0;whiteSpace=wrap;html=1;fillColor=#ffa954;" parent="1" vertex="1">
          <mxGeometry x="3173.87" y="80.57" width="10" height="10" as="geometry" />
        </mxCell>
        <mxCell id="7SQ2KfPjlmpKPXrfd3ve-91" value="" style="rounded=0;whiteSpace=wrap;html=1;fillColor=#ffa954;" parent="1" vertex="1">
          <mxGeometry x="3183.87" y="80.57" width="10" height="10" as="geometry" />
        </mxCell>
        <mxCell id="7SQ2KfPjlmpKPXrfd3ve-92" value="" style="rounded=0;whiteSpace=wrap;html=1;fillColor=#ffa954;" parent="1" vertex="1">
          <mxGeometry x="3193.87" y="80.57" width="10" height="10" as="geometry" />
        </mxCell>
        <mxCell id="7SQ2KfPjlmpKPXrfd3ve-93" value="" style="rounded=0;whiteSpace=wrap;html=1;fillColor=#ffa954;" parent="1" vertex="1">
          <mxGeometry x="3183.87" y="100" width="10" height="10" as="geometry" />
        </mxCell>
        <mxCell id="7SQ2KfPjlmpKPXrfd3ve-94" value="" style="rounded=0;whiteSpace=wrap;html=1;fillColor=#f1cc37;" parent="1" vertex="1">
          <mxGeometry x="3210.2" y="120" width="10" height="10" as="geometry" />
        </mxCell>
        <mxCell id="7SQ2KfPjlmpKPXrfd3ve-95" value="" style="rounded=0;whiteSpace=wrap;html=1;fillColor=#f1cc37;" parent="1" vertex="1">
          <mxGeometry x="3220.2" y="120" width="10" height="10" as="geometry" />
        </mxCell>
        <mxCell id="7SQ2KfPjlmpKPXrfd3ve-96" value="" style="rounded=0;whiteSpace=wrap;html=1;fillColor=#f1cc37;" parent="1" vertex="1">
          <mxGeometry x="3230.2" y="111" width="10" height="10" as="geometry" />
        </mxCell>
        <mxCell id="7SQ2KfPjlmpKPXrfd3ve-97" value="" style="rounded=0;whiteSpace=wrap;html=1;fillColor=#f1cc37;" parent="1" vertex="1">
          <mxGeometry x="3220" y="101" width="10" height="10" as="geometry" />
        </mxCell>
        <mxCell id="7SQ2KfPjlmpKPXrfd3ve-98" value="" style="rounded=0;whiteSpace=wrap;html=1;fillColor=#f1cc37;" parent="1" vertex="1">
          <mxGeometry x="3210" y="90.57" width="10" height="10" as="geometry" />
        </mxCell>
        <mxCell id="7SQ2KfPjlmpKPXrfd3ve-99" value="" style="rounded=0;whiteSpace=wrap;html=1;fillColor=#f1cc37;" parent="1" vertex="1">
          <mxGeometry x="3220" y="80.57" width="10" height="10" as="geometry" />
        </mxCell>
        <mxCell id="7SQ2KfPjlmpKPXrfd3ve-100" value="" style="rounded=0;whiteSpace=wrap;html=1;fillColor=#f1cc37;" parent="1" vertex="1">
          <mxGeometry x="3230.2" y="80.57" width="10" height="10" as="geometry" />
        </mxCell>
        <mxCell id="7SQ2KfPjlmpKPXrfd3ve-104" value="" style="group" parent="1" vertex="1" connectable="0">
          <mxGeometry x="3079.87" y="133.05" width="160.13" height="9" as="geometry" />
        </mxCell>
        <mxCell id="7SQ2KfPjlmpKPXrfd3ve-101" value="" style="shape=cube;whiteSpace=wrap;html=1;boundedLbl=1;backgroundOutline=1;darkOpacity=0.05;darkOpacity2=0.1;size=0;fillColor=#6DE1D2;" parent="7SQ2KfPjlmpKPXrfd3ve-104" vertex="1">
          <mxGeometry x="4.280179468491698e-13" width="160.12999999999946" height="3" as="geometry" />
        </mxCell>
        <mxCell id="7SQ2KfPjlmpKPXrfd3ve-102" value="" style="shape=cube;whiteSpace=wrap;html=1;boundedLbl=1;backgroundOutline=1;darkOpacity=0.05;darkOpacity2=0.1;size=0;fillColor=#6DE1D2;" parent="7SQ2KfPjlmpKPXrfd3ve-104" vertex="1">
          <mxGeometry y="3" width="160.12999999999946" height="3" as="geometry" />
        </mxCell>
        <mxCell id="7SQ2KfPjlmpKPXrfd3ve-103" value="" style="shape=cube;whiteSpace=wrap;html=1;boundedLbl=1;backgroundOutline=1;darkOpacity=0.05;darkOpacity2=0.1;size=0;fillColor=#6DE1D2;" parent="7SQ2KfPjlmpKPXrfd3ve-104" vertex="1">
          <mxGeometry y="6" width="160.12999999999946" height="3" as="geometry" />
        </mxCell>
        <mxCell id="r6sXxR2GLzjtd24BJmb--4" value="" style="shape=cube;whiteSpace=wrap;html=1;boundedLbl=1;backgroundOutline=1;darkOpacity=0.05;darkOpacity2=0.1;size=5;aspect=fixed;fillColor=#F75A5A;strokeColor=#000000;strokeWidth=1;" parent="1" vertex="1">
          <mxGeometry x="3243.0999999999995" y="293.66" width="15.8" height="15.2" as="geometry" />
        </mxCell>
        <mxCell id="r6sXxR2GLzjtd24BJmb--5" value="" style="shape=cube;whiteSpace=wrap;html=1;boundedLbl=1;backgroundOutline=1;darkOpacity=0.05;darkOpacity2=0.1;size=5;aspect=fixed;fillColor=#F75A5A;strokeColor=#000000;strokeWidth=1;" parent="1" vertex="1">
          <mxGeometry x="3243.0999999999995" y="283.26000000000005" width="15.8" height="15.2" as="geometry" />
        </mxCell>
        <mxCell id="r6sXxR2GLzjtd24BJmb--6" value="" style="shape=cube;whiteSpace=wrap;html=1;boundedLbl=1;backgroundOutline=1;darkOpacity=0.05;darkOpacity2=0.1;size=5;aspect=fixed;fillColor=#F75A5A;strokeColor=#000000;strokeWidth=1;" parent="1" vertex="1">
          <mxGeometry x="3441.9999999999995" y="298.06" width="15.8" height="15.2" as="geometry" />
        </mxCell>
        <mxCell id="r6sXxR2GLzjtd24BJmb--7" value="" style="shape=cube;whiteSpace=wrap;html=1;boundedLbl=1;backgroundOutline=1;darkOpacity=0.05;darkOpacity2=0.1;size=5;aspect=fixed;fillColor=#F75A5A;strokeColor=#000000;strokeWidth=1;" parent="1" vertex="1">
          <mxGeometry x="3243.0999999999995" y="273.05" width="15.8" height="15.2" as="geometry" />
        </mxCell>
        <mxCell id="r6sXxR2GLzjtd24BJmb--8" value="" style="shape=cube;whiteSpace=wrap;html=1;boundedLbl=1;backgroundOutline=1;darkOpacity=0.05;darkOpacity2=0.1;size=5;aspect=fixed;fillColor=#F75A5A;strokeColor=#000000;strokeWidth=1;" parent="1" vertex="1">
          <mxGeometry x="3243.0999999999995" y="262.86" width="15.8" height="15.2" as="geometry" />
        </mxCell>
        <mxCell id="r6sXxR2GLzjtd24BJmb--9" value="" style="shape=cube;whiteSpace=wrap;html=1;boundedLbl=1;backgroundOutline=1;darkOpacity=0.05;darkOpacity2=0.1;size=5;aspect=fixed;fillColor=#F75A5A;strokeColor=#000000;strokeWidth=1;" parent="1" vertex="1">
          <mxGeometry x="3259.2999999999993" y="252.86" width="15.8" height="15.2" as="geometry" />
        </mxCell>
        <mxCell id="r6sXxR2GLzjtd24BJmb--10" value="" style="shape=cube;whiteSpace=wrap;html=1;boundedLbl=1;backgroundOutline=1;darkOpacity=0.05;darkOpacity2=0.1;size=5;aspect=fixed;fillColor=#F75A5A;strokeColor=#000000;strokeWidth=1;" parent="1" vertex="1">
          <mxGeometry x="3248.7999999999993" y="252.86000000000004" width="15.8" height="15.2" as="geometry" />
        </mxCell>
        <mxCell id="r6sXxR2GLzjtd24BJmb--11" value="" style="shape=cube;whiteSpace=wrap;html=1;boundedLbl=1;backgroundOutline=1;darkOpacity=0.05;darkOpacity2=0.1;size=5;aspect=fixed;fillColor=#F75A5A;strokeColor=#000000;strokeWidth=1;" parent="1" vertex="1">
          <mxGeometry x="3237.6599999999994" y="252.86000000000004" width="15.8" height="15.2" as="geometry" />
        </mxCell>
        <mxCell id="r6sXxR2GLzjtd24BJmb--12" value="" style="shape=cube;whiteSpace=wrap;html=1;boundedLbl=1;backgroundOutline=1;darkOpacity=0.05;darkOpacity2=0.1;size=5;aspect=fixed;fillColor=#F75A5A;strokeColor=#000000;strokeWidth=1;" parent="1" vertex="1">
          <mxGeometry x="3227.2999999999993" y="252.86" width="15.8" height="15.2" as="geometry" />
        </mxCell>
        <mxCell id="r6sXxR2GLzjtd24BJmb--13" value="" style="shape=cube;whiteSpace=wrap;html=1;boundedLbl=1;backgroundOutline=1;darkOpacity=0.05;darkOpacity2=0.1;size=5;aspect=fixed;fillColor=#F75A5A;strokeColor=#000000;strokeWidth=1;" parent="1" vertex="1">
          <mxGeometry x="3431.1999999999985" y="298.06000000000006" width="15.8" height="15.2" as="geometry" />
        </mxCell>
        <mxCell id="r6sXxR2GLzjtd24BJmb--14" value="" style="shape=cube;whiteSpace=wrap;html=1;boundedLbl=1;backgroundOutline=1;darkOpacity=0.05;darkOpacity2=0.1;size=5;aspect=fixed;fillColor=#F75A5A;" parent="1" vertex="1">
          <mxGeometry x="3294.7399999999993" y="293.26" width="15.8" height="15.2" as="geometry" />
        </mxCell>
        <mxCell id="r6sXxR2GLzjtd24BJmb--15" value="" style="shape=cube;whiteSpace=wrap;html=1;boundedLbl=1;backgroundOutline=1;darkOpacity=0.05;darkOpacity2=0.1;size=5;aspect=fixed;fillColor=#F75A5A;" parent="1" vertex="1">
          <mxGeometry x="3304.7299999999996" y="283.26" width="15.8" height="15.2" as="geometry" />
        </mxCell>
        <mxCell id="r6sXxR2GLzjtd24BJmb--16" value="" style="shape=cube;whiteSpace=wrap;html=1;boundedLbl=1;backgroundOutline=1;darkOpacity=0.05;darkOpacity2=0.1;size=5;aspect=fixed;fillColor=#F75A5A;" parent="1" vertex="1">
          <mxGeometry x="3308.7299999999996" y="272.86" width="15.8" height="15.2" as="geometry" />
        </mxCell>
        <mxCell id="r6sXxR2GLzjtd24BJmb--17" value="" style="shape=cube;whiteSpace=wrap;html=1;boundedLbl=1;backgroundOutline=1;darkOpacity=0.05;darkOpacity2=0.1;size=5;aspect=fixed;fillColor=#F75A5A;" parent="1" vertex="1">
          <mxGeometry x="3304.5399999999995" y="262.86" width="15.8" height="15.2" as="geometry" />
        </mxCell>
        <mxCell id="r6sXxR2GLzjtd24BJmb--18" value="" style="shape=cube;whiteSpace=wrap;html=1;boundedLbl=1;backgroundOutline=1;darkOpacity=0.05;darkOpacity2=0.1;size=5;aspect=fixed;fillColor=#F75A5A;" parent="1" vertex="1">
          <mxGeometry x="3294.74" y="253.06000000000003" width="15.8" height="15.2" as="geometry" />
        </mxCell>
        <mxCell id="r6sXxR2GLzjtd24BJmb--19" value="" style="shape=cube;whiteSpace=wrap;html=1;boundedLbl=1;backgroundOutline=1;darkOpacity=0.05;darkOpacity2=0.1;size=5;aspect=fixed;fillColor=#F75A5A;" parent="1" vertex="1">
          <mxGeometry x="3283.9299999999994" y="293.26" width="15.8" height="15.2" as="geometry" />
        </mxCell>
        <mxCell id="r6sXxR2GLzjtd24BJmb--20" value="" style="shape=cube;whiteSpace=wrap;html=1;boundedLbl=1;backgroundOutline=1;darkOpacity=0.05;darkOpacity2=0.1;size=5;aspect=fixed;fillColor=#F75A5A;" parent="1" vertex="1">
          <mxGeometry x="3283.9299999999994" y="283.26" width="15.8" height="15.2" as="geometry" />
        </mxCell>
        <mxCell id="r6sXxR2GLzjtd24BJmb--21" value="" style="shape=cube;whiteSpace=wrap;html=1;boundedLbl=1;backgroundOutline=1;darkOpacity=0.05;darkOpacity2=0.1;size=5;aspect=fixed;fillColor=#F75A5A;" parent="1" vertex="1">
          <mxGeometry x="3283.93" y="272.86" width="15.8" height="15.2" as="geometry" />
        </mxCell>
        <mxCell id="r6sXxR2GLzjtd24BJmb--22" value="" style="shape=cube;whiteSpace=wrap;html=1;boundedLbl=1;backgroundOutline=1;darkOpacity=0.05;darkOpacity2=0.1;size=5;aspect=fixed;fillColor=#F75A5A;" parent="1" vertex="1">
          <mxGeometry x="3283.9299999999994" y="262.86" width="15.8" height="15.2" as="geometry" />
        </mxCell>
        <mxCell id="r6sXxR2GLzjtd24BJmb--23" value="" style="shape=cube;whiteSpace=wrap;html=1;boundedLbl=1;backgroundOutline=1;darkOpacity=0.05;darkOpacity2=0.1;size=5;aspect=fixed;fillColor=#F75A5A;" parent="1" vertex="1">
          <mxGeometry x="3283.9299999999994" y="253.06000000000003" width="15.8" height="15.2" as="geometry" />
        </mxCell>
        <mxCell id="r6sXxR2GLzjtd24BJmb--24" value="" style="shape=cube;whiteSpace=wrap;html=1;boundedLbl=1;backgroundOutline=1;darkOpacity=0.05;darkOpacity2=0.1;size=5;aspect=fixed;fillColor=#FFA955;" parent="1" vertex="1">
          <mxGeometry x="3335.6599999999994" y="292.73" width="15.8" height="15.2" as="geometry" />
        </mxCell>
        <mxCell id="r6sXxR2GLzjtd24BJmb--25" value="" style="shape=cube;whiteSpace=wrap;html=1;boundedLbl=1;backgroundOutline=1;darkOpacity=0.05;darkOpacity2=0.1;size=5;aspect=fixed;fillColor=#FFA955;" parent="1" vertex="1">
          <mxGeometry x="3335.6599999999994" y="282.86" width="15.8" height="15.2" as="geometry" />
        </mxCell>
        <mxCell id="r6sXxR2GLzjtd24BJmb--26" value="" style="shape=cube;whiteSpace=wrap;html=1;boundedLbl=1;backgroundOutline=1;darkOpacity=0.05;darkOpacity2=0.1;size=5;aspect=fixed;fillColor=#FFA955;" parent="1" vertex="1">
          <mxGeometry x="3346.6599999999994" y="273.06" width="15.8" height="15.2" as="geometry" />
        </mxCell>
        <mxCell id="r6sXxR2GLzjtd24BJmb--27" value="" style="shape=cube;whiteSpace=wrap;html=1;boundedLbl=1;backgroundOutline=1;darkOpacity=0.05;darkOpacity2=0.1;size=5;aspect=fixed;fillColor=#FFA955;" parent="1" vertex="1">
          <mxGeometry x="3356.6599999999994" y="253.48000000000005" width="15.8" height="15.2" as="geometry" />
        </mxCell>
        <mxCell id="r6sXxR2GLzjtd24BJmb--28" value="" style="shape=cube;whiteSpace=wrap;html=1;boundedLbl=1;backgroundOutline=1;darkOpacity=0.05;darkOpacity2=0.1;size=5;aspect=fixed;fillColor=#FFA955;" parent="1" vertex="1">
          <mxGeometry x="3346.6599999999994" y="253.48000000000005" width="15.8" height="15.2" as="geometry" />
        </mxCell>
        <mxCell id="r6sXxR2GLzjtd24BJmb--29" value="" style="shape=cube;whiteSpace=wrap;html=1;boundedLbl=1;backgroundOutline=1;darkOpacity=0.05;darkOpacity2=0.1;size=5;aspect=fixed;fillColor=#FFA955;" parent="1" vertex="1">
          <mxGeometry x="3335.6599999999994" y="273.06" width="15.8" height="15.2" as="geometry" />
        </mxCell>
        <mxCell id="r6sXxR2GLzjtd24BJmb--30" value="" style="shape=cube;whiteSpace=wrap;html=1;boundedLbl=1;backgroundOutline=1;darkOpacity=0.05;darkOpacity2=0.1;size=5;aspect=fixed;fillColor=#FFA955;" parent="1" vertex="1">
          <mxGeometry x="3335.6599999999994" y="262.86" width="15.8" height="15.2" as="geometry" />
        </mxCell>
        <mxCell id="r6sXxR2GLzjtd24BJmb--31" value="" style="shape=cube;whiteSpace=wrap;html=1;boundedLbl=1;backgroundOutline=1;darkOpacity=0.05;darkOpacity2=0.1;size=5;aspect=fixed;fillColor=#FFA955;" parent="1" vertex="1">
          <mxGeometry x="3335.5299999999993" y="253.48000000000005" width="15.8" height="15.2" as="geometry" />
        </mxCell>
        <mxCell id="r6sXxR2GLzjtd24BJmb--32" value="&lt;span style=&quot;color: rgba(0, 0, 0, 0); font-family: monospace; font-size: 0px; text-align: start; text-wrap: nowrap;&quot;&gt;%3CmxGraphModel%3E%3Croot%3E%3CmxCell%20id%3D%220%22%2F%3E%3CmxCell%20id%3D%221%22%20parent%3D%220%22%2F%3E%3CmxCell%20id%3D%222%22%20value%3D%22%22%20style%3D%22shape%3Dcube%3BwhiteSpace%3Dwrap%3Bhtml%3D1%3BboundedLbl%3D1%3BbackgroundOutline%3D1%3BdarkOpacity%3D0.05%3BdarkOpacity2%3D0.1%3Bsize%3D5%3Baspect%3Dfixed%3BfillColor%3D%239999ff%3B%22%20vertex%3D%221%22%20parent%3D%221%22%3E%3CmxGeometry%20x%3D%223179.9999999999995%22%20y%3D%220.19999999999999218%22%20width%3D%2215.8%22%20height%3D%2215.2%22%20as%3D%22geometry%22%2F%3E%3C%2FmxCell%3E%3C%2Froot%3E%3C%2FmxGraphModel%3E&lt;/span&gt;" style="shape=cube;whiteSpace=wrap;html=1;boundedLbl=1;backgroundOutline=1;darkOpacity=0.05;darkOpacity2=0.1;size=5;aspect=fixed;fillColor=#FFD63A;" parent="1" vertex="1">
          <mxGeometry x="3402.6599999999994" y="284.73" width="15.8" height="15.2" as="geometry" />
        </mxCell>
        <mxCell id="r6sXxR2GLzjtd24BJmb--33" value="&lt;span style=&quot;color: rgba(0, 0, 0, 0); font-family: monospace; font-size: 0px; text-align: start; text-wrap: nowrap;&quot;&gt;%3CmxGraphModel%3E%3Croot%3E%3CmxCell%20id%3D%220%22%2F%3E%3CmxCell%20id%3D%221%22%20parent%3D%220%22%2F%3E%3CmxCell%20id%3D%222%22%20value%3D%22%22%20style%3D%22shape%3Dcube%3BwhiteSpace%3Dwrap%3Bhtml%3D1%3BboundedLbl%3D1%3BbackgroundOutline%3D1%3BdarkOpacity%3D0.05%3BdarkOpacity2%3D0.1%3Bsize%3D5%3Baspect%3Dfixed%3BfillColor%3D%239999ff%3B%22%20vertex%3D%221%22%20parent%3D%221%22%3E%3CmxGeometry%20x%3D%223179.9999999999995%22%20y%3D%220.19999999999999218%22%20width%3D%2215.8%22%20height%3D%2215.2%22%20as%3D%22geometry%22%2F%3E%3C%2FmxCell%3E%3C%2Froot%3E%3C%2FmxGraphModel%3E&lt;/span&gt;" style="shape=cube;whiteSpace=wrap;html=1;boundedLbl=1;backgroundOutline=1;darkOpacity=0.05;darkOpacity2=0.1;size=5;aspect=fixed;fillColor=#FFD63A;" parent="1" vertex="1">
          <mxGeometry x="3390.6599999999994" y="293.73" width="15.8" height="15.2" as="geometry" />
        </mxCell>
        <mxCell id="r6sXxR2GLzjtd24BJmb--34" value="&lt;span style=&quot;color: rgba(0, 0, 0, 0); font-family: monospace; font-size: 0px; text-align: start; text-wrap: nowrap;&quot;&gt;%3CmxGraphModel%3E%3Croot%3E%3CmxCell%20id%3D%220%22%2F%3E%3CmxCell%20id%3D%221%22%20parent%3D%220%22%2F%3E%3CmxCell%20id%3D%222%22%20value%3D%22%22%20style%3D%22shape%3Dcube%3BwhiteSpace%3Dwrap%3Bhtml%3D1%3BboundedLbl%3D1%3BbackgroundOutline%3D1%3BdarkOpacity%3D0.05%3BdarkOpacity2%3D0.1%3Bsize%3D5%3Baspect%3Dfixed%3BfillColor%3D%239999ff%3B%22%20vertex%3D%221%22%20parent%3D%221%22%3E%3CmxGeometry%20x%3D%223179.9999999999995%22%20y%3D%220.19999999999999218%22%20width%3D%2215.8%22%20height%3D%2215.2%22%20as%3D%22geometry%22%2F%3E%3C%2FmxCell%3E%3C%2Froot%3E%3C%2FmxGraphModel%3E&lt;/span&gt;" style="shape=cube;whiteSpace=wrap;html=1;boundedLbl=1;backgroundOutline=1;darkOpacity=0.05;darkOpacity2=0.1;size=5;aspect=fixed;fillColor=#FFD63A;" parent="1" vertex="1">
          <mxGeometry x="3379.859999999999" y="293.73" width="15.8" height="15.2" as="geometry" />
        </mxCell>
        <mxCell id="r6sXxR2GLzjtd24BJmb--35" value="&lt;span style=&quot;color: rgba(0, 0, 0, 0); font-family: monospace; font-size: 0px; text-align: start; text-wrap: nowrap;&quot;&gt;%3CmxGraphModel%3E%3Croot%3E%3CmxCell%20id%3D%220%22%2F%3E%3CmxCell%20id%3D%221%22%20parent%3D%220%22%2F%3E%3CmxCell%20id%3D%222%22%20value%3D%22%22%20style%3D%22shape%3Dcube%3BwhiteSpace%3Dwrap%3Bhtml%3D1%3BboundedLbl%3D1%3BbackgroundOutline%3D1%3BdarkOpacity%3D0.05%3BdarkOpacity2%3D0.1%3Bsize%3D5%3Baspect%3Dfixed%3BfillColor%3D%239999ff%3B%22%20vertex%3D%221%22%20parent%3D%221%22%3E%3CmxGeometry%20x%3D%223179.9999999999995%22%20y%3D%220.19999999999999218%22%20width%3D%2215.8%22%20height%3D%2215.2%22%20as%3D%22geometry%22%2F%3E%3C%2FmxCell%3E%3C%2Froot%3E%3C%2FmxGraphModel%3E&lt;/span&gt;" style="shape=cube;whiteSpace=wrap;html=1;boundedLbl=1;backgroundOutline=1;darkOpacity=0.05;darkOpacity2=0.1;size=5;aspect=fixed;fillColor=#FFD63A;" parent="1" vertex="1">
          <mxGeometry x="3391.6599999999994" y="274.53000000000003" width="15.8" height="15.2" as="geometry" />
        </mxCell>
        <mxCell id="r6sXxR2GLzjtd24BJmb--36" value="&lt;span style=&quot;color: rgba(0, 0, 0, 0); font-family: monospace; font-size: 0px; text-align: start; text-wrap: nowrap;&quot;&gt;%3CmxGraphModel%3E%3Croot%3E%3CmxCell%20id%3D%220%22%2F%3E%3CmxCell%20id%3D%221%22%20parent%3D%220%22%2F%3E%3CmxCell%20id%3D%222%22%20value%3D%22%22%20style%3D%22shape%3Dcube%3BwhiteSpace%3Dwrap%3Bhtml%3D1%3BboundedLbl%3D1%3BbackgroundOutline%3D1%3BdarkOpacity%3D0.05%3BdarkOpacity2%3D0.1%3Bsize%3D5%3Baspect%3Dfixed%3BfillColor%3D%239999ff%3B%22%20vertex%3D%221%22%20parent%3D%221%22%3E%3CmxGeometry%20x%3D%223179.9999999999995%22%20y%3D%220.19999999999999218%22%20width%3D%2215.8%22%20height%3D%2215.2%22%20as%3D%22geometry%22%2F%3E%3C%2FmxCell%3E%3C%2Froot%3E%3C%2FmxGraphModel%3E&lt;/span&gt;" style="shape=cube;whiteSpace=wrap;html=1;boundedLbl=1;backgroundOutline=1;darkOpacity=0.05;darkOpacity2=0.1;size=5;aspect=fixed;fillColor=#FFD63A;" parent="1" vertex="1">
          <mxGeometry x="3379.859999999999" y="264.33000000000004" width="15.8" height="15.2" as="geometry" />
        </mxCell>
        <mxCell id="r6sXxR2GLzjtd24BJmb--37" value="&lt;span style=&quot;color: rgba(0, 0, 0, 0); font-family: monospace; font-size: 0px; text-align: start; text-wrap: nowrap;&quot;&gt;%3CmxGraphModel%3E%3Croot%3E%3CmxCell%20id%3D%220%22%2F%3E%3CmxCell%20id%3D%221%22%20parent%3D%220%22%2F%3E%3CmxCell%20id%3D%222%22%20value%3D%22%22%20style%3D%22shape%3Dcube%3BwhiteSpace%3Dwrap%3Bhtml%3D1%3BboundedLbl%3D1%3BbackgroundOutline%3D1%3BdarkOpacity%3D0.05%3BdarkOpacity2%3D0.1%3Bsize%3D5%3Baspect%3Dfixed%3BfillColor%3D%239999ff%3B%22%20vertex%3D%221%22%20parent%3D%221%22%3E%3CmxGeometry%20x%3D%223179.9999999999995%22%20y%3D%220.19999999999999218%22%20width%3D%2215.8%22%20height%3D%2215.2%22%20as%3D%22geometry%22%2F%3E%3C%2FmxCell%3E%3C%2Froot%3E%3C%2FmxGraphModel%3E&lt;/span&gt;" style="shape=cube;whiteSpace=wrap;html=1;boundedLbl=1;backgroundOutline=1;darkOpacity=0.05;darkOpacity2=0.1;size=5;aspect=fixed;fillColor=#FFD63A;" parent="1" vertex="1">
          <mxGeometry x="3401.859999999999" y="253.53000000000006" width="15.8" height="15.2" as="geometry" />
        </mxCell>
        <mxCell id="r6sXxR2GLzjtd24BJmb--38" value="&lt;span style=&quot;color: rgba(0, 0, 0, 0); font-family: monospace; font-size: 0px; text-align: start; text-wrap: nowrap;&quot;&gt;%3CmxGraphModel%3E%3Croot%3E%3CmxCell%20id%3D%220%22%2F%3E%3CmxCell%20id%3D%221%22%20parent%3D%220%22%2F%3E%3CmxCell%20id%3D%222%22%20value%3D%22%22%20style%3D%22shape%3Dcube%3BwhiteSpace%3Dwrap%3Bhtml%3D1%3BboundedLbl%3D1%3BbackgroundOutline%3D1%3BdarkOpacity%3D0.05%3BdarkOpacity2%3D0.1%3Bsize%3D5%3Baspect%3Dfixed%3BfillColor%3D%239999ff%3B%22%20vertex%3D%221%22%20parent%3D%221%22%3E%3CmxGeometry%20x%3D%223179.9999999999995%22%20y%3D%220.19999999999999218%22%20width%3D%2215.8%22%20height%3D%2215.2%22%20as%3D%22geometry%22%2F%3E%3C%2FmxCell%3E%3C%2Froot%3E%3C%2FmxGraphModel%3E&lt;/span&gt;" style="shape=cube;whiteSpace=wrap;html=1;boundedLbl=1;backgroundOutline=1;darkOpacity=0.05;darkOpacity2=0.1;size=5;aspect=fixed;fillColor=#FFD63A;" parent="1" vertex="1">
          <mxGeometry x="3390.859999999999" y="253.53000000000006" width="15.8" height="15.2" as="geometry" />
        </mxCell>
        <mxCell id="r6sXxR2GLzjtd24BJmb--43" value="" style="shape=cube;whiteSpace=wrap;html=1;boundedLbl=1;backgroundOutline=1;darkOpacity=0.05;darkOpacity2=0.1;size=5;aspect=fixed;fillColor=#FFA955;" parent="1" vertex="1">
          <mxGeometry x="3194.7699999999995" y="274.05" width="15.8" height="15.2" as="geometry" />
        </mxCell>
        <mxCell id="r6sXxR2GLzjtd24BJmb--44" value="&lt;span style=&quot;color: rgba(0, 0, 0, 0); font-family: monospace; font-size: 0px; text-align: start; text-wrap: nowrap;&quot;&gt;%3CmxGraphModel%3E%3Croot%3E%3CmxCell%20id%3D%220%22%2F%3E%3CmxCell%20id%3D%221%22%20parent%3D%220%22%2F%3E%3CmxCell%20id%3D%222%22%20value%3D%22%22%20style%3D%22shape%3Dcube%3BwhiteSpace%3Dwrap%3Bhtml%3D1%3BboundedLbl%3D1%3BbackgroundOutline%3D1%3BdarkOpacity%3D0.05%3BdarkOpacity2%3D0.1%3Bsize%3D5%3Baspect%3Dfixed%3BfillColor%3D%239999ff%3B%22%20vertex%3D%221%22%20parent%3D%221%22%3E%3CmxGeometry%20x%3D%223179.9999999999995%22%20y%3D%220.19999999999999218%22%20width%3D%2215.8%22%20height%3D%2215.2%22%20as%3D%22geometry%22%2F%3E%3C%2FmxCell%3E%3C%2Froot%3E%3C%2FmxGraphModel%3E&lt;/span&gt;" style="shape=cube;whiteSpace=wrap;html=1;boundedLbl=1;backgroundOutline=1;darkOpacity=0.05;darkOpacity2=0.1;size=5;aspect=fixed;fillColor=#FFD63A;" parent="1" vertex="1">
          <mxGeometry x="3184.769999999999" y="274.05000000000007" width="15.8" height="15.2" as="geometry" />
        </mxCell>
        <mxCell id="r6sXxR2GLzjtd24BJmb--45" value="&lt;span style=&quot;color: rgba(0, 0, 0, 0); font-family: monospace; font-size: 0px; text-align: start; text-wrap: nowrap;&quot;&gt;%3CmxGraphModel%3E%3Croot%3E%3CmxCell%20id%3D%220%22%2F%3E%3CmxCell%20id%3D%221%22%20parent%3D%220%22%2F%3E%3CmxCell%20id%3D%222%22%20value%3D%22%22%20style%3D%22shape%3Dcube%3BwhiteSpace%3Dwrap%3Bhtml%3D1%3BboundedLbl%3D1%3BbackgroundOutline%3D1%3BdarkOpacity%3D0.05%3BdarkOpacity2%3D0.1%3Bsize%3D5%3Baspect%3Dfixed%3BfillColor%3D%239999ff%3B%22%20vertex%3D%221%22%20parent%3D%221%22%3E%3CmxGeometry%20x%3D%223179.9999999999995%22%20y%3D%220.19999999999999218%22%20width%3D%2215.8%22%20height%3D%2215.2%22%20as%3D%22geometry%22%2F%3E%3C%2FmxCell%3E%3C%2Froot%3E%3C%2FmxGraphModel%3E&lt;/span&gt;" style="shape=cube;whiteSpace=wrap;html=1;boundedLbl=1;backgroundOutline=1;darkOpacity=0.05;darkOpacity2=0.1;size=5;aspect=fixed;fillColor=#FFD63A;" parent="1" vertex="1">
          <mxGeometry x="3174.169999999999" y="274.05000000000007" width="15.8" height="15.2" as="geometry" />
        </mxCell>
        <mxCell id="r6sXxR2GLzjtd24BJmb--60" value="" style="shape=cube;whiteSpace=wrap;html=1;boundedLbl=1;backgroundOutline=1;darkOpacity=0.05;darkOpacity2=0.1;size=5;aspect=fixed;fillColor=#FFA955;" parent="1" vertex="1">
          <mxGeometry x="3194.7699999999995" y="264.3" width="15.8" height="15.2" as="geometry" />
        </mxCell>
        <mxCell id="r6sXxR2GLzjtd24BJmb--61" value="&lt;span style=&quot;color: rgba(0, 0, 0, 0); font-family: monospace; font-size: 0px; text-align: start; text-wrap: nowrap;&quot;&gt;%3CmxGraphModel%3E%3Croot%3E%3CmxCell%20id%3D%220%22%2F%3E%3CmxCell%20id%3D%221%22%20parent%3D%220%22%2F%3E%3CmxCell%20id%3D%222%22%20value%3D%22%22%20style%3D%22shape%3Dcube%3BwhiteSpace%3Dwrap%3Bhtml%3D1%3BboundedLbl%3D1%3BbackgroundOutline%3D1%3BdarkOpacity%3D0.05%3BdarkOpacity2%3D0.1%3Bsize%3D5%3Baspect%3Dfixed%3BfillColor%3D%239999ff%3B%22%20vertex%3D%221%22%20parent%3D%221%22%3E%3CmxGeometry%20x%3D%223179.9999999999995%22%20y%3D%220.19999999999999218%22%20width%3D%2215.8%22%20height%3D%2215.2%22%20as%3D%22geometry%22%2F%3E%3C%2FmxCell%3E%3C%2Froot%3E%3C%2FmxGraphModel%3E&lt;/span&gt;" style="shape=cube;whiteSpace=wrap;html=1;boundedLbl=1;backgroundOutline=1;darkOpacity=0.05;darkOpacity2=0.1;size=5;aspect=fixed;fillColor=#FFD63A;" parent="1" vertex="1">
          <mxGeometry x="3184.769999999999" y="264.30000000000007" width="15.8" height="15.2" as="geometry" />
        </mxCell>
        <mxCell id="r6sXxR2GLzjtd24BJmb--63" value="&lt;span style=&quot;color: rgba(0, 0, 0, 0); font-family: monospace; font-size: 0px; text-align: start; text-wrap: nowrap;&quot;&gt;%3CmxGraphModel%3E%3Croot%3E%3CmxCell%20id%3D%220%22%2F%3E%3CmxCell%20id%3D%221%22%20parent%3D%220%22%2F%3E%3CmxCell%20id%3D%222%22%20value%3D%22%22%20style%3D%22shape%3Dcube%3BwhiteSpace%3Dwrap%3Bhtml%3D1%3BboundedLbl%3D1%3BbackgroundOutline%3D1%3BdarkOpacity%3D0.05%3BdarkOpacity2%3D0.1%3Bsize%3D5%3Baspect%3Dfixed%3BfillColor%3D%239999ff%3B%22%20vertex%3D%221%22%20parent%3D%221%22%3E%3CmxGeometry%20x%3D%223179.9999999999995%22%20y%3D%220.19999999999999218%22%20width%3D%2215.8%22%20height%3D%2215.2%22%20as%3D%22geometry%22%2F%3E%3C%2FmxCell%3E%3C%2Froot%3E%3C%2FmxGraphModel%3E&lt;/span&gt;" style="shape=cube;whiteSpace=wrap;html=1;boundedLbl=1;backgroundOutline=1;darkOpacity=0.05;darkOpacity2=0.1;size=5;aspect=fixed;fillColor=#FFD63A;" parent="1" vertex="1">
          <mxGeometry x="3163.169999999999" y="274.05000000000007" width="15.8" height="15.2" as="geometry" />
        </mxCell>
        <mxCell id="r6sXxR2GLzjtd24BJmb--62" value="" style="shape=cube;whiteSpace=wrap;html=1;boundedLbl=1;backgroundOutline=1;darkOpacity=0.05;darkOpacity2=0.1;size=5;aspect=fixed;fillColor=#FFA955;" parent="1" vertex="1">
          <mxGeometry x="3194.7699999999995" y="254.25000000000003" width="15.8" height="15.2" as="geometry" />
        </mxCell>
        <mxCell id="r6sXxR2GLzjtd24BJmb--64" value="" style="shape=cube;whiteSpace=wrap;html=1;boundedLbl=1;backgroundOutline=1;darkOpacity=0.05;darkOpacity2=0.1;size=5;aspect=fixed;fillColor=#FFA955;" parent="1" vertex="1">
          <mxGeometry x="3184.7699999999995" y="254.25000000000003" width="15.8" height="15.2" as="geometry" />
        </mxCell>
        <mxCell id="r6sXxR2GLzjtd24BJmb--59" value="" style="shape=cube;whiteSpace=wrap;html=1;boundedLbl=1;backgroundOutline=1;darkOpacity=0.05;darkOpacity2=0.1;size=5;aspect=fixed;fillColor=#F75A5A;" parent="1" vertex="1">
          <mxGeometry x="3174.169999999999" y="264.3" width="15.8" height="15.2" as="geometry" />
        </mxCell>
        <mxCell id="r6sXxR2GLzjtd24BJmb--42" value="" style="shape=cube;whiteSpace=wrap;html=1;boundedLbl=1;backgroundOutline=1;darkOpacity=0.05;darkOpacity2=0.1;size=5;aspect=fixed;fillColor=#F75A5A;" parent="1" vertex="1">
          <mxGeometry x="3163.169999999999" y="264.3" width="15.8" height="15.2" as="geometry" />
        </mxCell>
        <mxCell id="r6sXxR2GLzjtd24BJmb--80" value="" style="shape=cube;whiteSpace=wrap;html=1;boundedLbl=1;backgroundOutline=1;darkOpacity=0.05;darkOpacity2=0.1;size=5;aspect=fixed;fillColor=#F75A5A;" parent="1" vertex="1">
          <mxGeometry x="3163.169999999999" y="254.25000000000003" width="15.8" height="15.2" as="geometry" />
        </mxCell>
        <mxCell id="r6sXxR2GLzjtd24BJmb--81" value="" style="shape=cube;whiteSpace=wrap;html=1;boundedLbl=1;backgroundOutline=1;darkOpacity=0.05;darkOpacity2=0.1;size=5;aspect=fixed;fillColor=#F75A5A;" parent="1" vertex="1">
          <mxGeometry x="3152.169999999999" y="264.25" width="15.8" height="15.2" as="geometry" />
        </mxCell>
        <mxCell id="r6sXxR2GLzjtd24BJmb--85" value="" style="shape=cube;whiteSpace=wrap;html=1;boundedLbl=1;backgroundOutline=1;darkOpacity=0.05;darkOpacity2=0.1;size=5;aspect=fixed;fillColor=#FFA955;" parent="1" vertex="1">
          <mxGeometry x="3441.9999999999995" y="288" width="15.8" height="15.2" as="geometry" />
        </mxCell>
        <mxCell id="iTxhcsPhiS8V_Kywp3M2-17" value="" style="group" vertex="1" connectable="0" parent="1">
          <mxGeometry x="2979.9999999999995" y="-117.99999999999999" width="61.00000000000091" height="54.20999999999998" as="geometry" />
        </mxCell>
        <mxCell id="iTxhcsPhiS8V_Kywp3M2-1" value="" style="shape=cube;whiteSpace=wrap;html=1;boundedLbl=1;backgroundOutline=1;darkOpacity=0.05;darkOpacity2=0.1;size=10;fillColor=#6DE1D2;" vertex="1" parent="iTxhcsPhiS8V_Kywp3M2-17">
          <mxGeometry x="1.0000000000009095" y="40.26999999999998" width="60" height="13.94" as="geometry" />
        </mxCell>
        <mxCell id="iTxhcsPhiS8V_Kywp3M2-2" value="" style="shape=cube;whiteSpace=wrap;html=1;boundedLbl=1;backgroundOutline=1;darkOpacity=0.05;darkOpacity2=0.1;size=10;fillColor=#6DE1D2;" vertex="1" parent="iTxhcsPhiS8V_Kywp3M2-17">
          <mxGeometry x="1.0000000000009095" y="36.06999999999999" width="60" height="13.94" as="geometry" />
        </mxCell>
        <mxCell id="iTxhcsPhiS8V_Kywp3M2-3" value="" style="shape=cube;whiteSpace=wrap;html=1;boundedLbl=1;backgroundOutline=1;darkOpacity=0.05;darkOpacity2=0.1;size=10;fillColor=#6DE1D2;" vertex="1" parent="iTxhcsPhiS8V_Kywp3M2-17">
          <mxGeometry x="1.0000000000009095" y="32.06999999999999" width="60" height="13.94" as="geometry" />
        </mxCell>
        <mxCell id="iTxhcsPhiS8V_Kywp3M2-4" value="" style="shape=cube;whiteSpace=wrap;html=1;boundedLbl=1;backgroundOutline=1;darkOpacity=0.05;darkOpacity2=0.1;size=10;fillColor=#6DE1D2;" vertex="1" parent="iTxhcsPhiS8V_Kywp3M2-17">
          <mxGeometry x="1.0000000000009095" y="28.069999999999993" width="60" height="13.94" as="geometry" />
        </mxCell>
        <mxCell id="iTxhcsPhiS8V_Kywp3M2-5" value="" style="shape=cube;whiteSpace=wrap;html=1;boundedLbl=1;backgroundOutline=1;darkOpacity=0.05;darkOpacity2=0.1;size=5;aspect=fixed;fillColor=#FFA955;" vertex="1" parent="iTxhcsPhiS8V_Kywp3M2-17">
          <mxGeometry x="42.600000000000364" y="19.80000000000001" width="15.8" height="15.2" as="geometry" />
        </mxCell>
        <mxCell id="iTxhcsPhiS8V_Kywp3M2-6" value="&lt;span style=&quot;color: rgba(0, 0, 0, 0); font-family: monospace; font-size: 0px; text-align: start; text-wrap: nowrap;&quot;&gt;%3CmxGraphModel%3E%3Croot%3E%3CmxCell%20id%3D%220%22%2F%3E%3CmxCell%20id%3D%221%22%20parent%3D%220%22%2F%3E%3CmxCell%20id%3D%222%22%20value%3D%22%22%20style%3D%22shape%3Dcube%3BwhiteSpace%3Dwrap%3Bhtml%3D1%3BboundedLbl%3D1%3BbackgroundOutline%3D1%3BdarkOpacity%3D0.05%3BdarkOpacity2%3D0.1%3Bsize%3D5%3Baspect%3Dfixed%3BfillColor%3D%239999ff%3B%22%20vertex%3D%221%22%20parent%3D%221%22%3E%3CmxGeometry%20x%3D%223179.9999999999995%22%20y%3D%220.19999999999999218%22%20width%3D%2215.8%22%20height%3D%2215.2%22%20as%3D%22geometry%22%2F%3E%3C%2FmxCell%3E%3C%2Froot%3E%3C%2FmxGraphModel%3E&lt;/span&gt;" style="shape=cube;whiteSpace=wrap;html=1;boundedLbl=1;backgroundOutline=1;darkOpacity=0.05;darkOpacity2=0.1;size=5;aspect=fixed;fillColor=#FFD63A;" vertex="1" parent="iTxhcsPhiS8V_Kywp3M2-17">
          <mxGeometry x="32.59999999999991" y="19.800000000000068" width="15.8" height="15.2" as="geometry" />
        </mxCell>
        <mxCell id="iTxhcsPhiS8V_Kywp3M2-7" value="&lt;span style=&quot;color: rgba(0, 0, 0, 0); font-family: monospace; font-size: 0px; text-align: start; text-wrap: nowrap;&quot;&gt;%3CmxGraphModel%3E%3Croot%3E%3CmxCell%20id%3D%220%22%2F%3E%3CmxCell%20id%3D%221%22%20parent%3D%220%22%2F%3E%3CmxCell%20id%3D%222%22%20value%3D%22%22%20style%3D%22shape%3Dcube%3BwhiteSpace%3Dwrap%3Bhtml%3D1%3BboundedLbl%3D1%3BbackgroundOutline%3D1%3BdarkOpacity%3D0.05%3BdarkOpacity2%3D0.1%3Bsize%3D5%3Baspect%3Dfixed%3BfillColor%3D%239999ff%3B%22%20vertex%3D%221%22%20parent%3D%221%22%3E%3CmxGeometry%20x%3D%223179.9999999999995%22%20y%3D%220.19999999999999218%22%20width%3D%2215.8%22%20height%3D%2215.2%22%20as%3D%22geometry%22%2F%3E%3C%2FmxCell%3E%3C%2Froot%3E%3C%2FmxGraphModel%3E&lt;/span&gt;" style="shape=cube;whiteSpace=wrap;html=1;boundedLbl=1;backgroundOutline=1;darkOpacity=0.05;darkOpacity2=0.1;size=5;aspect=fixed;fillColor=#FFD63A;" vertex="1" parent="iTxhcsPhiS8V_Kywp3M2-17">
          <mxGeometry x="22" y="19.800000000000068" width="15.8" height="15.2" as="geometry" />
        </mxCell>
        <mxCell id="iTxhcsPhiS8V_Kywp3M2-8" value="" style="shape=cube;whiteSpace=wrap;html=1;boundedLbl=1;backgroundOutline=1;darkOpacity=0.05;darkOpacity2=0.1;size=5;aspect=fixed;fillColor=#FFA955;" vertex="1" parent="iTxhcsPhiS8V_Kywp3M2-17">
          <mxGeometry x="42.600000000000364" y="10.050000000000011" width="15.8" height="15.2" as="geometry" />
        </mxCell>
        <mxCell id="iTxhcsPhiS8V_Kywp3M2-9" value="&lt;span style=&quot;color: rgba(0, 0, 0, 0); font-family: monospace; font-size: 0px; text-align: start; text-wrap: nowrap;&quot;&gt;%3CmxGraphModel%3E%3Croot%3E%3CmxCell%20id%3D%220%22%2F%3E%3CmxCell%20id%3D%221%22%20parent%3D%220%22%2F%3E%3CmxCell%20id%3D%222%22%20value%3D%22%22%20style%3D%22shape%3Dcube%3BwhiteSpace%3Dwrap%3Bhtml%3D1%3BboundedLbl%3D1%3BbackgroundOutline%3D1%3BdarkOpacity%3D0.05%3BdarkOpacity2%3D0.1%3Bsize%3D5%3Baspect%3Dfixed%3BfillColor%3D%239999ff%3B%22%20vertex%3D%221%22%20parent%3D%221%22%3E%3CmxGeometry%20x%3D%223179.9999999999995%22%20y%3D%220.19999999999999218%22%20width%3D%2215.8%22%20height%3D%2215.2%22%20as%3D%22geometry%22%2F%3E%3C%2FmxCell%3E%3C%2Froot%3E%3C%2FmxGraphModel%3E&lt;/span&gt;" style="shape=cube;whiteSpace=wrap;html=1;boundedLbl=1;backgroundOutline=1;darkOpacity=0.05;darkOpacity2=0.1;size=5;aspect=fixed;fillColor=#FFD63A;" vertex="1" parent="iTxhcsPhiS8V_Kywp3M2-17">
          <mxGeometry x="32.59999999999991" y="10.050000000000068" width="15.8" height="15.2" as="geometry" />
        </mxCell>
        <mxCell id="iTxhcsPhiS8V_Kywp3M2-10" value="&lt;span style=&quot;color: rgba(0, 0, 0, 0); font-family: monospace; font-size: 0px; text-align: start; text-wrap: nowrap;&quot;&gt;%3CmxGraphModel%3E%3Croot%3E%3CmxCell%20id%3D%220%22%2F%3E%3CmxCell%20id%3D%221%22%20parent%3D%220%22%2F%3E%3CmxCell%20id%3D%222%22%20value%3D%22%22%20style%3D%22shape%3Dcube%3BwhiteSpace%3Dwrap%3Bhtml%3D1%3BboundedLbl%3D1%3BbackgroundOutline%3D1%3BdarkOpacity%3D0.05%3BdarkOpacity2%3D0.1%3Bsize%3D5%3Baspect%3Dfixed%3BfillColor%3D%239999ff%3B%22%20vertex%3D%221%22%20parent%3D%221%22%3E%3CmxGeometry%20x%3D%223179.9999999999995%22%20y%3D%220.19999999999999218%22%20width%3D%2215.8%22%20height%3D%2215.2%22%20as%3D%22geometry%22%2F%3E%3C%2FmxCell%3E%3C%2Froot%3E%3C%2FmxGraphModel%3E&lt;/span&gt;" style="shape=cube;whiteSpace=wrap;html=1;boundedLbl=1;backgroundOutline=1;darkOpacity=0.05;darkOpacity2=0.1;size=5;aspect=fixed;fillColor=#FFD63A;" vertex="1" parent="iTxhcsPhiS8V_Kywp3M2-17">
          <mxGeometry x="11" y="19.800000000000068" width="15.8" height="15.2" as="geometry" />
        </mxCell>
        <mxCell id="iTxhcsPhiS8V_Kywp3M2-11" value="" style="shape=cube;whiteSpace=wrap;html=1;boundedLbl=1;backgroundOutline=1;darkOpacity=0.05;darkOpacity2=0.1;size=5;aspect=fixed;fillColor=#FFA955;" vertex="1" parent="iTxhcsPhiS8V_Kywp3M2-17">
          <mxGeometry x="42.600000000000364" width="15.8" height="15.2" as="geometry" />
        </mxCell>
        <mxCell id="iTxhcsPhiS8V_Kywp3M2-12" value="" style="shape=cube;whiteSpace=wrap;html=1;boundedLbl=1;backgroundOutline=1;darkOpacity=0.05;darkOpacity2=0.1;size=5;aspect=fixed;fillColor=#FFA955;" vertex="1" parent="iTxhcsPhiS8V_Kywp3M2-17">
          <mxGeometry x="32.600000000000364" width="15.8" height="15.2" as="geometry" />
        </mxCell>
        <mxCell id="iTxhcsPhiS8V_Kywp3M2-13" value="" style="shape=cube;whiteSpace=wrap;html=1;boundedLbl=1;backgroundOutline=1;darkOpacity=0.05;darkOpacity2=0.1;size=5;aspect=fixed;fillColor=#F75A5A;" vertex="1" parent="iTxhcsPhiS8V_Kywp3M2-17">
          <mxGeometry x="22" y="10.050000000000011" width="15.8" height="15.2" as="geometry" />
        </mxCell>
        <mxCell id="iTxhcsPhiS8V_Kywp3M2-14" value="" style="shape=cube;whiteSpace=wrap;html=1;boundedLbl=1;backgroundOutline=1;darkOpacity=0.05;darkOpacity2=0.1;size=5;aspect=fixed;fillColor=#F75A5A;" vertex="1" parent="iTxhcsPhiS8V_Kywp3M2-17">
          <mxGeometry x="11" y="10.050000000000011" width="15.8" height="15.2" as="geometry" />
        </mxCell>
        <mxCell id="iTxhcsPhiS8V_Kywp3M2-15" value="" style="shape=cube;whiteSpace=wrap;html=1;boundedLbl=1;backgroundOutline=1;darkOpacity=0.05;darkOpacity2=0.1;size=5;aspect=fixed;fillColor=#F75A5A;" vertex="1" parent="iTxhcsPhiS8V_Kywp3M2-17">
          <mxGeometry x="11" width="15.8" height="15.2" as="geometry" />
        </mxCell>
        <mxCell id="iTxhcsPhiS8V_Kywp3M2-16" value="" style="shape=cube;whiteSpace=wrap;html=1;boundedLbl=1;backgroundOutline=1;darkOpacity=0.05;darkOpacity2=0.1;size=5;aspect=fixed;fillColor=#F75A5A;" vertex="1" parent="iTxhcsPhiS8V_Kywp3M2-17">
          <mxGeometry y="10" width="15.8" height="15.2" as="geometry" />
        </mxCell>
        <mxCell id="iTxhcsPhiS8V_Kywp3M2-18" value="" style="shape=flexArrow;endArrow=classic;html=1;rounded=0;endWidth=8.571428571428571;endSize=3.796428571428572;width=9.642857142857144;strokeColor=#06202B;fillColor=#FF3333;" edge="1" parent="1">
          <mxGeometry width="50" height="50" relative="1" as="geometry">
            <mxPoint x="2541" y="216" as="sourcePoint" />
            <mxPoint x="2541.36" y="238.73" as="targetPoint" />
          </mxGeometry>
        </mxCell>
        <mxCell id="iTxhcsPhiS8V_Kywp3M2-19" value="&lt;font face=&quot;Courier New&quot; style=&quot;font-size: 9px;&quot;&gt;layer 0&lt;/font&gt;" style="text;html=1;align=center;verticalAlign=middle;whiteSpace=wrap;rounded=0;" vertex="1" parent="1">
          <mxGeometry x="2525" y="270.73" width="60" height="30" as="geometry" />
        </mxCell>
        <mxCell id="iTxhcsPhiS8V_Kywp3M2-20" value="&lt;font face=&quot;Courier New&quot; style=&quot;font-size: 9px;&quot;&gt;layer 1&lt;/font&gt;" style="text;html=1;align=center;verticalAlign=middle;whiteSpace=wrap;rounded=0;" vertex="1" parent="1">
          <mxGeometry x="2525" y="259.73" width="60" height="30" as="geometry" />
        </mxCell>
        <mxCell id="iTxhcsPhiS8V_Kywp3M2-21" value="&lt;font face=&quot;Courier New&quot; style=&quot;font-size: 9px;&quot;&gt;layer 2&lt;/font&gt;" style="text;html=1;align=center;verticalAlign=middle;whiteSpace=wrap;rounded=0;" vertex="1" parent="1">
          <mxGeometry x="2525" y="249.53000000000003" width="60" height="30" as="geometry" />
        </mxCell>
        <mxCell id="iTxhcsPhiS8V_Kywp3M2-22" value="Traditional container layers" style="text;html=1;align=center;verticalAlign=middle;whiteSpace=wrap;rounded=0;labelBackgroundColor=default;" vertex="1" parent="1">
          <mxGeometry x="2600.69" y="259.73" width="90" height="30" as="geometry" />
        </mxCell>
        <mxCell id="iTxhcsPhiS8V_Kywp3M2-23" value="&lt;font face=&quot;Courier New&quot;&gt;2dfs.field&lt;/font&gt; layer" style="text;html=1;align=center;verticalAlign=middle;whiteSpace=wrap;rounded=0;labelBackgroundColor=default;" vertex="1" parent="1">
          <mxGeometry x="2591.0299999999997" y="182.73" width="109.32" height="30" as="geometry" />
        </mxCell>
      </root>
    </mxGraphModel>
  </diagram>
</mxfile>
